fira-math-thin.sfdir
StartChar: uni0021
Encoding: 33 33 1
Width: 238
Flags: W
HStem: -8 46<112 126.5> 661 20G<108 129 129 129>
VStem: 96 47<8 21> 108 21<202 681 202 681>
LayerCount: 2
Fore
SplineSet
129 681 m 1xd0
 129 202 l 1
 108 202 l 1
 108 681 l 1
 129 681 l 1xd0
119 38 m 0xe0
 134 38 143 28 143 14 c 0
 143 2 134 -8 119 -8 c 0
 105 -8 96 2 96 14 c 0
 96 28 105 38 119 38 c 0xe0
EndSplineSet
EndChar
StartChar: numbersign
Encoding: 35 35 3
Width: 488
Flags: W
HStem: 0 21G<71 93 71 71 308 330 308 308> 200 20<15 98 15 100 122 334 359 436> 460 19<52 132 52 135 157 368 393 473>
VStem: 15 458<200 460 220 460>
LayerCount: 2
Fore
SplineSet
473 460 m 1
 390 460 l 1
 359 220 l 1
 436 220 l 1
 436 200 l 1
 356 200 l 1
 330 0 l 1
 308 0 l 1
 334 200 l 1
 120 200 l 1
 93 0 l 1
 71 0 l 1
 98 200 l 1
 15 200 l 1
 15 220 l 1
 100 220 l 1
 132 460 l 1
 52 460 l 1
 52 479 l 1
 135 479 l 1
 159 662 l 1
 181 662 l 1
 157 479 l 1
 371 479 l 1
 395 662 l 1
 417 662 l 1
 393 479 l 1
 473 479 l 1
 473 460 l 1
122 220 m 1
 337 220 l 1
 368 460 l 1
 154 460 l 1
 122 220 l 1
EndSplineSet
EndChar
StartChar: percent
Encoding: 37 37 5
Width: 760
Flags: W
HStem: -10 19<524 600.5 524 604.5> -4 21G<144 144> 283 19<524 600> 361 19<160 236 160 240> 654 19<159.5 235.5> 664 20G<624 624>
VStem: 63 23<478 555.5 478 564> 310 22<479.5 557.5> 428 22<107 184.5 107 193> 674 23<108.5 186.5>
LayerCount: 2
Fore
SplineSet
606 695 m 1xbbc0
 624 684 l 1
 163 -15 l 1
 144 -4 l 1x77c0
 606 695 l 1xbbc0
198 673 m 0xbbc0
 279 673 332 614 332 519 c 0
 332 424 282 361 198 361 c 0
 116 361 63 422 63 516 c 0
 63 612 113 673 198 673 c 0xbbc0
198 654 m 0
 121 654 86 595 86 516 c 0
 86 440 122 380 198 380 c 0
 274 380 310 440 310 519 c 0
 310 596 273 654 198 654 c 0
562 302 m 0
 644 302 697 243 697 148 c 0
 697 53 647 -10 562 -10 c 0
 481 -10 428 51 428 145 c 0
 428 241 478 302 562 302 c 0
562 283 m 0
 486 283 450 224 450 145 c 0
 450 69 486 9 562 9 c 0
 639 9 674 69 674 148 c 0
 674 225 638 283 562 283 c 0
EndSplineSet
EndChar
StartChar: ampersand
Encoding: 38 38 6
Width: 715
Flags: W
HStem: -10 21<249.5 349.5 249.5 354.5> -7 21G<648 648> 672 20<262.5 337.5>
VStem: 104 23<120.5 206.5 120.5 211.5> 148 23<516.5 580 516.5 586> 428 22<512 587>
LayerCount: 2
Fore
SplineSet
302 692 m 0xb4
 390 692 450 632 450 548 c 0
 450 467 394 421 285 362 c 1
 522 140 l 1
 556 207 577 271 593 354 c 1
 615 348 l 1
 597 262 573 192 536 126 c 1
 666 5 l 1
 648 -7 l 1x74
 525 107 l 1
 475 38 409 -10 300 -10 c 0
 190 -10 104 62 104 165 c 0xb4
 104 258 159 313 252 365 c 1
 180 434 148 472 148 544 c 0xbc
 148 628 213 692 302 692 c 0xb4
302 672 m 0xbc
 223 672 171 615 171 545 c 0
 171 488 184 458 271 376 c 1
 376 431 428 476 428 548 c 0
 428 626 373 672 302 672 c 0xbc
267 352 m 1xb4
 176 302 127 248 127 165 c 0
 127 76 199 11 300 11 c 0
 399 11 461 52 510 121 c 1
 267 352 l 1xb4
EndSplineSet
EndChar
StartChar: uni0028
Encoding: 40 40 8
Width: 325
Flags: W
HStem: -129 958<241 241>
VStem: 69 22<239 461 239 464>
LayerCount: 2
Fore
SplineSet
241 829 m 1
 256 820 l 1
 167 689 91 572 91 350 c 0
 91 128 167 11 256 -120 c 1
 241 -129 l 1
 147 5 69 122 69 350 c 0
 69 578 147 695 241 829 c 1
EndSplineSet
EndChar
StartChar: parenright
Encoding: 41 41 9
Width: 325
Flags: W
HStem: -129 958<84 84>
VStem: 234 22<239 461>
LayerCount: 2
Fore
SplineSet
84 829 m 1
 178 695 256 578 256 350 c 0
 256 122 178 5 84 -129 c 1
 69 -120 l 1
 158 11 234 128 234 350 c 0
 234 572 158 689 69 820 c 1
 84 829 l 1
EndSplineSet
EndChar
StartChar: asterisk
Encoding: 42 42 10
Width: 432
Flags: W
HStem: 712 20G<205 227 227 227>
VStem: 206 20.5
LayerCount: 2
Fore
SplineSet
382 603 m 1
 230 557 l 1
 325 429 l 1
 307 416 l 1
 216 546 l 1
 124 416 l 1
 106 429 l 1
 202 556 l 1
 49 603 l 1
 56 623 l 1
 207 572 l 1
 205 732 l 1
 227 732 l 1
 226 572 l 1
 376 623 l 1
 382 603 l 1
EndSplineSet
EndChar
StartChar: plus
Encoding: 43 43 11
Width: 485
Flags: W
HStem: 320 21<78 232 78 232 254 407>
VStem: 232 22<165 320 165 320 341 496>
LayerCount: 2
Fore
SplineSet
254 496 m 1
 254 341 l 1
 407 341 l 1
 407 320 l 1
 254 320 l 1
 254 165 l 1
 232 165 l 1
 232 320 l 1
 78 320 l 1
 78 341 l 1
 232 341 l 1
 232 496 l 1
 254 496 l 1
EndSplineSet
EndChar
StartChar: hyphen
Encoding: 45 45 13
Width: 399
Flags: W
HStem: 302 21<78 321 78 321>
VStem: 78 243<302 323 302 323>
LayerCount: 2
Fore
SplineSet
78 302 m 1
 78 323 l 1
 321 323 l 1
 321 302 l 1
 78 302 l 1
EndSplineSet
EndChar
StartChar: slash
Encoding: 47 47 15
Width: 520
Flags: W
HStem: -95 893<154 366>
VStem: 134 252
LayerCount: 2
Fore
SplineSet
366 798 m 1
 386 792 l 1
 154 -95 l 1
 134 -89 l 1
 366 798 l 1
EndSplineSet
EndChar
StartChar: zero
Encoding: 48 48 16
Width: 541
Flags: W
HStem: -10 21<215 327 215 334> 652 21<215.5 327.5>
VStem: 76 23<224.5 439.5 224.5 445.5> 442 23<223 437.5>
LayerCount: 2
Fore
SplineSet
271 673 m 0
 397 673 465 559 465 330 c 0
 465 104 397 -10 271 -10 c 0
 144 -10 76 105 76 332 c 0
 76 559 144 673 271 673 c 0
271 652 m 0
 160 652 99 547 99 332 c 0
 99 117 159 11 271 11 c 0
 383 11 442 116 442 330 c 0
 442 545 384 652 271 652 c 0
EndSplineSet
EndChar
StartChar: one
Encoding: 49 49 17
Width: 393
Flags: W
HStem: 0 21G<238 260 238 238>
VStem: 238 22<0 635 635 635>
LayerCount: 2
Fore
SplineSet
260 661 m 1
 260 0 l 1
 238 0 l 1
 238 635 l 1
 64 525 l 1
 53 542 l 1
 242 661 l 1
 260 661 l 1
EndSplineSet
EndChar
StartChar: two
Encoding: 50 50 18
Width: 464
Flags: W
HStem: 0 22<75 401> 652 21<185.5 266>
VStem: 367 23<441 548>
LayerCount: 2
Fore
SplineSet
221 673 m 0
 328 673 390 600 390 506 c 0
 390 369 319 292 75 22 c 1
 405 22 l 1
 401 0 l 1
 47 0 l 1
 47 21 l 1
 305 305 367 378 367 504 c 0
 367 592 311 652 221 652 c 0
 150 652 101 621 60 572 c 1
 43 583 l 1
 93 643 146 673 221 673 c 0
EndSplineSet
EndChar
StartChar: uni0033
Encoding: 51 51 19
Width: 474
Flags: W
HStem: -10 21<174.5 262 174.5 267> 342 20<177 211 211 212 174 211> 652 21<187 260.5>
VStem: 362 23<462.5 554> 380 23<131 236>
LayerCount: 2
Fore
SplineSet
217 673 m 0xf0
 321 673 385 606 385 512 c 0xf0
 385 413 322 361 250 353 c 1
 333 351 403 292 403 182 c 0
 403 69 326 -10 208 -10 c 0
 131 -10 77 17 28 73 c 1
 43 85 l 1
 93 30 141 11 208 11 c 0
 316 11 380 81 380 181 c 0xe8
 380 291 312 342 212 342 c 2
 174 342 l 1
 177 362 l 1
 211 362 l 2
 285 362 362 407 362 511 c 0
 362 597 305 652 216 652 c 0
 158 652 109 634 60 586 c 1
 46 600 l 1
 94 649 147 673 217 673 c 0xf0
EndSplineSet
EndChar
StartChar: four
Encoding: 52 52 20
Width: 503
Flags: W
HStem: 0 21G<348 370 348 348> 187 20<75 348 75 348 370 463>
VStem: 51 24<187 207 205 207> 348 22<0 187 0 187 0 207>
LayerCount: 2
Fore
SplineSet
463 207 m 1
 463 187 l 1
 370 187 l 1
 370 0 l 1
 348 0 l 1
 348 187 l 1
 51 187 l 1
 51 205 l 1
 257 673 l 1
 276 665 l 1
 75 207 l 1
 348 207 l 1
 351 418 l 1
 370 418 l 1
 370 207 l 1
 463 207 l 1
EndSplineSet
EndChar
StartChar: six
Encoding: 54 54 22
Width: 513
Flags: W
HStem: -10 21<212 324.5 212 327.5> 406 21<241.5 324.5> 652 21<237.5 322>
VStem: 76 23 429 22<159.5 284>
LayerCount: 2
Fore
SplineSet
283 427 m 0
 378 427 451 361 451 222 c 0
 451 76 381 -10 274 -10 c 0
 129 -10 76 126 76 288 c 0
 76 524 160 673 303 673 c 0
 349 673 382 658 412 636 c 1
 399 619 l 1
 371 641 342 652 302 652 c 0
 173 652 103 505 99 310 c 1
 140 375 198 427 283 427 c 0
274 11 m 0
 375 11 429 98 429 221 c 0
 429 347 367 406 282 406 c 0
 201 406 140 352 99 278 c 1
 102 125 150 11 274 11 c 0
EndSplineSet
EndChar
StartChar: seven
Encoding: 55 55 23
Width: 432
Flags: W
HStem: -6 21G<114 114> 641 20<38 365 38 389>
VStem: 365 24<641 661>
LayerCount: 2
Fore
SplineSet
389 661 m 1
 389 643 l 1
 114 -6 l 1
 93 2 l 1
 365 641 l 1
 38 641 l 1
 38 661 l 1
 389 661 l 1
EndSplineSet
EndChar
StartChar: uni0038
Encoding: 56 56 24
Width: 526
Flags: W
HStem: -10 22<210 315 210 322.5> 652 21<222.5 304>
VStem: 63 23<118 212.5 118 214> 93 23<479 556.5 479 563> 412 22<476 557.5> 440 23<117.5 212.5>
LayerCount: 2
Fore
SplineSet
308 345 m 1
 418 302 463 258 463 167 c 0
 463 59 382 -10 263 -10 c 0
 139 -10 63 62 63 168 c 0xe4
 63 260 117 324 217 362 c 1
 130 398 93 438 93 513 c 0
 93 613 173 673 263 673 c 0
 353 673 434 618 434 512 c 0xd8
 434 438 397 391 308 345 c 1
116 512 m 0xd8
 116 446 145 410 242 371 c 2
 289 353 l 1
 375 397 412 441 412 511 c 0
 412 604 345 652 263 652 c 0
 182 652 116 601 116 512 c 0xd8
263 12 m 0xe4
 367 12 440 68 440 167 c 0
 440 258 390 294 281 337 c 2
 241 352 l 1
 132 312 86 257 86 168 c 0
 86 68 157 12 263 12 c 0xe4
EndSplineSet
EndChar
StartChar: colon
Encoding: 58 58 26
Width: 163
Flags: W
HStem: -8 46<74 88.5> 406 47<74 88.5>
VStem: 58 47<8 21 423 435.5>
LayerCount: 2
Fore
SplineSet
81 453 m 0
 96 453 105 442 105 429 c 0
 105 417 96 406 81 406 c 0
 67 406 58 417 58 429 c 0
 58 442 67 453 81 453 c 0
81 38 m 0
 96 38 105 28 105 14 c 0
 105 2 96 -8 81 -8 c 0
 67 -8 58 2 58 14 c 0
 58 28 67 38 81 38 c 0
EndSplineSet
EndChar
StartChar: uni003B
Encoding: 59 59 27
Width: 163
Flags: W
HStem: -6 21G<73 73> 406 47<74 88.5>
VStem: 58 47<9.5 21 423 435.5>
LayerCount: 2
Fore
SplineSet
81 453 m 0
 96 453 105 442 105 429 c 0
 105 417 96 406 81 406 c 0
 67 406 58 417 58 429 c 0
 58 442 67 453 81 453 c 0
81 38 m 0
 96 38 105 28 105 14 c 0
 105 4 100 -7 96 -17 c 2
 52 -130 l 1
 35 -130 l 1
 73 -6 l 1
 63 -3 58 5 58 14 c 0
 58 28 67 38 81 38 c 0
EndSplineSet
EndChar
StartChar: uni003C
Encoding: 60 60 28
Width: 495
Flags: W
HStem: 159 344<406 406>
VStem: 79 25<333 333 333 341 333 341>
LayerCount: 2
Fore
SplineSet
406 503 m 1
 415 484 l 1
 104 333 l 1
 415 178 l 1
 406 159 l 1
 79 325 l 1
 79 341 l 1
 406 503 l 1
EndSplineSet
EndChar
StartChar: equal
Encoding: 61 61 29
Width: 485
Flags: W
HStem: 241 22<78 407 78 407> 399 21<78 407 78 407>
VStem: 78 329<241 263 241 263 399 420 241 420>
LayerCount: 2
Fore
SplineSet
78 399 m 1
 78 420 l 1
 407 420 l 1
 407 399 l 1
 78 399 l 1
78 241 m 1
 78 263 l 1
 407 263 l 1
 407 241 l 1
 78 241 l 1
EndSplineSet
EndChar
StartChar: uni003E
Encoding: 62 62 30
Width: 495
Flags: W
HStem: 159 344<88 88>
VStem: 390 25<333 333>
LayerCount: 2
Fore
SplineSet
88 503 m 1
 415 341 l 1
 415 325 l 1
 88 159 l 1
 79 178 l 1
 390 333 l 1
 79 484 l 1
 88 503 l 1
EndSplineSet
EndChar
StartChar: question
Encoding: 63 63 31
Width: 441
Flags: W
HStem: -8 46<185 199.5> 671 20<197.5 271>
VStem: 169 46<8 21> 180 21<202 271 202 273 202 356.5> 362 23<486.5 589.5>
LayerCount: 2
Fore
SplineSet
232 691 m 0xd8
 326 691 385 631 385 555 c 0
 385 408 201 428 201 271 c 2
 201 202 l 1
 180 202 l 1
 180 273 l 2
 180 440 362 418 362 555 c 0
 362 624 310 671 232 671 c 0
 163 671 119 646 72 594 c 1
 56 606 l 1
 106 664 158 691 232 691 c 0xd8
192 38 m 0xe8
 207 38 215 28 215 14 c 0
 215 2 207 -8 192 -8 c 0
 178 -8 169 2 169 14 c 0
 169 28 178 38 192 38 c 0xe8
EndSplineSet
EndChar
StartChar: uni0040
Encoding: 64 64 32
Width: 1020
Flags: W
HStem: -197 21<408 561 408 565> 15 19<724.5 790 724.5 794> 17 20<449 523> 456 21<473 546> 671 21<406 648>
VStem: 100 23<109.5 359 109.5 364> 326 23<167 305.5 167 317> 633 22<168 184 184 430 430 430> 897 23<200 405.5>
LayerCount: 2
Fore
SplineSet
527 692 m 0xbf80
 788 692 920 511 920 309 c 0
 920 80 833 15 755 15 c 0xdf80
 692 15 649 61 639 137 c 1
 608 59 558 17 488 17 c 0xbf80
 400 17 326 88 326 232 c 0
 326 402 417 477 523 477 c 0
 575 477 621 461 655 443 c 1
 655 184 l 2
 655 84 694 34 755 34 c 0xdf80
 825 34 897 92 897 308 c 0
 897 503 769 671 527 671 c 0
 285 671 123 478 123 240 c 0
 123 -21 291 -176 525 -176 c 0
 597 -176 656 -164 709 -144 c 1
 715 -164 l 1
 662 -183 605 -197 525 -197 c 0
 281 -197 100 -35 100 240 c 0
 100 488 271 692 527 692 c 0xbf80
490 37 m 0
 559 37 611 93 633 168 c 1
 633 430 l 1
 602 445 568 456 524 456 c 0
 422 456 349 379 349 232 c 0
 349 102 408 37 490 37 c 0
EndSplineSet
EndChar
StartChar: C
Encoding: 67 67 35
Width: 538
Flags: W
HStem: -10 22<273.5 380.5 273.5 381.5> 670 21<277 378.5>
VStem: 78 23<231.5 455 231.5 458.5>
LayerCount: 2
Fore
SplineSet
344 691 m 0
 419 691 463 668 505 633 c 1
 492 617 l 1
 449 651 411 670 346 670 c 0
 208 670 101 570 101 340 c 0
 101 123 205 12 342 12 c 0
 419 12 461 39 499 71 c 1
 513 54 l 1
 472 19 421 -10 342 -10 c 0
 189 -10 78 113 78 340 c 0
 78 577 195 691 344 691 c 0
EndSplineSet
EndChar
StartChar: F
Encoding: 70 70 38
Width: 471
Flags: W
HStem: 0 21G<123 123 123 146> 335 21<146 396 146 396> 660 21<146 436 146 146>
VStem: 123 23<0 335 356 660>
LayerCount: 2
Fore
SplineSet
123 0 m 1
 123 681 l 1
 439 681 l 1
 436 660 l 1
 146 660 l 1
 146 356 l 1
 396 356 l 1
 396 335 l 1
 146 335 l 1
 146 0 l 1
 123 0 l 1
EndSplineSet
EndChar
StartChar: uni0047
Encoding: 71 71 39
Width: 605
Flags: W
HStem: -10 22<277.5 385.5> 333 21<365 510 365 365> 670 21<288 378.5>
VStem: 78 23<233.5 460.5 233.5 464> 510 23<53 333 333 333>
LayerCount: 2
Fore
SplineSet
348 691 m 0
 417 691 465 672 516 632 c 1
 503 616 l 1
 455 653 409 670 348 670 c 0
 228 670 101 576 101 345 c 0
 101 122 202 12 353 12 c 0
 419 12 467 28 510 53 c 1
 510 333 l 1
 365 333 l 1
 362 354 l 1
 533 354 l 1
 533 41 l 1
 480 10 418 -10 353 -10 c 0
 189 -10 78 110 78 345 c 0
 78 583 215 691 348 691 c 0
EndSplineSet
EndChar
StartChar: uni0048
Encoding: 72 72 40
Width: 660
Flags: W
HStem: 0 21G<123 146 123 123 514 537 514 514> 349 22<146 514 146 514> 661 20G<123 146 146 146 514 537 537 537>
VStem: 123 23<0 349 0 371 371 681> 514 23<0 349 349 349 371 681 0 681>
LayerCount: 2
Fore
SplineSet
514 0 m 1
 514 349 l 1
 146 349 l 1
 146 0 l 1
 123 0 l 1
 123 681 l 1
 146 681 l 1
 146 371 l 1
 514 371 l 1
 514 681 l 1
 537 681 l 1
 537 0 l 1
 514 0 l 1
EndSplineSet
EndChar
StartChar: L
Encoding: 76 76 44
Width: 456
Flags: W
HStem: 0 22<146 430> 661 20G<123 146 146 146>
VStem: 123 23<22 681 22 681 22 681>
LayerCount: 2
Fore
SplineSet
146 681 m 1
 146 22 l 1
 434 22 l 1
 430 0 l 1
 123 0 l 1
 123 681 l 1
 146 681 l 1
EndSplineSet
EndChar
StartChar: M
Encoding: 77 77 45
Width: 762
Flags: W
HStem: 0 21G<78 100 78 78 662 684 662 662> 84 28<381 381 381 392 370 381> 660 21<170 170 589 589>
VStem: 589 20
LayerCount: 2
Fore
SplineSet
609 681 m 1
 684 0 l 1
 662 0 l 1
 623 345 l 2
 611 458 596 592 589 660 c 1
 392 84 l 1
 370 84 l 1
 170 660 l 1
 165 605 148 463 137 354 c 2
 100 0 l 1
 78 0 l 1
 151 681 l 1
 185 681 l 1
 381 112 l 1
 575 681 l 1
 609 681 l 1
EndSplineSet
EndChar
StartChar: N
Encoding: 78 78 46
Width: 661
Flags: W
HStem: 0 26<519 519 519 538 510 519> 656 25<142 142>
VStem: 123 22<0 477 0 681> 516 22<205 681 0 681>
LayerCount: 2
Fore
SplineSet
538 681 m 1
 538 0 l 1
 510 0 l 1
 142 656 l 1
 144 621 145 576 145 477 c 2
 145 0 l 1
 123 0 l 1
 123 681 l 1
 152 681 l 1
 519 26 l 1
 518 66 516 127 516 205 c 2
 516 681 l 1
 538 681 l 1
EndSplineSet
EndChar
StartChar: P
Encoding: 80 80 48
Width: 558
Flags: W
HStem: 0 21G<123 146 123 123> 282 21<146 256 146 258> 660 21<146 261 146 146>
VStem: 123 23<0 282 0 303 303 660> 477 24<415.5 547.5>
LayerCount: 2
Fore
SplineSet
261 681 m 2
 416 681 501 623 501 484 c 0
 501 337 401 282 256 282 c 2
 146 282 l 1
 146 0 l 1
 123 0 l 1
 123 681 l 1
 261 681 l 2
258 303 m 2
 388 303 477 348 477 483 c 0
 477 612 402 660 261 660 c 2
 146 660 l 1
 146 303 l 1
 258 303 l 2
EndSplineSet
EndChar
StartChar: Q
Encoding: 81 81 49
Width: 689
Flags: W
HStem: -8 14 -8 20<271.5 407.5> 670 21<272 418>
VStem: 78 23<233 446.5 233 451> 588 23<237 448.5>
LayerCount: 2
Fore
SplineSet
413 6 m 1xb8
 495 4 572 -11 630 -62 c 1xb8
 614 -81 l 1
 545 -23 471 -8 344 -8 c 0x78
 185 -8 78 115 78 339 c 0
 78 563 187 691 344 691 c 0
 505 691 611 569 611 340 c 0
 611 134 529 29 413 6 c 1xb8
101 339 m 0x78
 101 127 199 12 344 12 c 0
 498 12 588 127 588 340 c 0
 588 557 492 670 344 670 c 0
 200 670 101 554 101 339 c 0x78
EndSplineSet
EndChar
StartChar: uni0054
Encoding: 84 84 52
Width: 476
Flags: W
HStem: 0 21G<226 249 226 226> 659 22<16 226 16 463 249 459 249 249>
VStem: 226 23<0 659 0 659>
LayerCount: 2
Fore
SplineSet
463 681 m 1
 459 659 l 1
 249 659 l 1
 249 0 l 1
 226 0 l 1
 226 659 l 1
 16 659 l 1
 16 681 l 1
 463 681 l 1
EndSplineSet
EndChar
StartChar: uni0056
Encoding: 86 86 54
Width: 534
Flags: W
HStem: 0 21<267 267 267 281 253 267> 661 20G<28 52 52 52 482 506 506 506>
VStem: 28 478<681 681>
LayerCount: 2
Fore
SplineSet
506 681 m 1
 281 0 l 1
 253 0 l 1
 28 681 l 1
 52 681 l 1
 267 21 l 1
 482 681 l 1
 506 681 l 1
EndSplineSet
EndChar
StartChar: uni0057
Encoding: 87 87 55
Width: 790
Flags: W
HStem: 0 24<212 212 212 223 197 212> 659 22<395 395>
VStem: 38 714<681 681>
LayerCount: 2
Fore
SplineSet
752 681 m 1
 593 0 l 1
 567 0 l 1
 395 659 l 1
 223 0 l 1
 197 0 l 1
 38 681 l 1
 62 681 l 1
 212 24 l 1
 381 681 l 1
 409 681 l 1
 580 24 l 1
 729 681 l 1
 752 681 l 1
EndSplineSet
EndChar
StartChar: X
Encoding: 88 88 56
Width: 486
Flags: W
HStem: 0 21G<16 41 16 16 444 469 444 444> 661 20G<41 67 67 67 413 437 437 437>
VStem: 16 453<0 0>
LayerCount: 2
Fore
SplineSet
254 370 m 1
 469 0 l 1
 444 0 l 1
 240 355 l 1
 41 0 l 1
 16 0 l 1
 227 369 l 1
 41 681 l 1
 67 681 l 1
 240 384 l 1
 413 681 l 1
 437 681 l 1
 254 370 l 1
EndSplineSet
EndChar
StartChar: bracketleft
Encoding: 91 91 59
Width: 312
Flags: W
HStem: -106 18<123 229 123 229> 778 18<123 229 123 123>
VStem: 103 20<-88 778 -88 796 -88 796>
LayerCount: 2
Fore
SplineSet
229 796 m 1
 229 778 l 1
 123 778 l 1
 123 -88 l 1
 229 -88 l 1
 229 -106 l 1
 103 -106 l 1
 103 796 l 1
 229 796 l 1
EndSplineSet
EndChar
StartChar: backslash
Encoding: 92 92 60
Width: 520
Flags: W
HStem: -95 893<154 366>
VStem: 134 252
LayerCount: 2
Fore
SplineSet
154 798 m 1
 386 -89 l 1
 366 -95 l 1
 134 792 l 1
 154 798 l 1
EndSplineSet
EndChar
StartChar: uni005D
Encoding: 93 93 61
Width: 312
Flags: W
HStem: -106 18<83 189 83 209 83 189> 778 18<83 189 83 209>
VStem: 189 20<-88 778 778 778>
LayerCount: 2
Fore
SplineSet
209 796 m 1
 209 -106 l 1
 83 -106 l 1
 83 -88 l 1
 189 -88 l 1
 189 778 l 1
 83 778 l 1
 83 796 l 1
 209 796 l 1
EndSplineSet
EndChar
StartChar: asciicircum
Encoding: 94 94 62
Width: 524
Flags: W
HStem: 796 27<261 261>
VStem: 76 370<527 527>
LayerCount: 2
Fore
SplineSet
269 823 m 1
 446 527 l 1
 418 527 l 1
 261 796 l 1
 104 527 l 1
 76 527 l 1
 253 823 l 1
 269 823 l 1
EndSplineSet
EndChar
StartChar: underscore
Encoding: 95 95 63
Width: 520
Flags: W
HStem: -100 21<42 478 42 478>
VStem: 42 436<-100 -79 -100 -79>
LayerCount: 2
Fore
SplineSet
42 -100 m 1
 42 -79 l 1
 478 -79 l 1
 478 -100 l 1
 42 -100 l 1
EndSplineSet
EndChar
StartChar: grave
Encoding: 96 96 64
Width: 246
Flags: W
HStem: 718 20G<30 30>
VStem: 30 186<670 738>
LayerCount: 2
Fore
SplineSet
40 761 m 1
 216 670 l 1
 208 654 l 1
 30 738 l 1
 40 761 l 1
EndSplineSet
EndChar
StartChar: b
Encoding: 98 98 66
Width: 564
Flags: W
HStem: -10 21<265.5 355.5 265.5 364> 0 21G<118 137 118 118> 509 20<270 360.5> 713 20G<118 118> 716 20G<140 140>
VStem: 118 20 469 22<183.5 344>
LayerCount: 2
Fore
SplineSet
308 529 m 0xae
 427 529 491 434 491 264 c 0
 491 95 426 -10 302 -10 c 0
 227 -10 173 31 139 81 c 1xae
 137 0 l 1
 118 0 l 1
 118 733 l 1x76
 140 736 l 1
 140 436 l 1
 179 490 232 529 308 529 c 0xae
301 11 m 0
 410 11 469 103 469 264 c 0
 469 424 413 509 308 509 c 0
 231 509 184 469 140 410 c 1
 140 106 l 1
 178 50 230 11 301 11 c 0
EndSplineSet
EndChar
StartChar: c
Encoding: 99 99 67
Width: 464
Flags: W
HStem: -10 21<229 310 229 313> 509 20<229 309.5>
VStem: 73 23<176 339 176 341.5>
LayerCount: 2
Fore
SplineSet
283 529 m 0
 339 529 379 514 418 479 c 1
 405 464 l 1
 372 493 335 509 284 509 c 0
 174 509 96 421 96 257 c 0
 96 95 175 11 283 11 c 0
 337 11 377 30 410 59 c 1
 423 44 l 1
 387 12 342 -10 284 -10 c 0
 159 -10 73 87 73 257 c 0
 73 426 156 529 283 529 c 0
EndSplineSet
EndChar
StartChar: uni0064
Encoding: 100 100 68
Width: 569
Flags: W
HStem: -10 21<214 306.5 214 308> 0 21G<432 451 432 432> 509 20<222 314> 713 20G<451 451> 716 20G<429 429>
VStem: 73 23<179.5 258 179.5 338> 429 22<89 89 123 418 418 418 446 733 0 736 0 736>
LayerCount: 2
Fore
SplineSet
429 736 m 1xae
 451 733 l 1
 451 0 l 1
 432 0 l 1x76
 429 89 l 1
 400 36 351 -10 265 -10 c 0
 149 -10 73 89 73 258 c 0
 73 418 148 529 275 529 c 0
 356 529 402 487 429 446 c 1
 429 736 l 1xae
266 11 m 0xae
 347 11 394 54 429 123 c 1
 429 418 l 1
 399 465 352 509 276 509 c 0
 168 509 95 413 96 258 c 0
 96 101 162 11 266 11 c 0xae
EndSplineSet
EndChar
StartChar: f
Encoding: 102 102 70
Width: 307
Flags: W
HStem: 0 21G<121 143 121 121> 499 20<31 121 31 121 143 286> 716 21<215 265 207.5 265.5>
VStem: 121 22<0 499 0 499 519 614>
LayerCount: 2
Fore
SplineSet
246 716 m 0
 184 716 143 686 143 614 c 2
 143 519 l 1
 290 519 l 1
 286 499 l 1
 143 499 l 1
 143 0 l 1
 121 0 l 1
 121 499 l 1
 31 499 l 1
 31 519 l 1
 121 519 l 1
 121 617 l 2
 121 695 171 737 244 737 c 0
 286 737 327 725 360 706 c 1
 352 689 l 1
 319 706 285 716 246 716 c 0
EndSplineSet
EndChar
StartChar: uni006A
Encoding: 106 106 74
Width: 258
Flags: W
HStem: -195 21G<28 28> 499 20G<119 141 141 141> 685 39<123 136>
VStem: 119 22<7 519> 129 21
LayerCount: 2
Fore
SplineSet
129 724 m 0xe8
 143 724 150 714 150 704 c 0
 150 694 143 685 129 685 c 0
 117 685 109 694 109 704 c 0
 109 714 117 724 129 724 c 0xe8
141 519 m 1xf0
 141 6 l 2
 141 -122 105 -155 28 -195 c 1
 22 -178 l 1
 90 -142 119 -111 119 7 c 2
 119 519 l 1
 141 519 l 1xf0
EndSplineSet
EndChar
StartChar: k
Encoding: 107 107 75
Width: 463
Flags: W
HStem: 0 21G<118 140 118 118 418 418 418 445> 499 20G<392 420 420 420> 713 20G<118 118> 716 20G<140 140>
VStem: 118 22<0 733 733 733>
LayerCount: 2
Fore
SplineSet
140 736 m 1xd8
 140 0 l 1
 118 0 l 1
 118 733 l 1xe8
 140 736 l 1xd8
420 519 m 1
 174 284 l 1
 445 0 l 1
 418 0 l 1
 146 284 l 1
 392 519 l 1
 420 519 l 1
EndSplineSet
EndChar
StartChar: l
Encoding: 108 108 76
Width: 285
Flags: W
HStem: -10 21<169 193 169 194> 0 21G<232 232> 713 20G<113 113> 716 20G<135 135>
VStem: 113 22<72 73 73 733 733 733>
LayerCount: 2
Fore
SplineSet
185 -10 m 0x98
 142 -10 113 16 113 72 c 2
 113 733 l 1xa8
 135 736 l 1
 135 73 l 2
 135 32 152 11 186 11 c 0x98
 200 11 214 14 226 19 c 1x58
 232 0 l 1
 219 -5 203 -10 185 -10 c 0x98
EndSplineSet
EndChar
StartChar: m
Encoding: 109 109 77
Width: 848
Flags: W
HStem: 0 21G<118 140 118 118 415 437 415 415 713 735 713 713> 499 20G<118 137 137 137> 509 20<274.5 343.5 570.5 641>
VStem: 118 20 415 22<0 369 369 384 0 414> 713 22<0 367 367 369 0 413>
LayerCount: 2
Fore
SplineSet
606 529 m 0xbc
 690 529 735 469 735 369 c 2
 735 0 l 1
 713 0 l 1
 713 367 l 2
 713 459 676 509 606 509 c 0
 535 509 480 459 437 384 c 1
 437 0 l 1
 415 0 l 1
 415 369 l 2
 415 459 379 509 308 509 c 0xbc
 238 509 183 459 140 384 c 1
 140 0 l 1
 118 0 l 1
 118 519 l 1
 137 519 l 1xdc
 139 414 l 1
 181 484 240 529 309 529 c 0
 381 529 425 485 435 410 c 1
 477 482 535 529 606 529 c 0xbc
EndSplineSet
EndChar
StartChar: n
Encoding: 110 110 78
Width: 581
Flags: W
HStem: 0 21G<118 140 118 118 447 469 447 447> 499 20G<118 137 137 137> 509 20<289 369.5>
VStem: 118 20 447 22<0 367 367 369 0 414>
LayerCount: 2
Fore
SplineSet
330 529 m 0xb8
 425 529 469 471 469 369 c 2
 469 0 l 1
 447 0 l 1
 447 367 l 2
 447 461 409 509 330 509 c 0xb8
 246 509 189 459 140 384 c 1
 140 0 l 1
 118 0 l 1
 118 519 l 1
 137 519 l 1xd8
 139 413 l 1
 186 483 248 529 330 529 c 0xb8
EndSplineSet
EndChar
StartChar: uni0071
Encoding: 113 113 81
Width: 569
Flags: W
HStem: -196 21G<451 451> -192 21G<429 429> -10 21<214 306.5 214 308.5> 499 20G<432 451 451 451> 509 20<221.5 314.5>
VStem: 73 23<179.5 258 179.5 338> 429 22<-192 88 88 88 121 418 418 418>
LayerCount: 2
Fore
SplineSet
432 519 m 1x76
 451 519 l 1
 451 -196 l 1xb6
 429 -192 l 1
 429 88 l 1
 401 37 352 -10 265 -10 c 0
 149 -10 73 89 73 258 c 0
 73 418 147 529 275 529 c 0
 357 529 403 486 430 446 c 1x6e
 432 519 l 1x76
266 11 m 0
 347 11 393 53 429 121 c 1
 429 418 l 1
 400 465 353 509 276 509 c 0x6e
 167 509 95 413 96 258 c 0
 96 101 162 11 266 11 c 0
EndSplineSet
EndChar
StartChar: t
Encoding: 116 116 84
Width: 331
Flags: W
HStem: -10 21<197 245 197 246.5> 499 20<28 113 28 113 135 276>
VStem: 113 22<117 118 118 499 519 650 650 650>
LayerCount: 2
Fore
SplineSet
317 37 m 1
 327 20 l 1
 299 3 267 -10 226 -10 c 0
 156 -10 113 33 113 117 c 2
 113 499 l 1
 28 499 l 1
 28 519 l 1
 113 519 l 1
 113 650 l 1
 135 652 l 1
 135 519 l 1
 279 519 l 1
 276 499 l 1
 135 499 l 1
 135 118 l 2
 135 48 167 11 227 11 c 0
 263 11 291 22 317 37 c 1
EndSplineSet
EndChar
StartChar: w
Encoding: 119 119 87
Width: 680
Flags: W
HStem: 0 21<186 186 186 200 171 186> 497 22<341 341>
VStem: 33 614<519 519>
LayerCount: 2
Fore
SplineSet
647 519 m 1
 511 0 l 1
 482 0 l 1
 341 497 l 1
 200 0 l 1
 171 0 l 1
 33 519 l 1
 57 519 l 1
 186 21 l 1
 328 519 l 1
 355 519 l 1
 496 21 l 1
 624 519 l 1
 647 519 l 1
EndSplineSet
EndChar
StartChar: x
Encoding: 120 120 88
Width: 433
Flags: W
HStem: 0 21G<18 43 18 18 389 415 389 389> 499 20G<43 69 69 69 364 390 390 390>
VStem: 18 397<0 0>
LayerCount: 2
Fore
SplineSet
229 279 m 1
 415 0 l 1
 389 0 l 1
 215 265 l 1
 43 0 l 1
 18 0 l 1
 202 278 l 1
 43 519 l 1
 69 519 l 1
 216 292 l 1
 364 519 l 1
 390 519 l 1
 229 279 l 1
EndSplineSet
EndChar
StartChar: y
Encoding: 121 121 89
Width: 444
Flags: W
HStem: -195 21G<59 59> 0 17<211 225 211 225> 0 21G<211 219 211 211> 499 20G<23 47 47 47 396 421 421 421>
VStem: 23 398<519 519>
LayerCount: 2
Fore
SplineSet
421 519 m 1xb8
 240 -1 l 2
 200 -116 169 -163 59 -195 c 1
 56 -177 l 1
 159 -146 181 -103 219 0 c 1
 211 0 l 1
 23 519 l 1
 47 519 l 1
 225 17 l 1xd8
 396 519 l 1
 421 519 l 1xb8
EndSplineSet
EndChar
StartChar: z
Encoding: 122 122 90
Width: 405
Flags: W
HStem: 0 21<59 364> 499 20<58 346 58 374>
VStem: 31 343
LayerCount: 2
Fore
SplineSet
374 519 m 1
 374 501 l 1
 59 21 l 1
 366 21 l 1
 364 0 l 1
 31 0 l 1
 31 18 l 1
 346 499 l 1
 58 499 l 1
 58 519 l 1
 374 519 l 1
EndSplineSet
EndChar
StartChar: uni007D
Encoding: 125 125 93
Width: 328
Flags: W
HStem: -120 18<84 112 84 114.5> 338 22<240.5 264> 800 18<84 112>
VStem: 164 20<-14 257 257 266 441 712 712 715>
LayerCount: 2
Fore
SplineSet
84 818 m 1
 145 818 184 788 184 715 c 2
 184 432 l 2
 184 379 217 360 264 360 c 1
 264 338 l 1
 217 338 184 319 184 266 c 2
 184 -17 l 2
 184 -90 145 -120 84 -120 c 1
 84 -102 l 1
 140 -102 164 -73 164 -14 c 2
 164 257 l 2
 164 319 189 342 240 349 c 1
 189 356 164 379 164 441 c 2
 164 712 l 2
 164 771 140 800 84 800 c 1
 84 818 l 1
EndSplineSet
EndChar
StartChar: sterling
Encoding: 163 163 98
Width: 498
Flags: W
HStem: 0 21<95 431 63 63> 343 21<83 145 83 145 167 384> 652 21<255.5 329>
VStem: 145 22<135 137 137 343 364 505>
LayerCount: 2
Fore
SplineSet
167 137 m 2
 167 70 144 44 95 21 c 1
 434 21 l 1
 431 0 l 1
 63 0 l 1
 63 21 l 1
 121 48 145 72 145 135 c 2
 145 343 l 1
 83 343 l 1
 83 364 l 1
 145 364 l 1
 145 505 l 2
 145 598 196 673 300 673 c 0
 362 673 405 650 443 606 c 1
 428 592 l 1
 394 631 358 652 300 652 c 0
 211 652 167 588 167 505 c 2
 167 364 l 1
 384 364 l 1
 384 343 l 1
 167 343 l 1
 167 137 l 2
EndSplineSet
EndChar
StartChar: yen
Encoding: 165 165 100
Width: 485
Flags: W
HStem: 0 21G<233 255 233 233> 168 22<101 233 101 233 255 388> 308 21<101 223 101 233 101 223 265 388>
VStem: 233 22<0 168 0 168 190 308>
LayerCount: 2
Fore
SplineSet
464 661 m 1
 265 329 l 1
 388 329 l 1
 388 308 l 1
 255 308 l 1
 255 190 l 1
 388 190 l 1
 388 168 l 1
 255 168 l 1
 255 0 l 1
 233 0 l 1
 233 168 l 1
 101 168 l 1
 101 190 l 1
 233 190 l 1
 233 308 l 1
 101 308 l 1
 101 329 l 1
 223 329 l 1
 21 661 l 1
 48 661 l 1
 244 331 l 1
 438 661 l 1
 464 661 l 1
EndSplineSet
EndChar
StartChar: brokenbar
Encoding: 166 166 101
Width: 413
Flags: W
HStem: -98 899<195 217 195 217>
VStem: 195 22<-98 262 -98 262 443 801>
LayerCount: 2
Fore
SplineSet
217 801 m 1
 217 443 l 1
 195 443 l 1
 195 801 l 1
 217 801 l 1
217 262 m 1
 217 -98 l 1
 195 -98 l 1
 195 262 l 1
 217 262 l 1
EndSplineSet
EndChar
StartChar: section
Encoding: 167 167 102
Width: 532
Flags: W
HStem: -64 21<228.5 297 228.5 300.5> 652 20<236 298.5>
VStem: 99 23<290.5 345.5 290.5 347> 126 22<525.5 577.5 520 585> 386 23<30.5 85.5 23.5 89> 410 22<260 314>
LayerCount: 2
Fore
SplineSet
352 160 m 1
 392 137 409 109 409 62 c 0
 409 -15 344 -64 257 -64 c 0
 192 -64 147 -48 102 -20 c 1
 114 -2 l 1
 156 -30 200 -43 257 -43 c 0
 337 -43 386 0 386 61 c 0
 386 117 363 142 257 178 c 0
 143 217 99 245 99 322 c 0xe8
 99 372 127 413 184 451 c 1
 140 476 126 504 126 547 c 0
 126 623 192 672 271 672 c 0
 335 672 375 655 417 629 c 1
 405 612 l 1
 362 639 325 652 272 652 c 0
 200 652 148 607 148 548 c 0xd4
 148 492 173 468 286 430 c 0
 393 393 432 358 432 285 c 0
 432 233 407 194 352 160 c 1
122 322 m 0
 122 259 152 234 263 196 c 0
 292 186 315 178 335 168 c 1
 388 201 410 236 410 284 c 0
 410 344 387 375 280 411 c 0
 248 422 222 432 201 442 c 1
 146 406 122 369 122 322 c 0
EndSplineSet
EndChar
StartChar: dieresis
Encoding: 168 168 103
Width: 265
Flags: W
HStem: 673 39<44 56 209.5 222> 692 20<44 56 209.5 222>
VStem: 195 40<686.5 697.5>
LayerCount: 2
Fore
SplineSet
50 712 m 0xa0
 62 712 70 703 70 692 c 0
 70 681 62 673 50 673 c 0
 38 673 30 681 30 692 c 0
 30 703 38 712 50 712 c 0xa0
216 712 m 0x60
 228 712 235 703 235 692 c 0
 235 681 228 673 216 673 c 0
 203 673 195 681 195 692 c 0
 195 703 203 712 216 712 c 0x60
EndSplineSet
EndChar
StartChar: uni00A9
Encoding: 169 169 104
Width: 810
Flags: W
HStem: 148 21<331.5 479.5 331.5 485> 265 20<374 425.5 374 426.5> 586 20<380.5 422> 701 21<331.5 479.5>
VStem: 127 22<355.5 513 355.5 518.5> 272 23<383.5 494 383.5 497.5> 661 22<357 514.5>
LayerCount: 2
Fore
SplineSet
405 722 m 0
 565 722 683 605 683 435 c 0
 683 268 565 148 405 148 c 0
 245 148 127 265 127 435 c 0
 127 602 245 722 405 722 c 0
406 701 m 0
 257 701 149 591 149 435 c 0
 149 276 257 169 406 169 c 0
 553 169 661 279 661 435 c 0
 661 594 553 701 406 701 c 0
404 606 m 0
 443 606 468 595 491 577 c 1
 480 562 l 1
 460 577 440 586 404 586 c 0
 357 586 295 551 295 437 c 0
 295 330 343 285 405 285 c 0
 446 285 470 298 490 314 c 1
 500 297 l 1
 479 280 448 265 405 265 c 0
 328 265 272 324 272 437 c 0
 272 558 343 606 404 606 c 0
EndSplineSet
EndChar
StartChar: ordfeminine
Encoding: 170 170 105
Width: 500
Flags: W
HStem: 0 21<91 421 91 421> 277 20<187 248> 496 21<256 260 260 349> 661 20<226 284>
VStem: 92 24<362.5 428 362.5 433> 349 22<377 496 496 496 517 561 561 563>
LayerCount: 2
Fore
SplineSet
218 277 m 0
 139 277 92 323 92 393 c 0
 92 473 158 517 256 517 c 2
 349 517 l 1
 349 561 l 2
 349 627 324 661 244 661 c 0
 208 661 171 652 131 637 c 1
 124 656 l 1
 166 672 203 681 244 681 c 0
 334 681 371 641 371 563 c 2
 371 367 l 2
 371 316 382 301 407 292 c 1
 402 277 l 1
 369 286 353 305 352 349 c 1
 321 302 278 277 218 277 c 0
260 496 m 2
 171 496 116 463 116 393 c 0
 116 332 156 297 218 297 c 0
 281 297 321 328 349 377 c 1
 349 496 l 1
 260 496 l 2
91 21 m 1
 421 21 l 1
 421 0 l 1
 91 0 l 1
 91 21 l 1
EndSplineSet
EndChar
StartChar: guillemotleft
Encoding: 171 171 106
Width: 533
Flags: W
HStem: 74 429<240 240 240 429>
VStem: 89 26<288 288 288 295 288 295> 278 26<288 288 288 295 288 295>
LayerCount: 2
Fore
SplineSet
240 503 m 1
 255 494 l 1
 115 288 l 1
 255 83 l 1
 240 74 l 1
 89 281 l 1
 89 295 l 1
 240 503 l 1
429 503 m 1
 444 494 l 1
 304 288 l 1
 444 83 l 1
 429 74 l 1
 278 281 l 1
 278 295 l 1
 429 503 l 1
EndSplineSet
EndChar
StartChar: registered
Encoding: 174 174 109
Width: 637
Flags: W
HStem: 278 19<261 377 261 383.5> 487 19<267 320 320 322 267 320> 618 20<267 267 267 305 305 309> 702 19<259.5 376.5>
VStem: 96 20<440.5 554.5 440.5 559> 245 22<369 487 369 506 506 618> 385 22<540.5 581.5> 521 20<445.5 559>
LayerCount: 2
Fore
SplineSet
318 721 m 0
 446 721 541 628 541 502 c 0
 541 379 449 278 318 278 c 0
 191 278 96 372 96 498 c 0
 96 620 188 721 318 721 c 0
318 297 m 0
 436 297 521 389 521 502 c 0
 521 616 435 702 318 702 c 0
 201 702 116 611 116 498 c 0
 116 383 204 297 318 297 c 0
407 560 m 0
 407 519 382 498 344 490 c 1
 418 369 l 1
 391 369 l 1
 322 487 l 1
 267 487 l 1
 267 369 l 1
 245 369 l 1
 245 638 l 1
 305 638 l 2
 373 638 407 612 407 560 c 0
267 618 m 1
 267 506 l 1
 320 506 l 2
 359 506 385 521 385 560 c 0
 385 603 357 618 309 618 c 2
 267 618 l 1
EndSplineSet
EndChar
StartChar: macron
Encoding: 175 175 110
Width: 267
Flags: W
HStem: 685 21<30 237 30 237>
VStem: 30 207<685 706 685 706>
LayerCount: 2
Fore
SplineSet
237 685 m 1
 30 685 l 1
 30 706 l 1
 237 706 l 1
 237 685 l 1
EndSplineSet
EndChar
StartChar: uni00B0
Encoding: 176 176 111
Width: 520
Flags: W
HStem: 411 21<187 254.5 187 258.5> 671 20<187 254.5>
VStem: 84 23<516 587.5 516 593.5> 333 22<515.5 587>
LayerCount: 2
Fore
SplineSet
219 411 m 0
 148 411 84 464 84 552 c 0
 84 635 148 691 219 691 c 0
 298 691 355 636 355 551 c 0
 355 467 298 411 219 411 c 0
219 432 m 0
 290 432 333 480 333 551 c 0
 333 623 290 671 219 671 c 0
 155 671 107 623 107 552 c 0
 107 480 155 432 219 432 c 0
EndSplineSet
EndChar
StartChar: acute
Encoding: 180 180 115
Width: 246
Flags: W
HStem: 654 107
VStem: 30 186<670 738>
LayerCount: 2
Fore
SplineSet
206 761 m 1
 216 738 l 1
 38 654 l 1
 30 670 l 1
 206 761 l 1
EndSplineSet
EndChar
StartChar: mu
Encoding: 181 181 116
Width: 582
Flags: W
HStem: -192 21G<140 140> -10 21<227 297.5 227 301.5> -3 21G<485 485> 499 20G<118 140 140 140 434 456 456 456>
VStem: 118 22<-192 -64 93.5 142 142 519> 434 22<152 170 170 519>
LayerCount: 2
Fore
SplineSet
485 -3 m 1xbc
 465 -5 l 1xbc
 449 38 441 69 438 123 c 1
 400 49 345 -10 258 -10 c 0
 191 -10 152 22 136 74 c 1
 139 21 140 -16 140 -64 c 2
 140 -192 l 1
 118 -194 l 1
 118 519 l 1
 140 519 l 1
 140 142 l 2
 140 45 196 11 258 11 c 0xdc
 337 11 394 68 434 152 c 1
 434 519 l 1
 456 519 l 1
 456 170 l 2
 456 97 467 47 485 -3 c 1xbc
EndSplineSet
EndChar
StartChar: paragraph
Encoding: 182 182 117
Width: 686
Flags: W
HStem: -196 21G<331 331 495 495> -192 21G<353 353 517 517> 662 19<353 495 353 353>
VStem: 331 22<-192 306 306 306> 495 22<-192 662 662 662>
LayerCount: 2
Fore
SplineSet
333 681 m 2x78
 517 681 l 1
 517 -192 l 1x78
 495 -196 l 1xb8
 495 662 l 1
 353 662 l 1
 353 -192 l 1x78
 331 -196 l 1xb8
 331 306 l 1
 170 309 116 395 116 494 c 0
 116 614 197 681 333 681 c 2x78
EndSplineSet
EndChar
StartChar: uni00B7
Encoding: 183 183 118
Width: 163
Flags: W
HStem: 303 47<74 88.5>
VStem: 58 47<320 332.5>
LayerCount: 2
Fore
SplineSet
81 350 m 0
 96 350 105 339 105 326 c 0
 105 314 96 303 81 303 c 0
 67 303 58 314 58 326 c 0
 58 339 67 350 81 350 c 0
EndSplineSet
EndChar
StartChar: cedilla
Encoding: 184 184 119
Width: 212
Flags: W
HStem: -212 20<85 114 85 120> -194 21G<30 30> -90 16
VStem: 73 18.5 159 23<-158 -123.5>
LayerCount: 2
Fore
SplineSet
92 9 m 1x78
 91 -74 l 1
 151 -77 182 -99 182 -140 c 0
 182 -187 142 -212 98 -212 c 0
 67 -212 47 -204 30 -194 c 1
 40 -177 l 1
 54 -186 72 -192 98 -192 c 0xb8
 130 -192 159 -176 159 -140 c 0
 159 -107 132 -91 70 -90 c 1
 76 9 l 1
 92 9 l 1x78
EndSplineSet
EndChar
StartChar: uni00B9
Encoding: 185 185 120
Width: 400
Flags: W
HStem: 707 25<219 241> 712 20G<224 241 241 241>
VStem: 219 22<322 707 707 707>
LayerCount: 2
Fore
SplineSet
241 732 m 1x60
 241 322 l 1
 219 322 l 1
 219 707 l 1
 109 642 l 1
 98 658 l 1xa0
 224 732 l 1
 241 732 l 1x60
EndSplineSet
EndChar
StartChar: ordmasculine
Encoding: 186 186 121
Width: 500
Flags: W
HStem: 0 21<84 413 84 413> 277 20<203.5 293 203.5 299> 661 20<205.5 295>
VStem: 81 23<421 539 421 543> 393 23<421 539.5>
LayerCount: 2
Fore
SplineSet
249 681 m 0
 352 681 416 611 416 481 c 0
 416 351 350 277 248 277 c 0
 144 277 81 352 81 479 c 0
 81 607 148 681 249 681 c 0
250 661 m 0
 161 661 104 599 104 479 c 0
 104 363 159 297 248 297 c 0
 338 297 393 361 393 481 c 0
 393 598 340 661 250 661 c 0
84 0 m 1
 84 21 l 1
 413 21 l 1
 413 0 l 1
 84 0 l 1
EndSplineSet
EndChar
StartChar: guillemotright
Encoding: 187 187 122
Width: 524
Flags: W
HStem: 74 429<104 104 104 284>
VStem: 230 25<288 288> 410 25<288 288>
LayerCount: 2
Fore
SplineSet
104 503 m 1
 255 295 l 1
 255 281 l 1
 104 74 l 1
 89 83 l 1
 230 288 l 1
 90 494 l 1
 104 503 l 1
284 503 m 1
 435 295 l 1
 435 281 l 1
 284 74 l 1
 269 83 l 1
 410 288 l 1
 269 494 l 1
 284 503 l 1
EndSplineSet
EndChar
StartChar: onequarter
Encoding: 188 188 123
Width: 892
Flags: W
HStem: 0 132<578 769 578 747> 112 20<578 747 578 747 769 827> 656 25<219 241> 661 20G<224 241 241 241> 713 20G<659 659> 722 20G<641 641>
VStem: 219 22<271 656 656 656> 556 22<112 132 130 132> 747 22<0 112 0 112 0 132>
LayerCount: 2
Fore
SplineSet
641 742 m 1x5680
 659 733 l 1x5a80
 251 -66 l 1
 233 -57 l 1
 641 742 l 1x5680
241 271 m 1
 219 271 l 1
 219 656 l 1
 109 591 l 1
 98 607 l 1x6780
 224 681 l 1
 241 681 l 1
 241 271 l 1
827 132 m 1
 827 112 l 1
 769 112 l 1x5680
 769 0 l 1
 747 0 l 1x9680
 747 112 l 1
 556 112 l 1
 556 130 l 1
 688 418 l 1
 706 411 l 1
 578 132 l 1
 747 132 l 1
 750 259 l 1
 769 259 l 1
 769 132 l 1
 827 132 l 1
EndSplineSet
EndChar
StartChar: onehalf
Encoding: 189 189 124
Width: 892
Flags: W
HStem: 0 21<603 809> 396 20<667 717.5> 656 25<219 241> 661 20G<224 241 241 241> 713 20G<659 659> 722 20G<641 641>
VStem: 219 22<271 656 656 656> 778 23<272.5 336.5>
LayerCount: 2
Fore
SplineSet
641 742 m 1xd7
 659 733 l 1xdb
 251 -66 l 1
 233 -57 l 1
 641 742 l 1xd7
241 681 m 1
 241 271 l 1
 219 271 l 1
 219 656 l 1
 109 591 l 1
 98 607 l 1xe7
 224 681 l 1
 241 681 l 1
690 416 m 0
 760 416 801 371 801 311 c 0
 801 226 757 180 603 21 c 1
 813 21 l 1
 809 0 l 1
 576 0 l 1
 576 20 l 1
 741 191 778 235 778 310 c 0
 778 363 745 396 690 396 c 0
 644 396 613 377 588 348 c 1
 571 360 l 1
 605 399 642 416 690 416 c 0
EndSplineSet
EndChar
StartChar: threequarters
Encoding: 190 190 125
Width: 892
Flags: W
HStem: 0 132<578 769 578 747> 112 20<578 747 578 747 769 827> 264 20<173.5 228.5 173.5 233.5> 479 19<175 195 195 197 172 195> 669 20<181 227.5> 713 20G<659 659> 722 20G<641 641>
VStem: 292 22<559 612.5> 302 22<355 417.5> 556 22<112 132 130 132> 747 22<0 112 0 112 0 132>
LayerCount: 2
Fore
SplineSet
641 742 m 1x7aa0
 659 733 l 1x7ca0
 251 -66 l 1
 233 -57 l 1
 641 742 l 1x7aa0
324 385 m 0
 324 314 273 264 194 264 c 0
 144 264 107 282 75 317 c 1
 90 328 l 1
 122 295 154 284 193 284 c 0
 264 284 302 326 302 384 c 0x7aa0
 302 451 260 479 197 479 c 2
 172 479 l 1
 175 498 l 1
 195 498 l 2
 241 498 292 524 292 587 c 0
 292 638 255 669 200 669 c 0
 162 669 133 658 99 630 c 1
 86 643 l 1
 120 673 152 689 201 689 c 0
 269 689 314 647 314 588 c 0x7b20
 314 530 275 496 226 490 c 1
 280 488 324 452 324 385 c 0
827 132 m 1x7ae0
 827 112 l 1
 769 112 l 1x7aa0
 769 0 l 1
 747 0 l 1xbaa0
 747 112 l 1
 556 112 l 1
 556 130 l 1
 688 418 l 1
 706 411 l 1
 578 132 l 1
 747 132 l 1
 750 259 l 1
 769 259 l 1
 769 132 l 1
 827 132 l 1x7ae0
EndSplineSet
EndChar
StartChar: Agrave
Encoding: 192 192 127
Width: 557
Flags: W
HStem: 0 21G<28 51 28 28 505 530 505 505> 203 21<128 428 128 435 121 428> 663 18<278 278>
VStem: 28 502<0 0>
LayerCount: 2
Fore
SplineSet
373 779 m 1
 366 764 l 1
 187 838 l 1
 199 861 l 1
 373 779 l 1
505 0 m 1
 435 203 l 1
 121 203 l 1
 51 0 l 1
 28 0 l 1
 265 681 l 1
 292 681 l 1
 530 0 l 1
 505 0 l 1
128 224 m 1
 428 224 l 1
 278 663 l 1
 128 224 l 1
EndSplineSet
EndChar
StartChar: Atilde
Encoding: 195 195 130
Width: 557
Flags: W
HStem: 0 21G<28 51 28 28 505 530 505 505> 203 21<128 428 128 435 121 428> 663 18<278 278> 804 20<316.5 348.5 316.5 351.5> 847 20<208 237>
VStem: 28 502<0 0>
LayerCount: 2
Fore
SplineSet
220 847 m 0
 196 847 181 837 160 812 c 1
 146 821 l 1
 168 851 190 867 220 867 c 0xfc
 259 867 296 824 337 824 c 0
 360 824 375 835 396 865 c 1
 410 857 l 1
 389 819 366 804 337 804 c 0xf4
 289 804 254 847 220 847 c 0
505 0 m 1xf4
 435 203 l 1
 121 203 l 1
 51 0 l 1
 28 0 l 1
 265 681 l 1
 292 681 l 1
 530 0 l 1
 505 0 l 1xf4
128 224 m 1
 428 224 l 1
 278 663 l 1
 128 224 l 1
EndSplineSet
EndChar
StartChar: Adieresis
Encoding: 196 196 131
Width: 557
Flags: W
HStem: 0 21G<28 51 28 28 505 530 505 505> 203 21<128 428 128 435 121 428> 663 18<278 278> 799 39<190 202 355.5 368>
VStem: 341 21<812.5 823.5>
LayerCount: 2
Fore
SplineSet
196 799 m 0
 184 799 176 807 176 818 c 0
 176 829 184 838 196 838 c 0
 208 838 216 829 216 818 c 0
 216 807 208 799 196 799 c 0
362 799 m 0
 349 799 341 807 341 818 c 0
 341 829 349 838 362 838 c 0
 374 838 381 829 381 818 c 0
 381 807 374 799 362 799 c 0
505 0 m 1
 435 203 l 1
 121 203 l 1
 51 0 l 1
 28 0 l 1
 265 681 l 1
 292 681 l 1
 530 0 l 1
 505 0 l 1
128 224 m 1
 428 224 l 1
 278 663 l 1
 128 224 l 1
EndSplineSet
EndChar
StartChar: uni00C5
Encoding: 197 197 132
Width: 557
Flags: W
HStem: 0 21G<28 51 28 28 505 530 505 505> 203 21<128 428 128 435 121 428> 663 18<278 278> 770 18<259.5 297 259.5 302> 909 18<259.5 297>
VStem: 199 21<829.5 867 829.5 872> 337 21<830 867.5>
LayerCount: 2
Fore
SplineSet
278 770 m 0
 230 770 199 801 199 848 c 0
 199 896 231 927 278 927 c 0
 327 927 358 896 358 849 c 0
 358 801 326 770 278 770 c 0
278 909 m 0
 241 909 220 886 220 848 c 0
 220 811 241 788 278 788 c 0
 316 788 337 811 337 849 c 0
 337 886 316 909 278 909 c 0
505 0 m 1
 435 203 l 1
 121 203 l 1
 51 0 l 1
 28 0 l 1
 265 681 l 1
 292 681 l 1
 530 0 l 1
 505 0 l 1
128 224 m 1
 428 224 l 1
 278 663 l 1
 128 224 l 1
EndSplineSet
EndChar
StartChar: AE
Encoding: 198 198 133
Width: 755
Flags: W
HStem: 0 21<481 712 481 712 464 712> 196 22<119 406 119 412 110 406> 349 21<395 651 395 395> 660 21<313 656 313 313>
VStem: 12 700<0 21>
LayerCount: 2
Fore
SplineSet
481 21 m 1
 712 21 l 1
 712 0 l 1
 464 0 l 1
 412 196 l 1
 110 196 l 1
 35 0 l 1
 12 0 l 1
 275 681 l 1
 659 681 l 1
 656 660 l 1
 313 660 l 1
 389 370 l 1
 651 370 l 1
 651 349 l 1
 395 349 l 1
 481 21 l 1
119 218 m 1
 406 218 l 1
 289 663 l 1
 119 218 l 1
EndSplineSet
EndChar
StartChar: Ccedilla
Encoding: 199 199 134
Width: 538
Flags: W
HStem: -212 20<336 365 336 371> -194 21G<281 281> -90 16 -10 22<326 326 343 380.5 273.5 382> 670 21<277 378.5>
VStem: 78 23<231.5 455 231.5 458.5> 323.5 19 410 23<-158 -123.5>
LayerCount: 2
Fore
SplineSet
342 -74 m 1x7f
 402 -77 433 -99 433 -140 c 0
 433 -187 393 -212 349 -212 c 0
 318 -212 298 -204 281 -194 c 1
 291 -177 l 1
 305 -186 323 -192 349 -192 c 0xbf
 381 -192 410 -176 410 -140 c 0
 410 -107 383 -91 321 -90 c 1
 326 -10 l 1
 181 -1 78 121 78 340 c 0
 78 577 195 691 344 691 c 0
 419 691 463 668 505 633 c 1
 492 617 l 1
 449 651 411 670 346 670 c 0
 208 670 101 570 101 340 c 0
 101 123 205 12 342 12 c 0
 419 12 461 39 499 71 c 1
 513 54 l 1
 472 19 421 -10 343 -10 c 1
 342 -74 l 1x7f
EndSplineSet
EndChar
StartChar: Egrave
Encoding: 200 200 135
Width: 494
Flags: W
HStem: 0 21<146 451 146 451> 349 21<146 400 146 400> 660 21<146 441 146 146>
VStem: 123 23<21 349 370 660>
LayerCount: 2
Fore
SplineSet
208 861 m 1
 382 779 l 1
 375 764 l 1
 196 838 l 1
 208 861 l 1
444 681 m 1
 441 660 l 1
 146 660 l 1
 146 370 l 1
 400 370 l 1
 400 349 l 1
 146 349 l 1
 146 21 l 1
 451 21 l 1
 451 0 l 1
 123 0 l 1
 123 681 l 1
 444 681 l 1
EndSplineSet
EndChar
StartChar: Edieresis
Encoding: 203 203 138
Width: 494
Flags: W
HStem: 0 21<146 451 146 451> 349 21<146 400 146 400> 660 21<146 441 146 146> 799 39<198 210 363.5 376> 818 20<198 210 363.5 376>
VStem: 123 23<21 349 370 660> 349 40<812.5 823.5>
LayerCount: 2
Fore
SplineSet
204 838 m 0xf4
 216 838 224 829 224 818 c 0
 224 807 216 799 204 799 c 0
 192 799 184 807 184 818 c 0
 184 829 192 838 204 838 c 0xf4
370 838 m 0xee
 382 838 389 829 389 818 c 0
 389 807 382 799 370 799 c 0
 357 799 349 807 349 818 c 0
 349 829 357 838 370 838 c 0xee
444 681 m 1
 441 660 l 1
 146 660 l 1
 146 370 l 1
 400 370 l 1
 400 349 l 1
 146 349 l 1
 146 21 l 1
 451 21 l 1
 451 0 l 1
 123 0 l 1
 123 681 l 1
 444 681 l 1
EndSplineSet
EndChar
StartChar: Igrave
Encoding: 204 204 139
Width: 268
Flags: W
HStem: 0 21G<123 146 123 123> 661 20G<123 146 146 146>
VStem: 123 23<0 681 0 681>
LayerCount: 2
Fore
SplineSet
55 861 m 1
 229 779 l 1
 222 764 l 1
 43 838 l 1
 55 861 l 1
146 681 m 1
 146 0 l 1
 123 0 l 1
 123 681 l 1
 146 681 l 1
EndSplineSet
EndChar
StartChar: Iacute
Encoding: 205 205 140
Width: 268
Flags: W
HStem: 0 21G<123 146 123 123> 661 20G<123 146 146 146>
VStem: 123 23<0 681 0 681>
LayerCount: 2
Fore
SplineSet
215 861 m 1
 226 838 l 1
 47 764 l 1
 40 779 l 1
 215 861 l 1
146 681 m 1
 146 0 l 1
 123 0 l 1
 123 681 l 1
 146 681 l 1
EndSplineSet
EndChar
StartChar: Idieresis
Encoding: 207 207 142
Width: 268
Flags: W
HStem: 0 21G<123 146 123 123> 661 20G<123 146 146 146> 799 39<45 57 210.5 223> 818 20<45 57 210.5 223>
VStem: 123 23<0 681 0 681> 196 40<812.5 823.5>
LayerCount: 2
Fore
SplineSet
51 838 m 0xe8
 63 838 71 829 71 818 c 0
 71 807 63 799 51 799 c 0
 39 799 31 807 31 818 c 0
 31 829 39 838 51 838 c 0xe8
217 838 m 0xdc
 229 838 236 829 236 818 c 0
 236 807 229 799 217 799 c 0
 204 799 196 807 196 818 c 0
 196 829 204 838 217 838 c 0xdc
146 681 m 1
 146 0 l 1
 123 0 l 1
 123 681 l 1
 146 681 l 1
EndSplineSet
EndChar
StartChar: Ntilde
Encoding: 209 209 144
Width: 661
Flags: W
HStem: 0 26<519 519 519 538 510 519> 656 25<142 142> 804 20<374.5 406.5 374.5 409.5> 847 20<266 295>
VStem: 123 22<0 477 0 681> 516 22<205 681 0 681>
LayerCount: 2
Fore
SplineSet
395 804 m 0
 347 804 312 847 278 847 c 0
 254 847 239 837 218 812 c 1
 204 821 l 1
 226 851 248 867 278 867 c 0xfc
 317 867 354 824 395 824 c 0
 418 824 433 835 454 865 c 1
 468 857 l 1
 447 819 424 804 395 804 c 0
538 681 m 1
 538 0 l 1
 510 0 l 1
 142 656 l 1
 144 621 145 576 145 477 c 2
 145 0 l 1
 123 0 l 1
 123 681 l 1
 152 681 l 1
 519 26 l 1
 518 66 516 127 516 205 c 2
 516 681 l 1
 538 681 l 1
EndSplineSet
EndChar
StartChar: Otilde
Encoding: 213 213 148
Width: 689
Flags: W
HStem: -10 22<271.5 421 271.5 427.5> 670 21<272 418> 804 20<382.5 414.5 382.5 417.5> 847 20<274 303>
VStem: 78 23<233 446.5 233 451> 588 23<233.5 448.5>
LayerCount: 2
Fore
SplineSet
403 804 m 0
 355 804 320 847 286 847 c 0
 262 847 247 837 226 812 c 1
 212 821 l 1
 234 851 256 867 286 867 c 0xfc
 325 867 362 824 403 824 c 0
 426 824 441 835 462 865 c 1
 476 857 l 1
 455 819 432 804 403 804 c 0
344 691 m 0
 505 691 611 569 611 340 c 0
 611 119 511 -10 344 -10 c 0
 185 -10 78 115 78 339 c 0
 78 563 187 691 344 691 c 0
344 670 m 0
 200 670 101 554 101 339 c 0
 101 127 199 12 344 12 c 0
 498 12 588 127 588 340 c 0
 588 557 492 670 344 670 c 0
EndSplineSet
EndChar
StartChar: multiply
Encoding: 215 215 150
Width: 485
Flags: W
HStem: 160 295<114 114 114 371>
VStem: 98 289<175 175 175 440>
LayerCount: 2
Fore
SplineSet
371 455 m 1
 387 440 l 1
 257 308 l 1
 387 175 l 1
 371 160 l 1
 243 293 l 1
 114 160 l 1
 98 175 l 1
 226 307 l 1
 98 440 l 1
 114 455 l 1
 241 321 l 1
 371 455 l 1
EndSplineSet
EndChar
StartChar: uni00DA
Encoding: 218 218 153
Width: 640
Flags: W
HStem: -10 22<254.5 387.5 254.5 394> 661 20G<113 136 136 136 505 528 528 528>
VStem: 113 23<207 210 210 681> 505 23<210 681>
LayerCount: 2
Fore
SplineSet
402 861 m 1
 413 838 l 1
 234 764 l 1
 227 779 l 1
 402 861 l 1
528 681 m 1
 528 207 l 2
 528 82 467 -10 321 -10 c 0
 173 -10 113 82 113 207 c 2
 113 681 l 1
 136 681 l 1
 136 210 l 2
 136 93 188 12 321 12 c 0
 454 12 505 95 505 210 c 2
 505 681 l 1
 528 681 l 1
EndSplineSet
EndChar
StartChar: uni00DB
Encoding: 219 219 154
Width: 640
Flags: W
HStem: -10 22<254.5 387.5 254.5 394> 661 20G<113 136 136 136 505 528 528 528> 845 24<320 320>
VStem: 113 23<207 210 210 681> 505 23<210 681>
LayerCount: 2
Fore
SplineSet
205 766 m 1
 194 780 l 1
 314 869 l 1
 326 869 l 1
 446 780 l 1
 434 766 l 1
 320 845 l 1
 205 766 l 1
528 681 m 1
 528 207 l 2
 528 82 467 -10 321 -10 c 0
 173 -10 113 82 113 207 c 2
 113 681 l 1
 136 681 l 1
 136 210 l 2
 136 93 188 12 321 12 c 0
 454 12 505 95 505 210 c 2
 505 681 l 1
 528 681 l 1
EndSplineSet
EndChar
StartChar: uni00DC
Encoding: 220 220 155
Width: 640
Flags: W
HStem: -10 22<254.5 387.5 254.5 394> 661 20G<113 136 136 136 505 528 528 528> 799 39<231 243 396.5 409> 818 20<231 243 396.5 409>
VStem: 113 23<207 210 210 681> 382 40<812.5 823.5> 505 23<210 681>
LayerCount: 2
Fore
SplineSet
237 838 m 0xea
 249 838 257 829 257 818 c 0
 257 807 249 799 237 799 c 0
 225 799 217 807 217 818 c 0
 217 829 225 838 237 838 c 0xea
403 838 m 0xde
 415 838 422 829 422 818 c 0
 422 807 415 799 403 799 c 0
 390 799 382 807 382 818 c 0
 382 829 390 838 403 838 c 0xde
528 681 m 1
 528 207 l 2
 528 82 467 -10 321 -10 c 0
 173 -10 113 82 113 207 c 2
 113 681 l 1
 136 681 l 1
 136 210 l 2
 136 93 188 12 321 12 c 0
 454 12 505 95 505 210 c 2
 505 681 l 1
 528 681 l 1
EndSplineSet
EndChar
StartChar: Thorn
Encoding: 222 222 157
Width: 558
Flags: W
HStem: 0 21G<123 146 123 123> 147 21<146 256 146 258> 533 21<146 261 146 261> 661 20G<123 146 146 146>
VStem: 123 23<0 147 0 168 168 533 554 681> 477 24<284 420>
LayerCount: 2
Fore
SplineSet
261 554 m 2
 416 554 501 496 501 355 c 0
 501 202 402 147 256 147 c 2
 146 147 l 1
 146 0 l 1
 123 0 l 1
 123 681 l 1
 146 681 l 1
 146 554 l 1
 261 554 l 2
258 168 m 2
 388 168 477 213 477 355 c 0
 477 485 402 533 261 533 c 2
 146 533 l 1
 146 168 l 1
 258 168 l 2
EndSplineSet
EndChar
StartChar: uni00E3
Encoding: 227 227 162
Width: 528
Flags: W
HStem: -10 21<181 260.5> 288 20<270 274 274 388> 509 20<232 305> 678 20<292.5 324.5 292.5 327.5> 721 20<184 213>
VStem: 66 24<103 191.5 103 197> 388 22<119 288 288 288 308 370 370 372>
LayerCount: 2
Fore
SplineSet
196 721 m 0
 172 721 157 711 136 686 c 1
 122 695 l 1
 144 725 166 741 196 741 c 0xee
 235 741 272 698 313 698 c 0xfe
 336 698 351 709 372 739 c 1xee
 386 731 l 1
 365 693 342 678 313 678 c 0xfe
 265 678 230 721 196 721 c 0
410 110 m 2
 410 41 423 18 457 6 c 1
 451 -10 l 1
 410 3 392 29 391 91 c 1
 354 25 299 -10 222 -10 c 0
 124 -10 66 52 66 144 c 0
 66 250 147 308 270 308 c 2
 388 308 l 1
 388 370 l 2
 388 460 355 509 255 509 c 0
 209 509 163 497 112 476 c 1
 105 495 l 1
 158 517 205 529 255 529 c 0
 365 529 410 474 410 372 c 2
 410 110 l 2
222 11 m 0
 303 11 354 52 388 119 c 1
 388 288 l 1
 274 288 l 2
 160 288 90 239 90 144 c 0
 90 62 140 11 222 11 c 0
EndSplineSet
EndChar
StartChar: adieresis
Encoding: 228 228 163
Width: 528
Flags: W
HStem: -10 21<181 260.5> 288 20<270 274 274 388> 509 20<232 305> 673 39<165 177 330.5 343>
VStem: 66 24<103 191.5 103 197> 316 21<686.5 697.5> 388 22<119 288 288 288 308 370 370 372>
LayerCount: 2
Fore
SplineSet
171 673 m 0
 159 673 151 681 151 692 c 0
 151 703 159 712 171 712 c 0
 183 712 191 703 191 692 c 0
 191 681 183 673 171 673 c 0
337 673 m 0
 324 673 316 681 316 692 c 0
 316 703 324 712 337 712 c 0
 349 712 356 703 356 692 c 0
 356 681 349 673 337 673 c 0
410 110 m 2
 410 41 423 18 457 6 c 1
 451 -10 l 1
 410 3 392 29 391 91 c 1
 354 25 299 -10 222 -10 c 0
 124 -10 66 52 66 144 c 0
 66 250 147 308 270 308 c 2
 388 308 l 1
 388 370 l 2
 388 460 355 509 255 509 c 0
 209 509 163 497 112 476 c 1
 105 495 l 1
 158 517 205 529 255 529 c 0
 365 529 410 474 410 372 c 2
 410 110 l 2
222 11 m 0
 303 11 354 52 388 119 c 1
 388 288 l 1
 274 288 l 2
 160 288 90 239 90 144 c 0
 90 62 140 11 222 11 c 0
EndSplineSet
EndChar
StartChar: aring
Encoding: 229 229 164
Width: 528
Flags: W
HStem: -10 21<181 260.5> 288 20<270 274 274 388> 509 20<232 305> 644 18<235.5 273 235.5 278> 783 18<235.5 273>
VStem: 66 24<103 191.5 103 197> 175 21<703.5 741 703.5 746> 313 21<704 741.5> 388 22<119 288 288 288 308 370 370 372>
LayerCount: 2
Fore
SplineSet
254 644 m 0
 206 644 175 675 175 722 c 0
 175 770 207 801 254 801 c 0
 303 801 334 770 334 723 c 0
 334 675 302 644 254 644 c 0
254 783 m 0
 217 783 196 760 196 722 c 0
 196 685 217 662 254 662 c 0
 292 662 313 685 313 723 c 0
 313 760 292 783 254 783 c 0
410 110 m 2
 410 41 423 18 457 6 c 1
 451 -10 l 1
 410 3 392 29 391 91 c 1
 354 25 299 -10 222 -10 c 0
 124 -10 66 52 66 144 c 0
 66 250 147 308 270 308 c 2
 388 308 l 1
 388 370 l 2
 388 460 355 509 255 509 c 0
 209 509 163 497 112 476 c 1
 105 495 l 1
 158 517 205 529 255 529 c 0
 365 529 410 474 410 372 c 2
 410 110 l 2
222 11 m 0
 303 11 354 52 388 119 c 1
 388 288 l 1
 274 288 l 2
 160 288 90 239 90 144 c 0
 90 62 140 11 222 11 c 0
EndSplineSet
EndChar
StartChar: ccedilla
Encoding: 231 231 166
Width: 464
Flags: W
HStem: -212 20<280 309 280 315> -194 21G<225 225> -90 16 -10 21<270 270 287 287> 509 20<229 309.5>
VStem: 73 23<176 339 176 341.5> 267.5 19 354 23<-158 -123.5>
LayerCount: 2
Fore
SplineSet
286 -74 m 1x7f
 346 -77 377 -99 377 -140 c 0
 377 -187 337 -212 293 -212 c 0
 262 -212 242 -204 225 -194 c 1
 235 -177 l 1
 249 -186 267 -192 293 -192 c 0xbf
 325 -192 354 -176 354 -140 c 0
 354 -107 327 -91 265 -90 c 1
 270 -10 l 1
 153 -2 73 93 73 257 c 0
 73 426 156 529 283 529 c 0
 339 529 379 514 418 479 c 1
 405 464 l 1
 372 493 335 509 284 509 c 0
 174 509 96 421 96 257 c 0
 96 95 175 11 283 11 c 0
 337 11 377 30 410 59 c 1
 423 44 l 1
 388 13 343 -9 287 -10 c 1
 286 -74 l 1x7f
EndSplineSet
EndChar
StartChar: eacute
Encoding: 233 233 168
Width: 526
Flags: W
HStem: -10 21<227.5 311 227.5 313.5> 246 19<96 439 96 459 96 439> 509 20<224.5 331>
VStem: 73 23<246 246 246 265 246 340.5> 439 22<277 292 292 355>
LayerCount: 2
Fore
SplineSet
359 738 m 1
 181 654 l 1
 173 670 l 1
 349 761 l 1
 359 738 l 1
461 284 m 0
 461 270 460 257 459 246 c 1
 96 246 l 1
 101 87 175 11 280 11 c 0
 342 11 382 31 427 68 c 1
 439 51 l 1
 394 13 347 -10 280 -10 c 0
 154 -10 73 87 73 255 c 0
 73 426 152 529 272 529 c 0
 400 529 461 429 461 284 c 0
439 265 m 1
 439 292 l 2
 439 418 388 509 274 509 c 0
 175 509 99 430 96 265 c 1
 439 265 l 1
EndSplineSet
EndChar
StartChar: igrave
Encoding: 236 236 171
Width: 258
Flags: W
HStem: 0 21G<118 140 118 118> 499 20G<118 140 140 140> 718 20G<37 37>
VStem: 118 22<0 519 0 519>
LayerCount: 2
Fore
SplineSet
47 761 m 1
 223 670 l 1
 215 654 l 1
 37 738 l 1
 47 761 l 1
140 519 m 1
 140 0 l 1
 118 0 l 1
 118 519 l 1
 140 519 l 1
EndSplineSet
EndChar
StartChar: iacute
Encoding: 237 237 172
Width: 258
Flags: W
HStem: 0 21G<118 140 118 118> 499 20G<118 140 140 140>
VStem: 118 22<0 519 0 519>
LayerCount: 2
Fore
SplineSet
203 761 m 1
 213 738 l 1
 35 654 l 1
 27 670 l 1
 203 761 l 1
140 519 m 1
 140 0 l 1
 118 0 l 1
 118 519 l 1
 140 519 l 1
EndSplineSet
EndChar
StartChar: icircumflex
Encoding: 238 238 173
Width: 258
Flags: W
HStem: 0 21G<118 140 118 118> 499 20G<118 140 140 140> 738 24<129 129>
VStem: 118 22<0 519 0 519>
LayerCount: 2
Fore
SplineSet
14 654 m 1
 3 667 l 1
 123 762 l 1
 135 762 l 1
 255 667 l 1
 243 654 l 1
 129 738 l 1
 14 654 l 1
140 519 m 1
 140 0 l 1
 118 0 l 1
 118 519 l 1
 140 519 l 1
EndSplineSet
EndChar
StartChar: eth
Encoding: 240 240 175
Width: 543
Flags: W
HStem: -10 21<213.5 323.5 213.5 328> 441 20<209 297> 714 20G<373 373> 718 20G<144 149>
VStem: 73 23<161.5 288 161.5 291> 442 23<303 334 334 334>
LayerCount: 2
Fore
SplineSet
307 666 m 1xec
 406 591 465 483 465 301 c 0
 465 87 388 -10 268 -10 c 0
 143 -10 73 86 73 230 c 0
 73 352 140 461 260 461 c 0
 335 461 394 422 441 361 c 1
 432 486 384 580 292 651 c 1
 210 566 l 1
 191 573 l 1
 278 662 l 1
 241 687 191 709 144 718 c 1
 149 738 l 1
 197 727 247 707 292 676 c 1
 358 746 l 1xdc
 373 734 l 1
 307 666 l 1xec
268 11 m 0xdc
 379 11 442 107 442 303 c 2
 442 334 l 1
 393 399 333 441 261 441 c 0
 157 441 96 347 96 229 c 0
 96 94 159 11 268 11 c 0xdc
EndSplineSet
EndChar
StartChar: ntilde
Encoding: 241 241 176
Width: 581
Flags: W
HStem: 0 21G<118 140 118 118 447 469 447 447> 499 20G<118 137 137 137> 509 20<289 369.5> 678 20<335.5 367.5 335.5 370.5> 721 20<227 256>
VStem: 118 20 447 22<0 367 367 369 0 414>
LayerCount: 2
Fore
SplineSet
239 721 m 0xae
 215 721 200 711 179 686 c 1
 165 695 l 1
 187 725 209 741 239 741 c 0xae
 278 741 315 698 356 698 c 0xbe
 379 698 394 709 415 739 c 1xae
 429 731 l 1
 408 693 385 678 356 678 c 0xbe
 308 678 273 721 239 721 c 0xae
330 529 m 0
 425 529 469 471 469 369 c 2
 469 0 l 1
 447 0 l 1
 447 367 l 2
 447 461 409 509 330 509 c 0xae
 246 509 189 459 140 384 c 1
 140 0 l 1
 118 0 l 1
 118 519 l 1
 137 519 l 1xce
 139 413 l 1
 186 483 248 529 330 529 c 0
EndSplineSet
EndChar
StartChar: uni00F5
Encoding: 245 245 180
Width: 560
Flags: W
HStem: -10 21<222.5 336.5 222.5 343> 509 20<225 338.5> 678 20<319.5 351.5 319.5 354.5> 721 20<211 240>
VStem: 73 23<180 340.5 180 345> 465 23<180.5 341.5>
LayerCount: 2
Fore
SplineSet
340 678 m 0
 292 678 257 721 223 721 c 0
 199 721 184 711 163 686 c 1
 149 695 l 1
 171 725 193 741 223 741 c 0xdc
 262 741 299 698 340 698 c 0xfc
 363 698 378 709 399 739 c 1xdc
 413 731 l 1
 392 693 369 678 340 678 c 0
281 529 m 0xdc
 408 529 488 434 488 262 c 0
 488 89 406 -10 280 -10 c 0
 151 -10 73 91 73 259 c 0
 73 431 156 529 281 529 c 0xdc
281 509 m 0
 169 509 96 422 96 259 c 0
 96 101 165 11 280 11 c 0
 393 11 465 99 465 262 c 0
 465 421 396 509 281 509 c 0
EndSplineSet
EndChar
StartChar: divide
Encoding: 247 247 182
Width: 485
Flags: W
HStem: 100 46<236 250> 320 21<78 407 78 407> 515 46<236 250>
VStem: 219 47<116.5 129.5 531.5 544.5>
LayerCount: 2
Fore
SplineSet
243 561 m 0
 257 561 266 551 266 538 c 0
 266 525 257 515 243 515 c 0
 229 515 219 525 219 538 c 0
 219 551 229 561 243 561 c 0
78 320 m 1
 78 341 l 1
 407 341 l 1
 407 320 l 1
 78 320 l 1
243 146 m 0
 257 146 266 136 266 123 c 0
 266 110 257 100 243 100 c 0
 229 100 219 110 219 123 c 0
 219 136 229 146 243 146 c 0
EndSplineSet
EndChar
StartChar: uni00F8
Encoding: 248 248 183
Width: 560
Flags: W
HStem: -10 21<268 336.5> 509 20<225 293.5>
VStem: 73 23<202 340.5 202 345> 465 23<181 319>
LayerCount: 2
Fore
SplineSet
374 508 m 1
 446 471 488 387 488 262 c 0
 488 89 406 -10 280 -10 c 0
 253 -10 229 -6 206 3 c 1
 164 -118 l 1
 145 -113 l 1
 187 11 l 1
 115 49 73 136 73 259 c 0
 73 431 156 529 281 529 c 0
 308 529 333 525 355 516 c 1
 395 639 l 1
 415 633 l 1
 374 508 l 1
96 259 m 0
 96 145 132 67 195 32 c 1
 349 497 l 1
 328 505 306 509 281 509 c 0
 169 509 96 422 96 259 c 0
280 11 m 0
 393 11 465 100 465 262 c 0
 465 376 429 454 367 488 c 1
 213 23 l 1
 233 15 256 11 280 11 c 0
EndSplineSet
EndChar
StartChar: ugrave
Encoding: 249 249 184
Width: 576
Flags: W
HStem: -10 21<221.5 302 221.5 302> 0 21G<439 459 439 439> 499 20G<113 135 135 135 437 459 459 459> 718 20G<195 195>
VStem: 113 22<149 151 151 519> 437 22<133 519 0 519>
LayerCount: 2
Fore
SplineSet
205 761 m 1xbc
 381 670 l 1
 373 654 l 1
 195 738 l 1
 205 761 l 1xbc
459 519 m 1
 459 0 l 1
 439 0 l 1x7c
 439 106 l 1
 403 41 345 -10 259 -10 c 0
 167 -10 113 46 113 149 c 2
 113 519 l 1
 135 519 l 1
 135 151 l 2
 135 56 181 11 262 11 c 0
 342 11 396 61 437 133 c 1
 437 519 l 1
 459 519 l 1
EndSplineSet
EndChar
StartChar: uni00FB
Encoding: 251 251 186
Width: 576
Flags: W
HStem: -10 21<221.5 302 221.5 302> 0 21G<439 459 439 439> 499 20G<113 135 135 135 437 459 459 459> 738 24<287 287>
VStem: 113 22<149 151 151 519> 437 22<133 519 0 519>
LayerCount: 2
Fore
SplineSet
172 654 m 1xbc
 161 667 l 1
 281 762 l 1
 293 762 l 1
 413 667 l 1
 401 654 l 1
 287 738 l 1
 172 654 l 1xbc
459 519 m 1
 459 0 l 1
 439 0 l 1x7c
 439 106 l 1
 403 41 345 -10 259 -10 c 0
 167 -10 113 46 113 149 c 2
 113 519 l 1
 135 519 l 1
 135 151 l 2
 135 56 181 11 262 11 c 0
 342 11 396 61 437 133 c 1
 437 519 l 1
 459 519 l 1
EndSplineSet
EndChar
StartChar: uni00FC
Encoding: 252 252 187
Width: 576
Flags: W
HStem: -10 21<221.5 302 221.5 302> 0 21G<439 459 439 439> 499 20G<113 135 135 135 437 459 459 459> 673 39<198 210 363.5 376> 692 20<198 210 363.5 376>
VStem: 113 22<149 151 151 519> 349 40<686.5 697.5> 437 22<133 519 0 519>
LayerCount: 2
Fore
SplineSet
204 712 m 0xb5
 216 712 224 703 224 692 c 0
 224 681 216 673 204 673 c 0
 192 673 184 681 184 692 c 0
 184 703 192 712 204 712 c 0xb5
370 712 m 0xaf
 382 712 389 703 389 692 c 0
 389 681 382 673 370 673 c 0
 357 673 349 681 349 692 c 0
 349 703 357 712 370 712 c 0xaf
459 519 m 1
 459 0 l 1
 439 0 l 1x6d
 439 106 l 1
 403 41 345 -10 259 -10 c 0
 167 -10 113 46 113 149 c 2
 113 519 l 1
 135 519 l 1
 135 151 l 2
 135 56 181 11 262 11 c 0
 342 11 396 61 437 133 c 1
 437 519 l 1
 459 519 l 1
EndSplineSet
EndChar
StartChar: uni00FD
Encoding: 253 253 188
Width: 444
Flags: W
HStem: -195 21G<59 59> 0 17<211 225 211 225> 0 21G<211 219 211 211> 499 20G<23 47 47 47 396 421 421 421>
VStem: 23 398<519 519>
LayerCount: 2
Fore
SplineSet
296 761 m 1xb8
 306 738 l 1
 128 654 l 1
 120 670 l 1
 296 761 l 1xb8
421 519 m 1
 240 -1 l 2
 200 -116 169 -163 59 -195 c 1
 56 -177 l 1
 159 -146 181 -103 219 0 c 1
 211 0 l 1
 23 519 l 1
 47 519 l 1
 225 17 l 1xd8
 396 519 l 1
 421 519 l 1
EndSplineSet
EndChar
StartChar: thorn
Encoding: 254 254 189
Width: 564
Flags: W
HStem: -196 21G<118 118> -192 21G<140 140> -10 21<266 356 266 364.5> 509 20<270 360.5> 713 20G<118 118> 716 20G<140 140>
VStem: 118 22<-192 80 106 410 435 733 733 733> 469 22<183.5 344>
LayerCount: 2
Fore
SplineSet
308 529 m 0x77
 426 529 491 435 491 264 c 0
 491 94 426 -10 303 -10 c 0
 228 -10 174 31 140 80 c 1
 140 -192 l 1x77
 118 -196 l 1
 118 733 l 1xbb
 140 736 l 1
 140 435 l 1
 179 490 232 529 308 529 c 0x77
302 11 m 0
 410 11 469 103 469 264 c 0
 469 424 413 509 308 509 c 0
 231 509 184 469 140 410 c 1
 140 106 l 1
 179 50 230 11 302 11 c 0
EndSplineSet
EndChar
StartChar: Abreve
Encoding: 258 258 193
Width: 557
Flags: W
HStem: 0 21G<28 51 28 28 505 530 505 505> 203 21<128 428 128 435 121 428> 663 18<278 278> 771 21<255.5 302.5 255.5 308.5>
VStem: 28 502<0 0>
LayerCount: 2
Fore
SplineSet
279 771 m 0
 221 771 181 807 171 847 c 1
 187 851 l 1
 200 817 232 792 279 792 c 0
 326 792 359 817 371 851 c 1
 387 847 l 1
 378 807 338 771 279 771 c 0
505 0 m 1
 435 203 l 1
 121 203 l 1
 51 0 l 1
 28 0 l 1
 265 681 l 1
 292 681 l 1
 530 0 l 1
 505 0 l 1
128 224 m 1
 428 224 l 1
 278 663 l 1
 128 224 l 1
EndSplineSet
EndChar
StartChar: uni0104
Encoding: 260 260 195
Width: 557
Flags: W
HStem: -203 22<450.5 482.5> -196 21G<527 527> 0 21G<28 51 28 28 529 530 529 529> 203 21<128 428 128 435 121 428> 663 18<278 278>
VStem: 380 24<-140 -94>
LayerCount: 2
Fore
SplineSet
529 0 m 1xbc
 458 -31 404 -63 404 -122 c 0
 404 -158 427 -181 474 -181 c 0xbc
 492 -181 508 -179 529 -174 c 1x7c
 527 -196 l 1
 507 -201 492 -203 473 -203 c 0
 410 -203 380 -169 380 -123 c 0
 380 -65 429 -27 503 5 c 1
 435 203 l 1
 121 203 l 1
 51 0 l 1
 28 0 l 1
 265 681 l 1
 292 681 l 1
 530 0 l 1
 529 0 l 1xbc
128 224 m 1
 428 224 l 1
 278 663 l 1
 128 224 l 1
EndSplineSet
EndChar
StartChar: uni0105
Encoding: 261 261 196
Width: 528
Flags: W
HStem: -213 22<372.5 404.5> -10 21<181 260.5> -2 21G 288 20<270 274 274 388> 509 20<232 305>
VStem: 66 24<103 191.5 103 197> 302 24<-150 -103> 388 22<119 288 288 288 308 370 370 372>
LayerCount: 2
Fore
SplineSet
451 -10 m 1xdf
 380 -41 326 -73 326 -132 c 0
 326 -168 349 -191 396 -191 c 0
 414 -191 430 -189 451 -184 c 1
 449 -206 l 1
 429 -211 414 -213 395 -213 c 0
 332 -213 302 -179 302 -133 c 0
 302 -73 354 -35 432 -2 c 1xbf
 404 14 392 40 391 91 c 1
 354 25 299 -10 222 -10 c 0
 124 -10 66 52 66 144 c 0
 66 250 147 308 270 308 c 2
 388 308 l 1
 388 370 l 2
 388 460 355 509 255 509 c 0
 209 509 163 497 112 476 c 1
 105 495 l 1
 158 517 205 529 255 529 c 0
 365 529 410 474 410 372 c 2
 410 110 l 2
 410 41 423 18 457 6 c 1
 451 -10 l 1xdf
222 11 m 0
 303 11 354 52 388 119 c 1
 388 288 l 1
 274 288 l 2
 160 288 90 239 90 144 c 0
 90 62 140 11 222 11 c 0
EndSplineSet
EndChar
StartChar: Cdotaccent
Encoding: 266 266 201
Width: 538
Flags: W
HStem: -10 22<273.5 380.5 273.5 381.5> 670 21<277 378.5> 811 39<336 349>
VStem: 78 23<231.5 455 231.5 458.5> 342 21
LayerCount: 2
Fore
SplineSet
342 850 m 0
 356 850 363 840 363 830 c 0
 363 820 356 811 342 811 c 0
 330 811 322 820 322 830 c 0
 322 840 330 850 342 850 c 0
344 691 m 0
 419 691 463 668 505 633 c 1
 492 617 l 1
 449 651 411 670 346 670 c 0
 208 670 101 570 101 340 c 0
 101 123 205 12 342 12 c 0
 419 12 461 39 499 71 c 1
 513 54 l 1
 472 19 421 -10 342 -10 c 0
 189 -10 78 113 78 340 c 0
 78 577 195 691 344 691 c 0
EndSplineSet
EndChar
StartChar: cdotaccent
Encoding: 267 267 202
Width: 464
Flags: W
HStem: -10 21<229 310 229 313> 509 20<229 309.5> 685 39<274 287>
VStem: 73 23<176 339 176 341.5> 280 21
LayerCount: 2
Fore
SplineSet
280 724 m 0
 294 724 301 714 301 704 c 0
 301 694 294 685 280 685 c 0
 268 685 260 694 260 704 c 0
 260 714 268 724 280 724 c 0
283 529 m 0
 339 529 379 514 418 479 c 1
 405 464 l 1
 372 493 335 509 284 509 c 0
 174 509 96 421 96 257 c 0
 96 95 175 11 283 11 c 0
 337 11 377 30 410 59 c 1
 423 44 l 1
 387 12 342 -10 284 -10 c 0
 159 -10 73 87 73 257 c 0
 73 426 156 529 283 529 c 0
EndSplineSet
EndChar
StartChar: uni010C
Encoding: 268 268 203
Width: 538
Flags: W
HStem: -10 22<273.5 380.5 273.5 381.5> 670 21<277 378.5> 760 24<342 342 342 348 336 342>
VStem: 78 23<231.5 455 231.5 458.5>
LayerCount: 2
Fore
SplineSet
456 863 m 1
 468 850 l 1
 348 760 l 1
 336 760 l 1
 216 850 l 1
 227 863 l 1
 342 784 l 1
 456 863 l 1
344 691 m 0
 419 691 463 668 505 633 c 1
 492 617 l 1
 449 651 411 670 346 670 c 0
 208 670 101 570 101 340 c 0
 101 123 205 12 342 12 c 0
 419 12 461 39 499 71 c 1
 513 54 l 1
 472 19 421 -10 342 -10 c 0
 189 -10 78 113 78 340 c 0
 78 577 195 691 344 691 c 0
EndSplineSet
EndChar
StartChar: Dcaron
Encoding: 270 270 205
Width: 619
Flags: W
HStem: 0 21<146 249> 660 21<146 243 146 146> 760 24<295 295 295 301 289 295>
VStem: 123 23<21 660 21 681 21 681> 518 24<215 482.5>
LayerCount: 2
Fore
SplineSet
409 863 m 1
 421 850 l 1
 301 760 l 1
 289 760 l 1
 169 850 l 1
 180 863 l 1
 295 784 l 1
 409 863 l 1
245 681 m 2
 390 681 542 627 542 348 c 0
 542 63 384 0 249 0 c 2
 123 0 l 1
 123 681 l 1
 245 681 l 2
243 660 m 2
 146 660 l 1
 146 21 l 1
 250 21 l 2
 380 21 518 82 518 348 c 0
 518 617 376 660 243 660 c 2
EndSplineSet
EndChar
StartChar: uni0111
Encoding: 273 273 208
Width: 579
Flags: W
HStem: -10 21<214 306.5 214 308> 0 21G<432 451 432 432> 509 20<222 314> 629 20<261 429 261 429 451 531> 629 107<261 429 429 531 429 451> 713 20G<451 451>
VStem: 73 23<179.5 258 179.5 338> 429 22<89 89 123 418 418 418 446 629 0 629 649 733>
LayerCount: 2
Fore
SplineSet
451 649 m 1xb7
 531 649 l 1
 531 629 l 1
 451 629 l 1
 451 0 l 1
 432 0 l 1x77
 429 89 l 1
 400 36 351 -10 265 -10 c 0
 149 -10 73 89 73 258 c 0
 73 418 148 529 275 529 c 0
 356 529 402 487 429 446 c 1
 429 629 l 1
 261 629 l 1
 261 649 l 1
 429 649 l 1xb7
 429 736 l 1xab
 451 733 l 1
 451 649 l 1xb7
266 11 m 0xb7
 347 11 394 54 429 123 c 1
 429 418 l 1
 399 465 352 509 276 509 c 0
 168 509 95 413 96 258 c 0
 96 101 162 11 266 11 c 0xb7
EndSplineSet
EndChar
StartChar: Emacron
Encoding: 274 274 209
Width: 494
Flags: W
HStem: 0 21<146 451 146 451> 349 21<146 400 146 400> 660 21<146 441 146 146> 811 21<183 390 183 390>
VStem: 123 23<21 349 370 660>
LayerCount: 2
Fore
SplineSet
390 811 m 1
 183 811 l 1
 183 832 l 1
 390 832 l 1
 390 811 l 1
444 681 m 1
 441 660 l 1
 146 660 l 1
 146 370 l 1
 400 370 l 1
 400 349 l 1
 146 349 l 1
 146 21 l 1
 451 21 l 1
 451 0 l 1
 123 0 l 1
 123 681 l 1
 444 681 l 1
EndSplineSet
EndChar
StartChar: Edotaccent
Encoding: 278 278 213
Width: 494
Flags: W
HStem: 0 21<146 451 146 451> 349 21<146 400 146 400> 660 21<146 441 146 146> 811 39<281 294>
VStem: 123 23<21 349 370 660> 287 21
LayerCount: 2
Fore
SplineSet
287 850 m 0
 301 850 308 840 308 830 c 0
 308 820 301 811 287 811 c 0
 275 811 267 820 267 830 c 0
 267 840 275 850 287 850 c 0
444 681 m 1
 441 660 l 1
 146 660 l 1
 146 370 l 1
 400 370 l 1
 400 349 l 1
 146 349 l 1
 146 21 l 1
 451 21 l 1
 451 0 l 1
 123 0 l 1
 123 681 l 1
 444 681 l 1
EndSplineSet
EndChar
StartChar: edotaccent
Encoding: 279 279 214
Width: 526
Flags: W
HStem: -10 21<227.5 311 227.5 313.5> 246 19<96 439 96 459 96 439> 509 20<224.5 331> 685 19
VStem: 73 23<246 246 246 265 246 340.5> 254 41<699 709> 439 22<277 292 292 355>
LayerCount: 2
Fore
SplineSet
274 685 m 0
 262 685 254 694 254 704 c 0
 254 714 262 724 274 724 c 0
 288 724 295 714 295 704 c 0
 295 694 288 685 274 685 c 0
461 284 m 0
 461 270 460 257 459 246 c 1
 96 246 l 1
 101 87 175 11 280 11 c 0
 342 11 382 31 427 68 c 1
 439 51 l 1
 394 13 347 -10 280 -10 c 0
 154 -10 73 87 73 255 c 0
 73 426 152 529 272 529 c 0
 400 529 461 429 461 284 c 0
439 265 m 1
 439 292 l 2
 439 418 388 509 274 509 c 0
 175 509 99 430 96 265 c 1
 439 265 l 1
EndSplineSet
EndChar
StartChar: uni0118
Encoding: 280 280 215
Width: 494
Flags: W
HStem: -203 22<345.5 377.5> -196 21G<422 422> 0 21<146 386 424 451 424 424> 349 21<146 400 146 400> 660 21<146 441 146 146>
VStem: 123 23<21 21 21 349 370 660> 275 24<-140 -95.5>
LayerCount: 2
Fore
SplineSet
146 21 m 1xbe
 451 21 l 1
 451 0 l 1
 424 0 l 1
 353 -31 299 -63 299 -122 c 0
 299 -158 322 -181 369 -181 c 0xbe
 387 -181 403 -179 424 -174 c 1x7e
 422 -196 l 1
 402 -201 387 -203 368 -203 c 0
 305 -203 275 -169 275 -123 c 0
 275 -68 319 -31 386 0 c 1
 123 0 l 1
 123 681 l 1
 444 681 l 1
 441 660 l 1
 146 660 l 1
 146 370 l 1
 400 370 l 1
 400 349 l 1
 146 349 l 1
 146 21 l 1xbe
EndSplineSet
EndChar
StartChar: eogonek
Encoding: 281 281 216
Width: 526
Flags: W
HStem: -198 22<286 315.5> -10 21<227.5 283.5> 246 19<96 439 96 459 96 439> 509 20<224.5 331>
VStem: 73 23<246 246 246 265 246 340.5> 213 24<-134.5 -93> 439 22<277 292 292 355>
LayerCount: 2
Fore
SplineSet
461 284 m 0
 461 270 460 257 459 246 c 1
 96 246 l 1
 101 87 175 11 280 11 c 0
 342 11 382 31 427 68 c 1
 439 51 l 1
 412 28 384 11 352 0 c 0
 286 -29 237 -61 237 -116 c 0
 237 -153 263 -176 309 -176 c 0
 327 -176 341 -174 362 -169 c 1
 360 -191 l 1
 339 -196 325 -198 306 -198 c 0
 243 -198 213 -164 213 -116 c 0
 213 -70 245 -37 299 -9 c 1
 293 -10 287 -10 280 -10 c 0
 154 -10 73 87 73 255 c 0
 73 426 152 529 272 529 c 0
 400 529 461 429 461 284 c 0
439 265 m 1
 439 292 l 2
 439 418 388 509 274 509 c 0
 175 509 99 430 96 265 c 1
 439 265 l 1
EndSplineSet
EndChar
StartChar: uni011A
Encoding: 282 282 217
Width: 494
Flags: W
HStem: 0 21<146 451 146 451> 349 21<146 400 146 400> 660 21<146 441 146 146> 760 24<287 287 287 293 281 287>
VStem: 123 23<21 349 370 660>
LayerCount: 2
Fore
SplineSet
401 863 m 1
 413 850 l 1
 293 760 l 1
 281 760 l 1
 161 850 l 1
 172 863 l 1
 287 784 l 1
 401 863 l 1
444 681 m 1
 441 660 l 1
 146 660 l 1
 146 370 l 1
 400 370 l 1
 400 349 l 1
 146 349 l 1
 146 21 l 1
 451 21 l 1
 451 0 l 1
 123 0 l 1
 123 681 l 1
 444 681 l 1
EndSplineSet
EndChar
StartChar: uni011B
Encoding: 283 283 218
Width: 526
Flags: W
HStem: -10 21<227.5 311 227.5 313.5> 246 19<96 439 96 459 96 439> 509 20<224.5 331> 641 24<275 275 275 281 269 275> 716 20G<149 149 401 401>
VStem: 73 23<246 246 246 265 246 340.5> 439 22<277 292 292 355>
LayerCount: 2
Fore
SplineSet
281 641 m 1
 269 641 l 1
 149 736 l 1
 160 749 l 1
 275 665 l 1
 389 749 l 1
 401 736 l 1
 281 641 l 1
461 284 m 0
 461 270 460 257 459 246 c 1
 96 246 l 1
 101 87 175 11 280 11 c 0
 342 11 382 31 427 68 c 1
 439 51 l 1
 394 13 347 -10 280 -10 c 0
 154 -10 73 87 73 255 c 0
 73 426 152 529 272 529 c 0
 400 529 461 429 461 284 c 0
439 265 m 1
 439 292 l 2
 439 418 388 509 274 509 c 0
 175 509 99 430 96 265 c 1
 439 265 l 1
EndSplineSet
EndChar
StartChar: Gbreve
Encoding: 286 286 221
Width: 605
Flags: W
HStem: -10 22<277.5 385.5> 333 21<365 510 365 365> 670 21<288 378.5> 771 21<321.5 368.5 321.5 374.5>
VStem: 78 23<233.5 460.5 233.5 464> 510 23<53 333 333 333>
LayerCount: 2
Fore
SplineSet
345 771 m 0
 287 771 247 807 237 847 c 1
 253 851 l 1
 266 817 298 792 345 792 c 0
 392 792 425 817 437 851 c 1
 453 847 l 1
 444 807 404 771 345 771 c 0
348 691 m 0
 417 691 465 672 516 632 c 1
 503 616 l 1
 455 653 409 670 348 670 c 0
 228 670 101 576 101 345 c 0
 101 122 202 12 353 12 c 0
 419 12 467 28 510 53 c 1
 510 333 l 1
 365 333 l 1
 362 354 l 1
 533 354 l 1
 533 41 l 1
 480 10 418 -10 353 -10 c 0
 189 -10 78 110 78 345 c 0
 78 583 215 691 348 691 c 0
EndSplineSet
EndChar
StartChar: gdotaccent
Encoding: 289 289 224
Width: 495
Flags: W
HStem: -197 21<184 316 184 322> 43 21<176.5 305 218 304> 190 20<231 293 202.5 299.5> 509 20<193 243 189 292> 512 17 685 39<238 251>
VStem: 44 22<-108.5 -58> 66 22<322.5 402 309 409.5> 96 23<110 144.5> 244 21 399 23<309.5 398 305 404.5> 436 22<-95 -26.5>
LayerCount: 2
Fore
SplineSet
244 724 m 0xf560
 258 724 265 714 265 704 c 0
 265 694 258 685 244 685 c 0
 232 685 224 694 224 704 c 0
 224 714 232 724 244 724 c 0xf560
463 550 m 1
 471 526 l 1
 440 518 396 512 318 512 c 1
 382 490 422 440 422 356 c 0
 422 254 354 190 245 190 c 0
 217 190 192 196 171 204 c 1
 139 186 119 161 119 129 c 0
 119 91 147 64 218 64 c 2xede0
 305 64 l 2
 403 64 458 15 458 -57 c 0
 458 -145 393 -197 251 -197 c 0
 107 -197 44 -159 44 -58 c 1
 66 -58 l 1xf670
 68 -146 117 -176 251 -176 c 0
 381 -176 436 -132 436 -58 c 0
 436 5 387 43 304 43 c 2
 216 43 l 2
 137 43 96 78 96 126 c 0xf5f0
 96 163 120 191 153 212 c 1
 97 241 66 287 66 358 c 0
 66 461 135 529 243 529 c 0
 393 528 422 537 463 550 c 1
244 509 m 0xf560
 142 509 88 446 88 358 c 0
 88 260 160 210 245 210 c 0
 341 210 399 263 399 356 c 0
 399 453 340 509 244 509 c 0xf560
EndSplineSet
EndChar
StartChar: Hbar
Encoding: 294 294 229
Width: 664
Flags: W
HStem: 0 21G<125 148 125 125 516 539 516 516> 349 22<148 516 148 516> 520 18<65 125 65 125 148 516 539 599> 520 161<65 148 65 148 125 148 125 516>
VStem: 125 23<0 349 0 371 371 520 538 681> 516 23<0 349 349 349 371 520 0 520 538 681>
LayerCount: 2
Fore
SplineSet
599 538 m 1xec
 599 520 l 1
 539 520 l 1
 539 0 l 1
 516 0 l 1
 516 349 l 1
 148 349 l 1
 148 0 l 1
 125 0 l 1
 125 520 l 1
 65 520 l 1
 65 538 l 1
 125 538 l 1xec
 125 681 l 1
 148 681 l 1xdc
 148 538 l 1
 516 538 l 1xec
 516 681 l 1
 539 681 l 1xdc
 539 538 l 1
 599 538 l 1xec
516 371 m 1
 516 520 l 1
 148 520 l 1
 148 371 l 1
 516 371 l 1
EndSplineSet
EndChar
StartChar: hbar
Encoding: 295 295 230
Width: 586
Flags: W
HStem: 0 21G<123 145 123 123 452 474 452 452> 509 20<294 374.5> 629 20<48 123 48 123 145 327> 629 107<48 145 48 145 145 145 145 327> 713 20G<123 123>
VStem: 123 22<0 384 414 629 649 733 733 733> 452 22<0 367 367 369 0 413>
LayerCount: 2
Fore
SplineSet
335 529 m 0xee
 429 529 474 469 474 369 c 2
 474 0 l 1
 452 0 l 1
 452 367 l 2
 452 459 414 509 335 509 c 0
 251 509 194 459 145 384 c 1
 145 0 l 1
 123 0 l 1
 123 629 l 1
 48 629 l 1
 48 649 l 1
 123 649 l 1
 123 733 l 1xee
 145 736 l 1xd6
 145 649 l 1
 327 649 l 1
 327 629 l 1
 145 629 l 1
 145 414 l 1
 192 484 253 529 335 529 c 0xee
EndSplineSet
EndChar
StartChar: Itilde
Encoding: 296 296 231
Width: 268
Flags: W
HStem: 0 21G<123 146 123 123> 661 20G<123 146 146 146> 804 20<171.5 203.5 171.5 206.5> 847 20<63 92>
VStem: 123 23<0 681 0 681>
LayerCount: 2
Fore
SplineSet
192 804 m 0
 144 804 109 847 75 847 c 0
 51 847 36 837 15 812 c 1
 1 821 l 1
 23 851 45 867 75 867 c 0xf8
 114 867 151 824 192 824 c 0
 215 824 230 835 251 865 c 1
 265 857 l 1
 244 819 221 804 192 804 c 0
146 681 m 1
 146 0 l 1
 123 0 l 1
 123 681 l 1
 146 681 l 1
EndSplineSet
EndChar
StartChar: uni0129
Encoding: 297 297 232
Width: 258
Flags: W
HStem: 0 21G<118 140 118 118> 499 20G<118 140 140 140> 678 20<167.5 199.5 167.5 202.5> 721 20<59 88>
VStem: 118 22<0 519 0 519>
LayerCount: 2
Fore
SplineSet
188 678 m 0
 140 678 105 721 71 721 c 0
 47 721 32 711 11 686 c 1
 -3 695 l 1
 19 725 41 741 71 741 c 0xd8
 110 741 147 698 188 698 c 0xf8
 211 698 226 709 247 739 c 1xd8
 261 731 l 1
 240 693 217 678 188 678 c 0
140 519 m 1xd8
 140 0 l 1
 118 0 l 1
 118 519 l 1
 140 519 l 1xd8
EndSplineSet
EndChar
StartChar: imacron
Encoding: 299 299 234
Width: 258
Flags: W
HStem: 0 21G<118 140 118 118> 499 20G<118 140 140 140> 685 21<25 232 25 232>
VStem: 118 22<0 519 0 519>
LayerCount: 2
Fore
SplineSet
232 685 m 1
 25 685 l 1
 25 706 l 1
 232 706 l 1
 232 685 l 1
140 519 m 1
 140 0 l 1
 118 0 l 1
 118 519 l 1
 140 519 l 1
EndSplineSet
EndChar
StartChar: uni012C
Encoding: 300 300 235
Width: 268
Flags: W
HStem: 0 21G<123 146 123 123> 661 20G<123 146 146 146> 771 21<110.5 157.5 110.5 163.5>
VStem: 123 23<0 681 0 681>
LayerCount: 2
Fore
SplineSet
134 771 m 0
 76 771 36 807 26 847 c 1
 42 851 l 1
 55 817 87 792 134 792 c 0
 181 792 214 817 226 851 c 1
 242 847 l 1
 233 807 193 771 134 771 c 0
146 681 m 1
 146 0 l 1
 123 0 l 1
 123 681 l 1
 146 681 l 1
EndSplineSet
EndChar
StartChar: Iogonek
Encoding: 302 302 237
Width: 268
Flags: W
HStem: -203 22<66.5 98.5> -196 21G<143 143> 0 21G<145 146 145 145> 661 20G<123 146 146 146>
VStem: -4 24<-140 -93.5> 123 23<7 681 0 681>
LayerCount: 2
Fore
SplineSet
123 681 m 1xbc
 146 681 l 1
 146 0 l 1
 145 0 l 1
 74 -31 20 -63 20 -122 c 0
 20 -158 43 -181 90 -181 c 0xbc
 108 -181 124 -179 145 -174 c 1x7c
 143 -196 l 1
 123 -201 108 -203 89 -203 c 0
 26 -203 -4 -169 -4 -123 c 0
 -4 -64 47 -25 123 7 c 1
 123 681 l 1xbc
EndSplineSet
EndChar
StartChar: Idotaccent
Encoding: 304 304 239
Width: 268
Flags: W
HStem: 0 21G<123 146 123 123> 661 20G<123 146 146 146> 811 39<128 141>
VStem: 123 23<0 681 0 681> 134 21
LayerCount: 2
Fore
SplineSet
134 850 m 0xe8
 148 850 155 840 155 830 c 0
 155 820 148 811 134 811 c 0
 122 811 114 820 114 830 c 0
 114 840 122 850 134 850 c 0xe8
146 681 m 1xf0
 146 0 l 1
 123 0 l 1
 123 681 l 1
 146 681 l 1xf0
EndSplineSet
EndChar
StartChar: dotlessi
Encoding: 305 305 240
Width: 258
Flags: W
HStem: 0 21G<118 140 118 118> 499 20G<118 140 140 140>
VStem: 118 22<0 519 0 519>
LayerCount: 2
Fore
SplineSet
140 519 m 1
 140 0 l 1
 118 0 l 1
 118 519 l 1
 140 519 l 1
EndSplineSet
EndChar
StartChar: uni0133
Encoding: 307 307 242
Width: 516
Flags: W
HStem: -195 21G<286 286> 0 21G<118 140 118 118> 499 20G<118 140 140 140 377 399 399 399> 685 39<123 136 380.5 393.5>
VStem: 118 22<0 519 0 519> 129 21 377 22<7 519>
LayerCount: 2
Fore
SplineSet
129 724 m 0xf6
 143 724 150 714 150 704 c 0
 150 694 143 685 129 685 c 0
 117 685 109 694 109 704 c 0
 109 714 117 724 129 724 c 0xf6
387 724 m 0
 400 724 407 714 407 704 c 0
 407 694 400 685 387 685 c 0
 374 685 367 694 367 704 c 0
 367 714 374 724 387 724 c 0
140 519 m 1xfa
 140 0 l 1
 118 0 l 1
 118 519 l 1
 140 519 l 1xfa
399 519 m 1
 399 6 l 2
 399 -122 363 -155 286 -195 c 1
 280 -178 l 1
 348 -142 377 -111 377 7 c 2
 377 519 l 1
 399 519 l 1
EndSplineSet
EndChar
StartChar: Jcircumflex
Encoding: 308 308 243
Width: 277
Flags: W
HStem: 661 20G<138 161 161 161> 845 24<148 148>
VStem: 138 23<89 681>
LayerCount: 2
Fore
SplineSet
33 766 m 1
 22 780 l 1
 142 869 l 1
 154 869 l 1
 274 780 l 1
 262 766 l 1
 148 845 l 1
 33 766 l 1
161 681 m 1
 161 87 l 2
 161 -13 138 -53 30 -100 c 1
 23 -83 l 1
 116 -40 138 -4 138 89 c 2
 138 681 l 1
 161 681 l 1
EndSplineSet
EndChar
StartChar: uni0135
Encoding: 309 309 244
Width: 258
Flags: W
HStem: -195 21G<28 28> 499 20G<119 141 141 141> 738 24<129 129>
VStem: 119 22<7 519>
LayerCount: 2
Fore
SplineSet
14 654 m 1
 3 667 l 1
 123 762 l 1
 135 762 l 1
 255 667 l 1
 243 654 l 1
 129 738 l 1
 14 654 l 1
141 519 m 1
 141 6 l 2
 141 -122 105 -155 28 -195 c 1
 22 -178 l 1
 90 -142 119 -111 119 7 c 2
 119 519 l 1
 141 519 l 1
EndSplineSet
EndChar
StartChar: uni0136
Encoding: 310 310 245
Width: 510
Flags: W
HStem: 0 21G<123 146 123 123 478 478 478 506> 661 20G<123 146 146 146 463 490 490 490>
VStem: 123 23<0 681 0 681> 269 49<-125 -112.5>
LayerCount: 2
Fore
SplineSet
146 681 m 1
 146 0 l 1
 123 0 l 1
 123 681 l 1
 146 681 l 1
490 681 m 1
 178 367 l 1
 506 0 l 1
 478 0 l 1
 149 367 l 1
 463 681 l 1
 490 681 l 1
293 -96 m 0
 310 -96 318 -106 318 -119 c 0
 318 -131 315 -139 304 -162 c 2
 269 -258 l 1
 254 -258 l 1
 285 -142 l 1
 274 -138 269 -131 269 -119 c 0
 269 -106 279 -96 293 -96 c 0
EndSplineSet
EndChar
StartChar: uni0137
Encoding: 311 311 246
Width: 463
Flags: W
HStem: 0 21G<118 140 118 118 418 418 418 445> 499 20G<392 420 420 420> 713 20G<118 118> 716 20G<140 140>
VStem: 118 22<0 733 733 733> 243 49<-125 -112.5>
LayerCount: 2
Fore
SplineSet
140 736 m 1xd8
 140 0 l 1
 118 0 l 1
 118 733 l 1xec
 140 736 l 1xd8
420 519 m 1
 174 284 l 1
 445 0 l 1
 418 0 l 1
 146 284 l 1
 392 519 l 1
 420 519 l 1
267 -96 m 0
 284 -96 292 -106 292 -119 c 0
 292 -131 289 -139 278 -162 c 2
 243 -258 l 1
 228 -258 l 1
 259 -142 l 1
 248 -138 243 -131 243 -119 c 0
 243 -106 253 -96 267 -96 c 0
EndSplineSet
EndChar
StartChar: kgreenlandic
Encoding: 312 312 247
Width: 462
Flags: W
HStem: 0 21G<118 140 118 118 417 417 417 445> 499 20G<118 140 140 140 392 420 420 420>
VStem: 118 22<0 519 0 519>
LayerCount: 2
Fore
SplineSet
140 519 m 1
 140 0 l 1
 118 0 l 1
 118 519 l 1
 140 519 l 1
420 519 m 1
 173 274 l 1
 445 0 l 1
 417 0 l 1
 145 274 l 1
 392 519 l 1
 420 519 l 1
EndSplineSet
EndChar
StartChar: Lacute
Encoding: 313 313 248
Width: 456
Flags: W
HStem: 0 22<146 430> 661 20G<123 146 146 146>
VStem: 123 23<22 681 22 681 22 681>
LayerCount: 2
Fore
SplineSet
216 861 m 1
 227 838 l 1
 48 764 l 1
 41 779 l 1
 216 861 l 1
146 681 m 1
 146 22 l 1
 434 22 l 1
 430 0 l 1
 123 0 l 1
 123 681 l 1
 146 681 l 1
EndSplineSet
EndChar
StartChar: lacute
Encoding: 314 314 249
Width: 285
Flags: W
HStem: -10 21<169 193 169 194> 0 21G<232 232> 713 20G<113 113> 716 20G<135 135>
VStem: 113 22<72 73 73 733 733 733>
LayerCount: 2
Fore
SplineSet
205 912 m 1x98
 216 889 l 1
 37 815 l 1
 30 830 l 1
 205 912 l 1x98
185 -10 m 0
 142 -10 113 16 113 72 c 2
 113 733 l 1xa8
 135 736 l 1
 135 73 l 2
 135 32 152 11 186 11 c 0x98
 200 11 214 14 226 19 c 1x58
 232 0 l 1
 219 -5 203 -10 185 -10 c 0
EndSplineSet
EndChar
StartChar: uni013B
Encoding: 315 315 250
Width: 456
Flags: W
HStem: 0 22<146 430> 661 20G<123 146 146 146>
VStem: 123 23<22 681 22 681 22 681> 253 49<-125 -112.5>
LayerCount: 2
Fore
SplineSet
146 681 m 1
 146 22 l 1
 434 22 l 1
 430 0 l 1
 123 0 l 1
 123 681 l 1
 146 681 l 1
277 -96 m 0
 294 -96 302 -106 302 -119 c 0
 302 -131 299 -139 288 -162 c 2
 253 -258 l 1
 238 -258 l 1
 269 -142 l 1
 258 -138 253 -131 253 -119 c 0
 253 -106 263 -96 277 -96 c 0
EndSplineSet
EndChar
StartChar: uni013C
Encoding: 316 316 251
Width: 285
Flags: W
HStem: -10 21<169 193 169 194> 0 21G<232 232> 713 20G<113 113> 716 20G<135 135>
VStem: 113 22<72 73 73 733 733 733> 153 49<-125 -112.5>
LayerCount: 2
Fore
SplineSet
185 -10 m 0x98
 142 -10 113 16 113 72 c 2
 113 733 l 1xa8
 135 736 l 1
 135 73 l 2
 135 32 152 11 186 11 c 0x98
 200 11 214 14 226 19 c 1x58
 232 0 l 1
 219 -5 203 -10 185 -10 c 0x98
177 -96 m 0x9c
 194 -96 202 -106 202 -119 c 0
 202 -131 199 -139 188 -162 c 2
 153 -258 l 1
 138 -258 l 1
 169 -142 l 1
 158 -138 153 -131 153 -119 c 0
 153 -106 163 -96 177 -96 c 0x9c
EndSplineSet
EndChar
StartChar: uni013E
Encoding: 318 318 253
Width: 285
Flags: W
HStem: -10 21<169 193 169 194> 0 21G<232 232> 713 20G<113 113 254 254> 716 20G<135 135>
VStem: 113 22<72 73 73 733 733 733>
LayerCount: 2
Fore
SplineSet
185 -10 m 0x98
 142 -10 113 16 113 72 c 2
 113 733 l 1xa8
 135 736 l 1
 135 73 l 2
 135 32 152 11 186 11 c 0x98
 200 11 214 14 226 19 c 1x58
 232 0 l 1
 219 -5 203 -10 185 -10 c 0x98
227 588 m 1
 254 733 l 1
 230 735 l 1
 212 591 l 1
 227 588 l 1
EndSplineSet
EndChar
StartChar: Ldot
Encoding: 319 319 254
Width: 456
Flags: W
HStem: 0 22<146 430> 335 39<345 358> 661 20G<123 146 146 146>
VStem: 123 23<22 681 22 681 22 681> 351 21
LayerCount: 2
Fore
SplineSet
146 681 m 1
 146 22 l 1
 434 22 l 1
 430 0 l 1
 123 0 l 1
 123 681 l 1
 146 681 l 1
351 374 m 0
 365 374 372 364 372 354 c 0
 372 344 365 335 351 335 c 0
 339 335 331 344 331 354 c 0
 331 364 339 374 351 374 c 0
EndSplineSet
EndChar
StartChar: ldot
Encoding: 320 320 255
Width: 276
Flags: W
HStem: -10 21<169 193 169 194> 0 21G<232 232> 355 40<254 267> 713 20G<113 113> 716 20G<135 135>
VStem: 113 22<72 73 73 733 733 733> 260 21
LayerCount: 2
Fore
SplineSet
185 -10 m 0xae
 142 -10 113 16 113 72 c 2
 113 733 l 1xb6
 135 736 l 1
 135 73 l 2
 135 32 152 11 186 11 c 0xae
 200 11 214 14 226 19 c 1x6e
 232 0 l 1
 219 -5 203 -10 185 -10 c 0xae
260 395 m 0
 274 395 281 385 281 375 c 0
 281 365 274 355 260 355 c 0
 248 355 240 365 240 375 c 0
 240 385 248 395 260 395 c 0
EndSplineSet
EndChar
StartChar: Lslash
Encoding: 321 321 256
Width: 461
Flags: W
HStem: 0 22<150 435> 661 20G<128 150 150 150>
VStem: 128 22<22 22 22 309 309 309 344 681>
LayerCount: 2
Fore
SplineSet
150 22 m 1
 439 22 l 1
 435 0 l 1
 128 0 l 1
 128 309 l 1
 54 262 l 1
 45 279 l 1
 128 330 l 1
 128 681 l 1
 150 681 l 1
 150 344 l 1
 351 470 l 1
 361 453 l 1
 150 322 l 1
 150 22 l 1
EndSplineSet
EndChar
StartChar: uni0142
Encoding: 322 322 257
Width: 289
Flags: W
HStem: -10 21<176 200 176 200.5> 0 21G<239 239> 713 20G<120 120> 716 20G<142 142>
VStem: 120 22<72 73 73 346 346 346 382 733 733 733>
LayerCount: 2
Fore
SplineSet
193 11 m 0x98
 207 11 220 14 232 19 c 1x58
 239 0 l 1
 226 -5 209 -10 192 -10 c 0
 149 -10 120 16 120 72 c 2
 120 346 l 1
 55 306 l 1
 45 321 l 1
 120 368 l 1
 120 733 l 1xa8
 142 736 l 1
 142 382 l 1
 247 447 l 1
 257 431 l 1
 142 360 l 1
 142 73 l 2
 142 32 159 11 193 11 c 0x98
EndSplineSet
EndChar
StartChar: nacute
Encoding: 324 324 259
Width: 581
Flags: W
HStem: 0 21G<118 140 118 118 447 469 447 447> 499 20G<118 137 137 137> 509 20<289 369.5>
VStem: 118 20 447 22<0 367 367 369 0 414>
LayerCount: 2
Fore
SplineSet
381 738 m 1xb8
 203 654 l 1
 195 670 l 1
 371 761 l 1
 381 738 l 1xb8
330 529 m 0
 425 529 469 471 469 369 c 2
 469 0 l 1
 447 0 l 1
 447 367 l 2
 447 461 409 509 330 509 c 0xb8
 246 509 189 459 140 384 c 1
 140 0 l 1
 118 0 l 1
 118 519 l 1
 137 519 l 1xd8
 139 413 l 1
 186 483 248 529 330 529 c 0
EndSplineSet
EndChar
StartChar: uni0145
Encoding: 325 325 260
Width: 661
Flags: W
HStem: 0 26<519 519 519 538 510 519> 656 25<142 142>
VStem: 123 22<0 477 0 681> 303 49<-125 -112.5> 516 22<205 681 0 681>
LayerCount: 2
Fore
SplineSet
538 681 m 1
 538 0 l 1
 510 0 l 1
 142 656 l 1
 144 621 145 576 145 477 c 2
 145 0 l 1
 123 0 l 1
 123 681 l 1
 152 681 l 1
 519 26 l 1
 518 66 516 127 516 205 c 2
 516 681 l 1
 538 681 l 1
327 -96 m 0
 344 -96 352 -106 352 -119 c 0
 352 -131 349 -139 338 -162 c 2
 303 -258 l 1
 288 -258 l 1
 319 -142 l 1
 308 -138 303 -131 303 -119 c 0
 303 -106 313 -96 327 -96 c 0
EndSplineSet
EndChar
StartChar: Ncaron
Encoding: 327 327 262
Width: 661
Flags: W
HStem: 0 26<519 519 519 538 510 519> 656 25<142 142> 760 24<337 337 337 343 331 337>
VStem: 123 22<0 477 0 681> 516 22<205 681 0 681>
LayerCount: 2
Fore
SplineSet
451 863 m 1
 463 850 l 1
 343 760 l 1
 331 760 l 1
 211 850 l 1
 222 863 l 1
 337 784 l 1
 451 863 l 1
538 681 m 1
 538 0 l 1
 510 0 l 1
 142 656 l 1
 144 621 145 576 145 477 c 2
 145 0 l 1
 123 0 l 1
 123 681 l 1
 152 681 l 1
 519 26 l 1
 518 66 516 127 516 205 c 2
 516 681 l 1
 538 681 l 1
EndSplineSet
EndChar
StartChar: ncaron
Encoding: 328 328 263
Width: 581
Flags: W
HStem: 0 21G<118 140 118 118 447 469 447 447> 499 20G<118 137 137 137> 509 20<289 369.5> 641 24<297 297 297 303 291 297> 716 20G<171 171 423 423>
VStem: 118 20 447 22<0 367 367 369 0 414>
LayerCount: 2
Fore
SplineSet
303 641 m 1xbe
 291 641 l 1
 171 736 l 1
 182 749 l 1
 297 665 l 1
 411 749 l 1
 423 736 l 1
 303 641 l 1xbe
330 529 m 0
 425 529 469 471 469 369 c 2
 469 0 l 1
 447 0 l 1
 447 367 l 2
 447 461 409 509 330 509 c 0xbe
 246 509 189 459 140 384 c 1
 140 0 l 1
 118 0 l 1
 118 519 l 1
 137 519 l 1xde
 139 413 l 1
 186 483 248 529 330 529 c 0
EndSplineSet
EndChar
StartChar: napostrophe
Encoding: 329 329 264
Width: 641
Flags: W
HStem: 0 21G<177 199 177 177 506 528 506 506> 499 20G<177 196 196 196> 509 20<348 428.5> 717 20G<86.5 102.5>
VStem: 70 49<707 719.5> 177 20 506 22<0 367 367 369 0 414>
LayerCount: 2
Fore
SplineSet
94 737 m 0xbe
 111 737 119 726 119 713 c 0
 119 701 114 695 105 670 c 2
 75 570 l 1
 60 570 l 1
 86 690 l 1
 73 694 70 701 70 713 c 0
 70 726 79 737 94 737 c 0xbe
389 529 m 0
 484 529 528 471 528 369 c 2
 528 0 l 1
 506 0 l 1
 506 367 l 2
 506 461 468 509 389 509 c 0xbe
 305 509 248 459 199 384 c 1
 199 0 l 1
 177 0 l 1
 177 519 l 1
 196 519 l 1xde
 198 413 l 1
 246 483 307 529 389 529 c 0
EndSplineSet
EndChar
StartChar: Eng
Encoding: 330 330 265
Width: 661
Flags: W
HStem: -197 21<422 461 422 468.5> 0 21G<123 145 123 123 510 516 510 510> 656 25<142 142>
VStem: 123 22<0 477 0 681> 516 22<-85 0 0 0 205 681>
LayerCount: 2
Fore
SplineSet
516 681 m 1
 538 681 l 1
 538 -86 l 2
 538 -160 497 -197 440 -197 c 0
 400 -197 372 -182 352 -167 c 1
 363 -151 l 1
 382 -165 404 -176 440 -176 c 0
 482 -176 516 -152 516 -85 c 2
 516 0 l 1
 510 0 l 1
 142 656 l 1
 144 621 145 576 145 477 c 2
 145 0 l 1
 123 0 l 1
 123 681 l 1
 152 681 l 1
 519 26 l 1
 518 66 516 127 516 205 c 2
 516 681 l 1
EndSplineSet
EndChar
StartChar: uni014B
Encoding: 331 331 266
Width: 581
Flags: W
HStem: -197 20<352.5 391.5 352.5 398.5> 0 21G<118 140 118 118> 499 20G<118 137 137 137> 509 20<289 369.5>
VStem: 118 20 447 22<-86 367 367 369>
LayerCount: 2
Fore
SplineSet
330 529 m 0xdc
 425 529 469 471 469 369 c 2
 469 -86 l 2
 469 -160 427 -197 370 -197 c 0
 330 -197 302 -182 283 -167 c 1
 294 -152 l 1
 313 -166 335 -177 370 -177 c 0
 413 -177 447 -152 447 -86 c 2
 447 367 l 2
 447 461 409 509 330 509 c 0xdc
 246 509 189 459 140 384 c 1
 140 0 l 1
 118 0 l 1
 118 519 l 1
 137 519 l 1xec
 139 413 l 1
 186 483 248 529 330 529 c 0xdc
EndSplineSet
EndChar
StartChar: Omacron
Encoding: 332 332 267
Width: 689
Flags: W
HStem: -10 22<271.5 421 271.5 427.5> 670 21<272 418> 811 21<241 448 241 448>
VStem: 78 23<233 446.5 233 451> 588 23<233.5 448.5>
LayerCount: 2
Fore
SplineSet
448 811 m 1
 241 811 l 1
 241 832 l 1
 448 832 l 1
 448 811 l 1
344 691 m 0
 505 691 611 569 611 340 c 0
 611 119 511 -10 344 -10 c 0
 185 -10 78 115 78 339 c 0
 78 563 187 691 344 691 c 0
344 670 m 0
 200 670 101 554 101 339 c 0
 101 127 199 12 344 12 c 0
 498 12 588 127 588 340 c 0
 588 557 492 670 344 670 c 0
EndSplineSet
EndChar
StartChar: obreve
Encoding: 335 335 270
Width: 560
Flags: W
HStem: -10 21<222.5 336.5 222.5 343> 509 20<225 338.5> 662 22<257.5 304.5 257.5 310.5>
VStem: 73 23<180 340.5 180 345> 465 23<180.5 341.5>
LayerCount: 2
Fore
SplineSet
281 662 m 0
 223 662 183 699 173 748 c 1
 189 752 l 1
 202 708 234 684 281 684 c 0
 328 684 361 708 373 752 c 1
 389 748 l 1
 380 699 340 662 281 662 c 0
281 529 m 0
 408 529 488 434 488 262 c 0
 488 89 406 -10 280 -10 c 0
 151 -10 73 91 73 259 c 0
 73 431 156 529 281 529 c 0
281 509 m 0
 169 509 96 422 96 259 c 0
 96 101 165 11 280 11 c 0
 393 11 465 99 465 262 c 0
 465 421 396 509 281 509 c 0
EndSplineSet
EndChar
StartChar: Ohungarumlaut
Encoding: 336 336 271
Width: 689
Flags: W
HStem: -10 22<271.5 421 271.5 427.5> 670 21<272 418> 718 20G<384 384> 721 20G<276 276>
VStem: 78 23<233 446.5 233 451> 588 23<233.5 448.5>
LayerCount: 2
Fore
SplineSet
374 886 m 1xdc
 393 873 l 1
 289 732 l 1
 276 741 l 1
 374 886 l 1xdc
487 879 m 1
 506 865 l 1
 397 728 l 1
 384 738 l 1xec
 487 879 l 1
344 691 m 0
 505 691 611 569 611 340 c 0
 611 119 511 -10 344 -10 c 0
 185 -10 78 115 78 339 c 0
 78 563 187 691 344 691 c 0
344 670 m 0
 200 670 101 554 101 339 c 0
 101 127 199 12 344 12 c 0
 498 12 588 127 588 340 c 0
 588 557 492 670 344 670 c 0
EndSplineSet
EndChar
StartChar: ohungarumlaut
Encoding: 337 337 272
Width: 560
Flags: W
HStem: -10 21<222.5 336.5 222.5 343> 509 20<225 338.5> 723 20G<444 444>
VStem: 73 23<180 340.5 180 345> 465 23<180.5 341.5>
LayerCount: 2
Fore
SplineSet
311 764 m 1
 331 750 l 1
 226 599 l 1
 213 608 l 1
 311 764 l 1
425 757 m 1
 444 743 l 1
 334 596 l 1
 321 605 l 1
 425 757 l 1
281 529 m 0
 408 529 488 434 488 262 c 0
 488 89 406 -10 280 -10 c 0
 151 -10 73 91 73 259 c 0
 73 431 156 529 281 529 c 0
281 509 m 0
 169 509 96 422 96 259 c 0
 96 101 165 11 280 11 c 0
 393 11 465 99 465 262 c 0
 465 421 396 509 281 509 c 0
EndSplineSet
EndChar
StartChar: racute
Encoding: 341 341 276
Width: 362
Flags: W
HStem: 0 21G<118 140 118 118> 499 20G<118 137 137 137> 503 20G<345 345> 509 20<255 303>
VStem: 118 19.5
LayerCount: 2
Fore
SplineSet
313 738 m 1x98
 135 654 l 1
 127 670 l 1
 303 761 l 1
 313 738 l 1x98
294 529 m 0
 317 529 333 526 345 523 c 1xa8
 340 504 l 1
 327 507 312 509 294 509 c 0x98
 216 509 173 456 140 344 c 1
 140 0 l 1
 118 0 l 1
 118 519 l 1
 137 519 l 1xc8
 138 390 l 1
 167 485 215 529 294 529 c 0
EndSplineSet
EndChar
StartChar: uni0156
Encoding: 342 342 277
Width: 572
Flags: W
HStem: 0 21G<123 146 123 123 501 528 501 501> 324 21<146 287 287 313 146 287> 660 21<146 269 146 146>
VStem: 123 23<0 324 345 660> 278 49<-125 -112.5> 473 23<448.5 553>
LayerCount: 2
Fore
SplineSet
337 327 m 1
 528 0 l 1
 501 0 l 1
 313 324 l 1
 146 324 l 1
 146 0 l 1
 123 0 l 1
 123 681 l 1
 272 681 l 2
 431 681 496 616 496 504 c 0
 496 393 428 343 337 327 c 1
146 345 m 1
 287 345 l 2
 398 345 473 393 473 504 c 0
 473 602 420 660 269 660 c 2
 146 660 l 1
 146 345 l 1
302 -96 m 0
 319 -96 327 -106 327 -119 c 0
 327 -131 324 -139 313 -162 c 2
 278 -258 l 1
 263 -258 l 1
 294 -142 l 1
 283 -138 278 -131 278 -119 c 0
 278 -106 288 -96 302 -96 c 0
EndSplineSet
EndChar
StartChar: uni0157
Encoding: 343 343 278
Width: 362
Flags: W
HStem: 0 21G<118 140 118 118> 499 20G<118 137 137 137> 503 20G<345 345> 509 20<255 303>
VStem: 103 49<-125 -112.5> 118 19.5
LayerCount: 2
Fore
SplineSet
294 529 m 0x94
 317 529 333 526 345 523 c 1xa4
 340 504 l 1
 327 507 312 509 294 509 c 0x94
 216 509 173 456 140 344 c 1
 140 0 l 1
 118 0 l 1
 118 519 l 1
 137 519 l 1xc4
 138 390 l 1
 167 485 215 529 294 529 c 0x94
127 -96 m 0x98
 144 -96 152 -106 152 -119 c 0
 152 -131 149 -139 138 -162 c 2
 103 -258 l 1
 88 -258 l 1
 119 -142 l 1
 108 -138 103 -131 103 -119 c 0
 103 -106 113 -96 127 -96 c 0x98
EndSplineSet
EndChar
StartChar: rcaron
Encoding: 345 345 280
Width: 362
Flags: W
HStem: 0 21G<118 140 118 118> 499 20G<118 137 137 137> 503 20G<345 345> 509 20<255 303> 641 24<229 229 229 235 223 229> 716 20G<103 103 355 355>
VStem: 118 19.5
LayerCount: 2
Fore
SplineSet
235 641 m 1x9e
 223 641 l 1
 103 736 l 1
 114 749 l 1
 229 665 l 1
 343 749 l 1
 355 736 l 1
 235 641 l 1x9e
138 390 m 1
 167 485 215 529 294 529 c 0x9e
 317 529 333 526 345 523 c 1xae
 340 504 l 1
 327 507 312 509 294 509 c 0x9e
 216 509 173 456 140 344 c 1
 140 0 l 1
 118 0 l 1
 118 519 l 1
 137 519 l 1xce
 138 390 l 1
EndSplineSet
EndChar
StartChar: uni015B
Encoding: 347 347 282
Width: 450
Flags: W
HStem: -10 21<186 264.5 186 272.5> 509 20<186 254>
VStem: 66 23<370.5 434 370.5 439> 369 23<94.5 171.5>
LayerCount: 2
Fore
SplineSet
304 761 m 1
 314 738 l 1
 136 654 l 1
 128 670 l 1
 304 761 l 1
224 529 m 0
 286 529 332 511 378 474 c 1
 365 458 l 1
 321 492 283 509 225 509 c 0
 147 509 89 467 89 401 c 0
 89 340 128 313 231 285 c 0
 348 253 392 220 392 134 c 0
 392 48 322 -10 223 -10 c 0
 142 -10 92 19 48 56 c 1
 61 71 l 1
 106 34 149 11 223 11 c 0
 306 11 369 55 369 134 c 0
 369 209 334 236 221 267 c 0
 111 296 66 331 66 401 c 0
 66 477 136 529 224 529 c 0
EndSplineSet
EndChar
StartChar: Scedilla
Encoding: 350 350 285
Width: 536
Flags: W
HStem: -212 20<257 286 257 292> -194 21G<202 202> -90 16 -10 22<247 247 264 264> 670 21<215.5 300.5>
VStem: 80 23<492.5 573.5 492.5 578.5> 244.5 19 331 23<-158 -123.5> 444 22<129.5 231>
LayerCount: 2
Fore
SplineSet
466 182 m 0x7f80
 466 70 384 -8 264 -10 c 1
 263 -74 l 1
 323 -77 354 -99 354 -140 c 0
 354 -187 314 -212 270 -212 c 0
 239 -212 219 -204 202 -194 c 1
 212 -177 l 1
 226 -186 244 -192 270 -192 c 0xbf80
 302 -192 331 -176 331 -140 c 0
 331 -107 304 -91 242 -90 c 1
 247 -10 l 1
 163 -7 106 25 54 72 c 1
 69 87 l 1
 118 42 171 12 257 12 c 0
 369 12 444 78 444 181 c 0
 444 281 393 318 266 358 c 0
 128 401 80 443 80 534 c 0
 80 623 153 691 265 691 c 0
 348 691 397 664 445 622 c 1
 430 605 l 1
 383 649 336 670 265 670 c 0
 166 670 103 613 103 534 c 0
 103 451 148 417 274 378 c 0
 407 337 466 293 466 182 c 0x7f80
EndSplineSet
EndChar
StartChar: scedilla
Encoding: 351 351 286
Width: 450
Flags: W
HStem: -212 20<221 250 221 256> -194 21G<166 166> -90 16 -10 21<211 211 228 228> 509 20<186 254>
VStem: 66 23<370.5 434 370.5 439> 208.5 19 295 23<-158 -123.5> 369 23<94.5 171.5>
LayerCount: 2
Fore
SplineSet
392 134 m 0x7f80
 392 49 324 -8 228 -10 c 1
 227 -74 l 1
 287 -77 318 -99 318 -140 c 0
 318 -187 278 -212 234 -212 c 0
 203 -212 183 -204 166 -194 c 1
 176 -177 l 1
 190 -186 208 -192 234 -192 c 0xbf80
 266 -192 295 -176 295 -140 c 0
 295 -107 268 -91 206 -90 c 1
 211 -10 l 1
 137 -7 90 21 48 56 c 1
 61 71 l 1
 106 34 149 11 223 11 c 0
 306 11 369 55 369 134 c 0
 369 209 334 236 221 267 c 0
 111 296 66 331 66 401 c 0
 66 477 136 529 224 529 c 0
 286 529 332 511 378 474 c 1
 365 458 l 1
 321 492 283 509 225 509 c 0
 147 509 89 467 89 401 c 0
 89 340 128 313 231 285 c 0
 348 253 392 220 392 134 c 0x7f80
EndSplineSet
EndChar
StartChar: scaron
Encoding: 353 353 288
Width: 450
Flags: W
HStem: -10 21<186 264.5 186 272.5> 509 20<186 254> 641 24<230 230 230 236 224 230> 716 20G<104 104 356 356>
VStem: 66 23<370.5 434 370.5 439> 369 23<94.5 171.5>
LayerCount: 2
Fore
SplineSet
344 749 m 1
 356 736 l 1
 236 641 l 1
 224 641 l 1
 104 736 l 1
 115 749 l 1
 230 665 l 1
 344 749 l 1
224 529 m 0
 286 529 332 511 378 474 c 1
 365 458 l 1
 321 492 283 509 225 509 c 0
 147 509 89 467 89 401 c 0
 89 340 128 313 231 285 c 0
 348 253 392 220 392 134 c 0
 392 48 322 -10 223 -10 c 0
 142 -10 92 19 48 56 c 1
 61 71 l 1
 106 34 149 11 223 11 c 0
 306 11 369 55 369 134 c 0
 369 209 334 236 221 267 c 0
 111 296 66 331 66 401 c 0
 66 477 136 529 224 529 c 0
EndSplineSet
EndChar
StartChar: uni0162
Encoding: 354 354 289
Width: 476
Flags: W
HStem: -212 20<242 271 242 277> -194 21G<187 187> -90 16 0 21G<226 232 226 226> 659 22<16 226 16 463 249 459 249 249>
VStem: 226 23<11 659 11 659 11 659> 316 23<-158 -123.5>
LayerCount: 2
Fore
SplineSet
459 659 m 1x7e
 249 659 l 1
 249 11 l 1
 250 11 l 1
 248 -74 l 1
 308 -77 339 -99 339 -140 c 0
 339 -187 299 -212 255 -212 c 0
 224 -212 204 -204 187 -194 c 1
 197 -177 l 1
 211 -186 229 -192 255 -192 c 0xbe
 287 -192 316 -176 316 -140 c 0
 316 -107 289 -91 227 -90 c 1
 232 0 l 1
 226 0 l 1
 226 659 l 1
 16 659 l 1
 16 681 l 1
 463 681 l 1
 459 659 l 1x7e
EndSplineSet
EndChar
StartChar: uni0163
Encoding: 355 355 290
Width: 331
Flags: W
HStem: -212 20<221 250 221 256> -194 21G<166 166> -90 16 -10 21<228 245 197 248> -9 20<211 211> 499 20<28 113 28 113 135 276>
VStem: 113 22<117 118 118 499 519 650 650 650> 208.5 19 295 23<-158 -123.5>
LayerCount: 2
Fore
SplineSet
227 -74 m 1x7780
 287 -77 318 -99 318 -140 c 0
 318 -187 278 -212 234 -212 c 0
 203 -212 183 -204 166 -194 c 1
 176 -177 l 1
 190 -186 208 -192 234 -192 c 0
 266 -192 295 -176 295 -140 c 0
 295 -107 268 -91 206 -90 c 1
 211 -9 l 1xaf80
 150 -3 113 39 113 117 c 2
 113 499 l 1
 28 499 l 1
 28 519 l 1
 113 519 l 1
 113 650 l 1
 135 652 l 1
 135 519 l 1
 279 519 l 1
 276 499 l 1
 135 499 l 1
 135 118 l 2
 135 48 167 11 227 11 c 0
 263 11 291 22 317 37 c 1
 327 20 l 1
 299 3 268 -10 228 -10 c 1
 227 -74 l 1x7780
EndSplineSet
EndChar
StartChar: Tcaron
Encoding: 356 356 291
Width: 476
Flags: W
HStem: 0 21G<226 249 226 226> 659 22<16 226 16 463 249 459 249 249> 760 24<238 238 238 244 232 238>
VStem: 226 23<0 659 0 659>
LayerCount: 2
Fore
SplineSet
352 863 m 1
 364 850 l 1
 244 760 l 1
 232 760 l 1
 112 850 l 1
 123 863 l 1
 238 784 l 1
 352 863 l 1
463 681 m 1
 459 659 l 1
 249 659 l 1
 249 0 l 1
 226 0 l 1
 226 659 l 1
 16 659 l 1
 16 681 l 1
 463 681 l 1
EndSplineSet
EndChar
StartChar: uni0165
Encoding: 357 357 292
Width: 331
Flags: W
HStem: -10 21<197 245 197 246.5> 499 20<28 113 28 113 135 276> 716 20G<215 215>
VStem: 113 22<117 118 118 499 519 650 650 650>
LayerCount: 2
Fore
SplineSet
239 734 m 1
 212 589 l 1
 197 592 l 1
 215 736 l 1
 239 734 l 1
317 37 m 1
 327 20 l 1
 299 3 267 -10 226 -10 c 0
 156 -10 113 33 113 117 c 2
 113 499 l 1
 28 499 l 1
 28 519 l 1
 113 519 l 1
 113 650 l 1
 135 652 l 1
 135 519 l 1
 279 519 l 1
 276 499 l 1
 135 499 l 1
 135 118 l 2
 135 48 167 11 227 11 c 0
 263 11 291 22 317 37 c 1
EndSplineSet
EndChar
StartChar: Utilde
Encoding: 360 360 295
Width: 640
Flags: W
HStem: -10 22<254.5 387.5 254.5 394> 661 20G<113 136 136 136 505 528 528 528> 804 20<358.5 390.5 358.5 393.5> 847 20<250 279>
VStem: 113 23<207 210 210 681> 505 23<210 681>
LayerCount: 2
Fore
SplineSet
379 804 m 0
 331 804 296 847 262 847 c 0
 238 847 223 837 202 812 c 1
 188 821 l 1
 210 851 232 867 262 867 c 0xfc
 301 867 338 824 379 824 c 0
 402 824 417 835 438 865 c 1
 452 857 l 1
 431 819 408 804 379 804 c 0
528 681 m 1
 528 207 l 2
 528 82 467 -10 321 -10 c 0
 173 -10 113 82 113 207 c 2
 113 681 l 1
 136 681 l 1
 136 210 l 2
 136 93 188 12 321 12 c 0
 454 12 505 95 505 210 c 2
 505 681 l 1
 528 681 l 1
EndSplineSet
EndChar
StartChar: uni0169
Encoding: 361 361 296
Width: 576
Flags: W
HStem: -10 21<221.5 302 221.5 302> 0 21G<439 459 439 439> 499 20G<113 135 135 135 437 459 459 459> 678 20<325.5 357.5 325.5 360.5> 721 20<217 246>
VStem: 113 22<149 151 151 519> 437 22<133 519 0 519>
LayerCount: 2
Fore
SplineSet
346 678 m 0xbe
 298 678 263 721 229 721 c 0
 205 721 190 711 169 686 c 1
 155 695 l 1
 177 725 199 741 229 741 c 0xae
 268 741 305 698 346 698 c 0xbe
 369 698 384 709 405 739 c 1xae
 419 731 l 1
 398 693 375 678 346 678 c 0xbe
459 519 m 1xae
 459 0 l 1
 439 0 l 1x6e
 439 106 l 1
 403 41 345 -10 259 -10 c 0
 167 -10 113 46 113 149 c 2
 113 519 l 1
 135 519 l 1
 135 151 l 2
 135 56 181 11 262 11 c 0
 342 11 396 61 437 133 c 1
 437 519 l 1
 459 519 l 1xae
EndSplineSet
EndChar
StartChar: uni016A
Encoding: 362 362 297
Width: 640
Flags: W
HStem: -10 22<254.5 387.5 254.5 394> 661 20G<113 136 136 136 505 528 528 528> 811 21<217 424 217 424>
VStem: 113 23<207 210 210 681> 505 23<210 681>
LayerCount: 2
Fore
SplineSet
424 811 m 1
 217 811 l 1
 217 832 l 1
 424 832 l 1
 424 811 l 1
528 681 m 1
 528 207 l 2
 528 82 467 -10 321 -10 c 0
 173 -10 113 82 113 207 c 2
 113 681 l 1
 136 681 l 1
 136 210 l 2
 136 93 188 12 321 12 c 0
 454 12 505 95 505 210 c 2
 505 681 l 1
 528 681 l 1
EndSplineSet
EndChar
StartChar: umacron
Encoding: 363 363 298
Width: 576
Flags: W
HStem: -10 21<221.5 302 221.5 302> 0 21G<439 459 439 439> 499 20G<113 135 135 135 437 459 459 459> 685 21<184 391 184 391>
VStem: 113 22<149 151 151 519> 437 22<133 519 0 519>
LayerCount: 2
Fore
SplineSet
391 685 m 1xbc
 184 685 l 1
 184 706 l 1
 391 706 l 1
 391 685 l 1xbc
459 519 m 1
 459 0 l 1
 439 0 l 1x7c
 439 106 l 1
 403 41 345 -10 259 -10 c 0
 167 -10 113 46 113 149 c 2
 113 519 l 1
 135 519 l 1
 135 151 l 2
 135 56 181 11 262 11 c 0
 342 11 396 61 437 133 c 1
 437 519 l 1
 459 519 l 1
EndSplineSet
EndChar
StartChar: uni016C
Encoding: 364 364 299
Width: 640
Flags: W
HStem: -10 22<254.5 387.5 254.5 394> 661 20G<113 136 136 136 505 528 528 528> 771 21<296.5 343.5 296.5 349.5>
VStem: 113 23<207 210 210 681> 505 23<210 681>
LayerCount: 2
Fore
SplineSet
320 771 m 0
 262 771 222 807 212 847 c 1
 228 851 l 1
 241 817 273 792 320 792 c 0
 367 792 400 817 412 851 c 1
 428 847 l 1
 419 807 379 771 320 771 c 0
528 681 m 1
 528 207 l 2
 528 82 467 -10 321 -10 c 0
 173 -10 113 82 113 207 c 2
 113 681 l 1
 136 681 l 1
 136 210 l 2
 136 93 188 12 321 12 c 0
 454 12 505 95 505 210 c 2
 505 681 l 1
 528 681 l 1
EndSplineSet
EndChar
StartChar: uni016D
Encoding: 365 365 300
Width: 576
Flags: W
HStem: -10 21<221.5 302 221.5 302> 0 21G<439 459 439 439> 499 20G<113 135 135 135 437 459 459 459> 662 22<263.5 310.5 263.5 316.5>
VStem: 113 22<149 151 151 519> 437 22<133 519 0 519>
LayerCount: 2
Fore
SplineSet
287 662 m 0xbc
 229 662 189 699 179 748 c 1
 195 752 l 1
 208 708 240 684 287 684 c 0
 334 684 367 708 379 752 c 1
 395 748 l 1
 386 699 346 662 287 662 c 0xbc
459 519 m 1
 459 0 l 1
 439 0 l 1x7c
 439 106 l 1
 403 41 345 -10 259 -10 c 0
 167 -10 113 46 113 149 c 2
 113 519 l 1
 135 519 l 1
 135 151 l 2
 135 56 181 11 262 11 c 0
 342 11 396 61 437 133 c 1
 437 519 l 1
 459 519 l 1
EndSplineSet
EndChar
StartChar: Uring
Encoding: 366 366 301
Width: 640
Flags: W
HStem: -10 22<254.5 387.5 254.5 394> 661 20G<113 136 136 136 505 528 528 528> 770 18<301.5 339 301.5 344> 909 18<301.5 339>
VStem: 113 23<207 210 210 681> 241 21<829.5 867 829.5 872> 379 21<830 867.5> 505 23<210 681>
LayerCount: 2
Fore
SplineSet
320 927 m 0
 369 927 400 896 400 849 c 0
 400 801 368 770 320 770 c 0
 272 770 241 801 241 848 c 0
 241 896 273 927 320 927 c 0
320 909 m 0
 283 909 262 886 262 848 c 0
 262 811 283 788 320 788 c 0
 358 788 379 811 379 849 c 0
 379 886 358 909 320 909 c 0
528 681 m 1
 528 207 l 2
 528 82 467 -10 321 -10 c 0
 173 -10 113 82 113 207 c 2
 113 681 l 1
 136 681 l 1
 136 210 l 2
 136 93 188 12 321 12 c 0
 454 12 505 95 505 210 c 2
 505 681 l 1
 528 681 l 1
EndSplineSet
EndChar
StartChar: uring
Encoding: 367 367 302
Width: 576
Flags: W
HStem: -10 21<221.5 302 221.5 302> 0 21G<439 459 439 439> 499 20G<113 135 135 135 437 459 459 459> 644 18<268.5 306 268.5 311> 783 18<268.5 306>
VStem: 113 22<149 151 151 519> 208 21<703.5 741 703.5 746> 346 21<704 741.5> 437 22<133 519 0 519>
LayerCount: 2
Fore
SplineSet
287 801 m 0xbf80
 336 801 367 770 367 723 c 0
 367 675 335 644 287 644 c 0
 239 644 208 675 208 722 c 0
 208 770 240 801 287 801 c 0xbf80
287 783 m 0
 250 783 229 760 229 722 c 0
 229 685 250 662 287 662 c 0
 325 662 346 685 346 723 c 0
 346 760 325 783 287 783 c 0
459 519 m 1
 459 0 l 1
 439 0 l 1x7f80
 439 106 l 1
 403 41 345 -10 259 -10 c 0
 167 -10 113 46 113 149 c 2
 113 519 l 1
 135 519 l 1
 135 151 l 2
 135 56 181 11 262 11 c 0
 342 11 396 61 437 133 c 1
 437 519 l 1
 459 519 l 1
EndSplineSet
EndChar
StartChar: Uhungarumlaut
Encoding: 368 368 303
Width: 640
Flags: W
HStem: -10 22<254.5 387.5 254.5 394> 661 20G<113 136 136 136 505 528 528 528> 718 20G<360 360> 721 20G<252 252>
VStem: 113 23<207 210 210 681> 505 23<210 681>
LayerCount: 2
Fore
SplineSet
350 886 m 1xdc
 369 873 l 1
 265 732 l 1
 252 741 l 1
 350 886 l 1xdc
463 879 m 1
 482 865 l 1
 373 728 l 1
 360 738 l 1xec
 463 879 l 1
528 681 m 1
 528 207 l 2
 528 82 467 -10 321 -10 c 0
 173 -10 113 82 113 207 c 2
 113 681 l 1
 136 681 l 1
 136 210 l 2
 136 93 188 12 321 12 c 0
 454 12 505 95 505 210 c 2
 505 681 l 1
 528 681 l 1
EndSplineSet
EndChar
StartChar: uhungarumlaut
Encoding: 369 369 304
Width: 576
Flags: W
HStem: -10 21<221.5 302 221.5 302> 0 21G<439 459 439 439> 499 20G<113 135 135 135 437 459 459 459> 723 20G<451 451>
VStem: 113 22<149 151 151 519> 437 22<133 519 0 519>
LayerCount: 2
Fore
SplineSet
318 764 m 1xbc
 338 750 l 1
 233 599 l 1
 220 608 l 1
 318 764 l 1xbc
432 757 m 1
 451 743 l 1
 341 596 l 1
 328 605 l 1
 432 757 l 1
459 519 m 1
 459 0 l 1
 439 0 l 1x7c
 439 106 l 1
 403 41 345 -10 259 -10 c 0
 167 -10 113 46 113 149 c 2
 113 519 l 1
 135 519 l 1
 135 151 l 2
 135 56 181 11 262 11 c 0
 342 11 396 61 437 133 c 1
 437 519 l 1
 459 519 l 1
EndSplineSet
EndChar
StartChar: uogonek
Encoding: 371 371 306
Width: 576
Flags: W
HStem: -203 22<379.5 411.5> -196 21G<456 456> -10 21<221.5 302 221.5 302> 0 21G<458 459 458 458> 499 20G<113 135 135 135 437 459 459 459>
VStem: 113 22<149 151 151 519> 309 24<-140 -93> 437 22<133 519 0 519>
LayerCount: 2
Fore
SplineSet
437 519 m 1xaf
 459 519 l 1
 459 0 l 1
 458 0 l 1
 387 -31 333 -63 333 -122 c 0
 333 -158 356 -181 403 -181 c 0x9f
 421 -181 437 -179 458 -174 c 1x6f
 456 -196 l 1
 436 -201 421 -203 402 -203 c 0
 339 -203 309 -169 309 -123 c 0
 309 -63 361 -25 439 8 c 1
 439 106 l 1
 403 41 345 -10 259 -10 c 0
 167 -10 113 46 113 149 c 2
 113 519 l 1
 135 519 l 1
 135 151 l 2
 135 56 181 11 262 11 c 0
 342 11 396 61 437 133 c 1
 437 519 l 1xaf
EndSplineSet
EndChar
StartChar: Wcircumflex
Encoding: 372 372 307
Width: 790
Flags: W
HStem: 0 24<212 212 212 223 197 212> 659 22<395 395> 845 24<395 395>
VStem: 38 714<681 681>
LayerCount: 2
Fore
SplineSet
280 766 m 1
 269 780 l 1
 389 869 l 1
 401 869 l 1
 521 780 l 1
 509 766 l 1
 395 845 l 1
 280 766 l 1
752 681 m 1
 593 0 l 1
 567 0 l 1
 395 659 l 1
 223 0 l 1
 197 0 l 1
 38 681 l 1
 62 681 l 1
 212 24 l 1
 381 681 l 1
 409 681 l 1
 580 24 l 1
 729 681 l 1
 752 681 l 1
EndSplineSet
EndChar
StartChar: wcircumflex
Encoding: 373 373 308
Width: 680
Flags: W
HStem: 0 21<186 186 186 200 171 186> 497 22<341 341> 738 24<340 340>
VStem: 33 614<519 519>
LayerCount: 2
Fore
SplineSet
225 654 m 1
 214 667 l 1
 334 762 l 1
 346 762 l 1
 466 667 l 1
 454 654 l 1
 340 738 l 1
 225 654 l 1
647 519 m 1
 511 0 l 1
 482 0 l 1
 341 497 l 1
 200 0 l 1
 171 0 l 1
 33 519 l 1
 57 519 l 1
 186 21 l 1
 328 519 l 1
 355 519 l 1
 496 21 l 1
 624 519 l 1
 647 519 l 1
EndSplineSet
EndChar
StartChar: uni0176
Encoding: 374 374 309
Width: 494
Flags: W
HStem: 0 21G<237 260 237 237> 661 20G<21 47 47 47 447 473 473 473> 845 24<247 247>
VStem: 237 23<0 270 270 270>
LayerCount: 2
Fore
SplineSet
132 766 m 1
 121 780 l 1
 241 869 l 1
 253 869 l 1
 373 780 l 1
 361 766 l 1
 247 845 l 1
 132 766 l 1
473 681 m 1
 260 271 l 1
 260 0 l 1
 237 0 l 1
 237 270 l 1
 21 681 l 1
 47 681 l 1
 249 292 l 1
 447 681 l 1
 473 681 l 1
EndSplineSet
EndChar
StartChar: Zdotaccent
Encoding: 379 379 314
Width: 509
Flags: W
HStem: 0 22<69 443> 660 21<79 432 79 459> 811 39<249 262>
VStem: 255 21
LayerCount: 2
Fore
SplineSet
255 850 m 0
 269 850 276 840 276 830 c 0
 276 820 269 811 255 811 c 0
 243 811 235 820 235 830 c 0
 235 840 243 850 255 850 c 0
459 681 m 1
 459 662 l 1
 69 22 l 1
 446 22 l 1
 443 0 l 1
 41 0 l 1
 41 21 l 1
 432 660 l 1
 79 660 l 1
 79 681 l 1
 459 681 l 1
EndSplineSet
EndChar
StartChar: zdotaccent
Encoding: 380 380 315
Width: 405
Flags: W
HStem: 0 21<59 364> 499 20<58 346 58 374> 685 39<208 221>
VStem: 214 21
LayerCount: 2
Fore
SplineSet
214 724 m 0
 228 724 235 714 235 704 c 0
 235 694 228 685 214 685 c 0
 202 685 194 694 194 704 c 0
 194 714 202 724 214 724 c 0
374 519 m 1
 374 501 l 1
 59 21 l 1
 366 21 l 1
 364 0 l 1
 31 0 l 1
 31 18 l 1
 346 499 l 1
 58 499 l 1
 58 519 l 1
 374 519 l 1
EndSplineSet
EndChar
StartChar: zcaron
Encoding: 382 382 317
Width: 405
Flags: W
HStem: 0 21<59 364> 499 20<58 346 58 374> 641 24<214 214 214 220 208 214> 716 20G<88 88 340 340>
VStem: 31 343
LayerCount: 2
Fore
SplineSet
328 749 m 1
 340 736 l 1
 220 641 l 1
 208 641 l 1
 88 736 l 1
 99 749 l 1
 214 665 l 1
 328 749 l 1
374 519 m 1
 374 501 l 1
 59 21 l 1
 366 21 l 1
 364 0 l 1
 31 0 l 1
 31 18 l 1
 346 499 l 1
 58 499 l 1
 58 519 l 1
 374 519 l 1
EndSplineSet
EndChar
StartChar: uni017F
Encoding: 383 383 318
Width: 307
Flags: W
HStem: 0 21G<121 143 121 121> 499 20<31 121 31 121> 716 21<215 265 207.5 265.5>
VStem: 121 22<0 499 499 499 519 614 0 617 0 656>
LayerCount: 2
Fore
SplineSet
244 737 m 0
 286 737 327 725 360 706 c 1
 352 689 l 1
 319 706 285 716 246 716 c 0
 184 716 143 686 143 614 c 2
 143 0 l 1
 121 0 l 1
 121 499 l 1
 31 499 l 1
 31 519 l 1
 121 519 l 1
 121 617 l 2
 121 695 171 737 244 737 c 0
EndSplineSet
EndChar
StartChar: uni0181
Encoding: 385 385 320
Width: 629
Flags: W
HStem: 0 21<188 342> 350 20<188 358 358 363 188 358> 660 21<188 306 306 310 188 188>
VStem: 23 22<567.5 606.5 567.5 613.5> 165 23<21 350 370 660> 509 24<469.5 561.5> 544 24<127.5 239>
LayerCount: 2
Fore
SplineSet
404 361 m 1
 492 356 568 301 568 184 c 0xfa
 568 61 481 0 342 0 c 2
 165 0 l 1
 165 661 l 1
 132 661 l 2
 71 661 45 629 45 584 c 0
 45 551 57 529 70 508 c 1
 53 498 l 1
 38 521 23 544 23 584 c 0
 23 643 61 681 135 681 c 2
 306 681 l 2
 450 681 533 624 533 513 c 0xfe
 533 424 480 374 404 361 c 1
310 660 m 2
 188 660 l 1
 188 370 l 1
 358 370 l 2
 448 370 509 427 509 512 c 0xfe
 509 611 438 660 310 660 c 2
343 21 m 2xfa
 465 21 544 71 544 184 c 0
 544 294 468 350 363 350 c 2
 188 350 l 1
 188 21 l 1
 343 21 l 2xfa
EndSplineSet
EndChar
StartChar: uni0188
Encoding: 392 392 327
Width: 464
Flags: W
HStem: -10 21<229 310 229 313> 509 20<229 305.5 219.5 309.5> 717 20<472 511>
VStem: 73 23<176 338.5 176 341.5> 396 22<495 625 479 626 479 663>
LayerCount: 2
Fore
SplineSet
493 737 m 0
 535 737 562 721 582 706 c 1
 571 692 l 1
 551 705 529 717 493 717 c 0
 451 717 418 692 418 625 c 2
 418 479 l 1
 407 466 l 1
 372 492 335 509 284 509 c 0
 174 509 96 420 96 257 c 0
 96 95 175 11 283 11 c 0
 337 11 377 30 411 60 c 1
 423 44 l 1
 387 12 342 -10 284 -10 c 0
 159 -10 73 87 73 257 c 0
 73 426 156 529 283 529 c 0
 328 529 363 518 396 495 c 1
 396 626 l 2
 396 700 436 737 493 737 c 0
EndSplineSet
EndChar
StartChar: uni018B
Encoding: 395 395 330
Width: 562
Flags: W
HStem: 0 21<213 416 277 416 277 439> 384 21<224 416 290 416 290 416> 660 21<125 416 125 439>
VStem: 61 23<137 260 137 265.5> 416 23<21 384 384 384 405 660 660 660>
LayerCount: 2
Fore
SplineSet
439 681 m 1
 439 0 l 1
 276 0 l 2
 150 0 61 63 61 199 c 0
 61 332 147 405 290 405 c 2
 416 405 l 1
 416 660 l 1
 125 660 l 1
 125 681 l 1
 439 681 l 1
277 21 m 2
 416 21 l 1
 416 384 l 1
 289 384 l 2
 159 384 84 321 84 199 c 0
 84 75 160 21 277 21 c 2
EndSplineSet
EndChar
StartChar: uni018C
Encoding: 396 396 331
Width: 569
Flags: W
HStem: -10 21<213.5 306 213.5 307.5> 0 21G<432 451 432 432> 509 20<221 313.5> 711 21<187 429 187 451>
VStem: 73 23<179.5 258 179.5 338> 429 22<89 89 123 418 418 418 446 711 711 711>
LayerCount: 2
Fore
SplineSet
451 732 m 1xbc
 451 0 l 1
 432 0 l 1x7c
 429 89 l 1
 399 36 351 -10 264 -10 c 0
 149 -10 73 89 73 258 c 0
 73 418 147 529 275 529 c 0
 356 529 402 487 429 446 c 1
 429 711 l 1
 187 711 l 1
 187 732 l 1
 451 732 l 1xbc
265 11 m 0xbc
 347 11 394 54 429 123 c 1
 429 418 l 1
 399 465 352 509 275 509 c 0
 167 509 95 413 96 258 c 0
 96 101 162 11 265 11 c 0xbc
EndSplineSet
EndChar
StartChar: uni018E
Encoding: 398 398 333
Width: 494
Flags: W
HStem: 0 21<43 348 43 371 43 348> 349 21<94 348 94 348> 660 21<50 348 50 371>
VStem: 348 23<21 349 349 349 370 660 660 660>
LayerCount: 2
Fore
SplineSet
50 681 m 1
 371 681 l 1
 371 0 l 1
 43 0 l 1
 43 21 l 1
 348 21 l 1
 348 349 l 1
 94 349 l 1
 94 370 l 1
 348 370 l 1
 348 660 l 1
 50 660 l 1
 50 681 l 1
EndSplineSet
EndChar
StartChar: uni0190
Encoding: 400 400 335
Width: 516
Flags: W
HStem: -10 22<220.5 317 220.5 318> 360 20<273 332> 670 21<218.5 306>
VStem: 61 24<136.5 246.5 136.5 250.5> 83 23<479.5 570.5 479.5 575.5>
LayerCount: 2
Fore
SplineSet
268 691 m 0xf0
 348 691 406 661 461 608 c 1
 446 593 l 1
 397 640 343 670 269 670 c 0
 168 670 106 613 106 528 c 0xe8
 106 431 177 380 277 380 c 2
 332 380 l 1
 329 359 l 1
 273 360 l 2
 154 361 85 299 85 194 c 0
 85 79 164 12 277 12 c 0
 357 12 416 44 467 96 c 1
 483 83 l 1
 424 22 359 -10 277 -10 c 0
 151 -10 61 67 61 195 c 0xf0
 61 306 133 363 220 371 c 1
 144 383 83 432 83 527 c 0xe8
 83 624 152 691 268 691 c 0xf0
EndSplineSet
EndChar
StartChar: uni0191
Encoding: 401 401 336
Width: 471
Flags: W
HStem: -197 21<29.5 68 29.5 75.5> 335 21<146 396 146 396> 660 21<146 436 146 146>
VStem: 123 23<-85 335 356 660>
LayerCount: 2
Fore
SplineSet
436 660 m 1
 146 660 l 1
 146 356 l 1
 396 356 l 1
 396 335 l 1
 146 335 l 1
 146 -86 l 2
 146 -160 104 -197 47 -197 c 0
 7 -197 -21 -182 -40 -167 c 1
 -29 -151 l 1
 -10 -165 12 -176 47 -176 c 0
 89 -176 123 -152 123 -85 c 2
 123 681 l 1
 439 681 l 1
 436 660 l 1
EndSplineSet
EndChar
StartChar: florin
Encoding: 402 402 337
Width: 305
Flags: W
HStem: -195 21G<28 28> 499 20<29 118 29 118 140 284> 716 21<213 263 205.5 263.5>
VStem: 118 22<7 499 519 614>
LayerCount: 2
Fore
SplineSet
244 716 m 0
 182 716 140 686 140 614 c 2
 140 519 l 1
 288 519 l 1
 284 499 l 1
 140 499 l 1
 140 6 l 2
 140 -122 105 -155 28 -195 c 1
 21 -178 l 1
 90 -142 118 -111 118 7 c 2
 118 499 l 1
 29 499 l 1
 29 519 l 1
 118 519 l 1
 118 617 l 2
 118 695 169 737 242 737 c 0
 284 737 325 725 358 707 c 1
 349 690 l 1
 317 706 283 716 244 716 c 0
EndSplineSet
EndChar
StartChar: uni0196
Encoding: 406 406 341
Width: 324
Flags: W
HStem: -10 21<190 229 190 231> 661 20G<113 136 136 136>
VStem: 113 23<101 102 102 681>
LayerCount: 2
Fore
SplineSet
288 36 m 1
 299 20 l 1
 279 5 251 -10 211 -10 c 0
 154 -10 113 27 113 101 c 2
 113 681 l 1
 136 681 l 1
 136 102 l 2
 136 36 169 11 211 11 c 0
 247 11 269 22 288 36 c 1
EndSplineSet
EndChar
StartChar: uni019F
Encoding: 415 415 350
Width: 689
Flags: W
HStem: -10 22<271.5 421 271.5 427.5> 337 20<101 588 101 588> 670 21<274 416>
VStem: 78 23<231.5 337 231.5 357 231.5 450.5> 588 23<337 337 357 357>
LayerCount: 2
Fore
SplineSet
344 691 m 0
 505 691 611 569 611 339 c 0
 611 118 511 -10 344 -10 c 0
 185 -10 78 115 78 338 c 0
 78 563 187 691 344 691 c 0
344 670 m 0
 204 670 107 561 101 357 c 1
 588 357 l 1
 583 563 488 670 344 670 c 0
344 12 m 0
 498 12 587 126 588 337 c 1
 101 337 l 1
 101 126 199 12 344 12 c 0
EndSplineSet
EndChar
StartChar: uni01A0
Encoding: 416 416 351
Width: 689
Flags: W
HStem: -10 22<271.5 421 271.5 427.5> 610 14 670 21<272 378.5 265.5 418>
VStem: 78 23<233 446.5 233 451> 579 20<667 700.5> 588 23<233.5 400 229.5 448.5>
LayerCount: 2
Fore
SplineSet
531 610 m 1xf4
 582 551 611 460 611 340 c 0xf4
 611 119 511 -10 344 -10 c 0
 185 -10 78 115 78 339 c 0
 78 563 187 691 344 691 c 0
 413 691 472 668 517 624 c 1
 561 630 579 648 579 686 c 0
 579 715 573 738 565 758 c 1
 582 765 l 1
 591 746 599 720 599 686 c 0xf8
 599 641 575 616 531 610 c 1xf4
344 12 m 0
 498 12 588 127 588 340 c 0
 588 557 492 670 344 670 c 0
 200 670 101 554 101 339 c 0
 101 127 199 12 344 12 c 0
EndSplineSet
EndChar
StartChar: uni01A2
Encoding: 418 418 353
Width: 881
Flags: W
HStem: -192 21G<735 758 735 735> -10 22<271.5 421 271.5 427.5> 670 21<272 372.5 265.5 418>
VStem: 78 23<233 446.5 233 451> 588 23<233.5 408.5 229.5 448.5> 735 23<-192 564 564 565 -192 604>
LayerCount: 2
Fore
SplineSet
639 691 m 0
 714 691 758 652 758 565 c 2
 758 -192 l 1
 735 -192 l 1
 735 564 l 2
 735 644 699 672 639 672 c 0
 587 672 547 655 508 633 c 1
 573 575 611 477 611 340 c 0
 611 119 511 -10 344 -10 c 0
 185 -10 78 115 78 339 c 0
 78 563 187 691 344 691 c 0
 401 691 452 675 493 645 c 1
 535 670 581 691 639 691 c 0
588 340 m 0
 588 557 492 670 344 670 c 0
 200 670 101 554 101 339 c 0
 101 127 199 12 344 12 c 0
 498 12 588 127 588 340 c 0
EndSplineSet
EndChar
StartChar: uni01AA
Encoding: 426 426 361
Width: 262
Flags: W
HStem: -197 20<199 238 199 240> 521 20<33 67.5> 539 20G<122 122> 717 20<31.5 76>
VStem: -42 22<597 654 597 658> 122 22<-86 540 540 540 559 636 636 637>
LayerCount: 2
Fore
SplineSet
297 -152 m 1xbc
 308 -167 l 1
 288 -182 260 -197 220 -197 c 0
 163 -197 122 -160 122 -86 c 2
 122 540 l 1
 104 528 81 521 54 521 c 0xdc
 -2 521 -42 559 -42 626 c 0
 -42 690 -2 737 54 737 c 0
 112 737 144 694 144 637 c 2
 144 -86 l 2
 144 -152 178 -177 220 -177 c 0
 256 -177 278 -166 297 -152 c 1xbc
55 541 m 0
 84 541 104 548 122 559 c 1xbc
 122 636 l 2
 122 686 98 717 54 717 c 0
 9 717 -20 681 -20 627 c 0
 -20 567 11 541 55 541 c 0
EndSplineSet
EndChar
StartChar: uni01AB
Encoding: 427 427 362
Width: 331
Flags: W
HStem: -197 20<210 249 210 256.5> -10 21<197 242> 499 20<28 113 28 113 135 276>
VStem: 113 22<117 118 118 499 519 650 650 650> 305 22<-86 9 9 9>
LayerCount: 2
Fore
SplineSet
319 33 m 1
 327 20 l 1
 327 -86 l 2
 327 -160 286 -197 227 -197 c 0
 187 -197 160 -182 141 -169 c 1
 152 -154 l 1
 171 -166 193 -177 227 -177 c 0
 271 -177 305 -152 305 -86 c 2
 305 9 l 1
 282 -2 258 -10 226 -10 c 0
 156 -10 113 33 113 117 c 2
 113 499 l 1
 28 499 l 1
 28 519 l 1
 113 519 l 1
 113 650 l 1
 135 652 l 1
 135 519 l 1
 279 519 l 1
 276 499 l 1
 135 499 l 1
 135 118 l 2
 135 48 167 11 227 11 c 0
 263 11 291 20 319 33 c 1
EndSplineSet
EndChar
StartChar: uni01AC
Encoding: 428 428 363
Width: 496
Flags: W
HStem: 0 21G<246 269 246 246> 659 22<101.5 483 137 246 269 479 269 269>
VStem: 23 22<567.5 606.5 567.5 613.5> 246 23<0 659 0 659>
LayerCount: 2
Fore
SplineSet
483 681 m 1
 479 659 l 1
 269 659 l 1
 269 0 l 1
 246 0 l 1
 246 659 l 1
 132 659 l 2
 71 659 45 629 45 584 c 0
 45 551 57 529 70 508 c 1
 53 498 l 1
 38 521 23 544 23 584 c 0
 23 643 61 681 137 681 c 2
 483 681 l 1
EndSplineSet
EndChar
StartChar: uni01AE
Encoding: 430 430 365
Width: 476
Flags: W
HStem: -197 21<304 342.5 304 345> 659 22<16 226 16 463 249 249 249 459>
VStem: 226 23<-86 -85 -85 659>
LayerCount: 2
Fore
SplineSet
249 -85 m 2
 249 -152 283 -176 325 -176 c 0
 360 -176 382 -165 401 -151 c 1
 412 -167 l 1
 393 -182 365 -197 325 -197 c 0
 268 -197 226 -160 226 -86 c 2
 226 659 l 1
 16 659 l 1
 16 681 l 1
 463 681 l 1
 459 659 l 1
 249 659 l 1
 249 -85 l 2
EndSplineSet
EndChar
StartChar: uni01B0
Encoding: 432 432 367
Width: 586
Flags: W
HStem: -10 21<221.5 302 221.5 302> 0 21G<439 459 439 439> 446 16<459 459> 446 73<459 459> 499 20G<113 135 135 135 437 459 459 459>
VStem: 113 22<149 151 151 519> 437 22<133 446 0 462 462 519> 517 20<504.5 537.5>
LayerCount: 2
Fore
SplineSet
537 523 m 0x97
 537 474 509 449 459 446 c 1
 459 0 l 1
 439 0 l 1x57
 439 106 l 1
 403 41 345 -10 259 -10 c 0
 167 -10 113 46 113 149 c 2
 113 519 l 1
 135 519 l 1
 135 151 l 2
 135 56 181 11 262 11 c 0
 342 11 396 61 437 133 c 1
 437 519 l 1
 459 519 l 1
 459 462 l 1
 500 468 517 486 517 523 c 0xaf
 517 552 511 575 503 595 c 1
 520 602 l 1
 528 583 537 557 537 523 c 0x97
EndSplineSet
EndChar
StartChar: uni01B5
Encoding: 437 437 372
Width: 509
Flags: W
HStem: 0 22<69 443> 332 21<120 231 120 244 271 388 120 258> 660 21<79 432 79 459>
VStem: 41 418
LayerCount: 2
Fore
SplineSet
459 681 m 1
 459 662 l 1
 271 353 l 1
 388 353 l 1
 388 332 l 1
 258 332 l 1
 69 22 l 1
 446 22 l 1
 443 0 l 1
 41 0 l 1
 41 21 l 1
 231 332 l 1
 120 332 l 1
 120 353 l 1
 244 353 l 1
 432 660 l 1
 79 660 l 1
 79 681 l 1
 459 681 l 1
EndSplineSet
EndChar
StartChar: uni01B8
Encoding: 440 440 375
Width: 472
Flags: W
HStem: -10 22<192.5 290.5 192.5 295> 352 21<204.5 317 266 317 266 343> 661 20<106 435 106 106>
VStem: 50 23<125.5 235 125.5 237.5> 317 26<373 373>
LayerCount: 2
Fore
SplineSet
434 85 m 1
 449 72 l 1
 399 20 344 -10 246 -10 c 0
 127 -10 50 63 50 177 c 0
 50 298 126 373 266 373 c 2
 317 373 l 1
 76 662 l 1
 76 681 l 1
 435 681 l 1
 435 661 l 1
 106 661 l 1
 343 374 l 1
 343 352 l 1
 265 352 l 2
 144 352 73 294 73 176 c 0
 73 75 138 12 247 12 c 0
 334 12 384 34 434 85 c 1
EndSplineSet
EndChar
StartChar: uni01BB
Encoding: 443 443 378
Width: 464
Flags: W
HStem: 0 22<75 401> 272 20<90 267 90 282 308 406 90 293> 652 21<185.5 266>
VStem: 367 23<468.5 548>
LayerCount: 2
Fore
SplineSet
406 272 m 1
 293 272 l 1
 244 209 174 131 75 22 c 1
 405 22 l 1
 401 0 l 1
 47 0 l 1
 47 21 l 1
 147 131 218 210 267 272 c 1
 90 272 l 1
 90 292 l 1
 282 292 l 1
 347 378 367 432 367 504 c 0
 367 592 311 652 221 652 c 0
 150 652 101 621 60 572 c 1
 43 583 l 1
 93 643 146 673 221 673 c 0
 328 673 390 600 390 506 c 0
 390 431 368 373 308 292 c 1
 406 292 l 1
 406 272 l 1
EndSplineSet
EndChar
StartChar: uni01C0
Encoding: 448 448 383
Width: 267
Flags: W
HStem: 0 21G<123 144 123 123> 713 20G<123 123> 716 20G<144 144>
VStem: 123 21<0 733 733 733>
LayerCount: 2
Fore
SplineSet
144 736 m 1xb0
 144 0 l 1
 123 0 l 1
 123 733 l 1xd0
 144 736 l 1xb0
EndSplineSet
EndChar
StartChar: uni01C4
Encoding: 452 452 387
Width: 1103
Flags: W
HStem: 0 22<663 1037> 660 21<146 243 146 146 673 1026> 760 24<849 849 849 855 843 849>
VStem: 123 23<21 660 21 681 21 681> 518 24<215 482.5>
LayerCount: 2
Fore
SplineSet
964 863 m 1
 975 850 l 1
 855 760 l 1
 843 760 l 1
 723 850 l 1
 735 863 l 1
 849 784 l 1
 964 863 l 1
245 681 m 2
 390 681 542 627 542 348 c 0
 542 63 384 0 249 0 c 2
 123 0 l 1
 123 681 l 1
 245 681 l 2
1053 681 m 1
 1053 662 l 1
 663 22 l 1
 1040 22 l 1
 1037 0 l 1
 635 0 l 1
 635 21 l 1
 1026 660 l 1
 673 660 l 1
 673 681 l 1
 1053 681 l 1
243 660 m 2
 146 660 l 1
 146 21 l 1
 250 21 l 2
 380 21 518 82 518 348 c 0
 518 617 376 660 243 660 c 2
EndSplineSet
EndChar
StartChar: uni01CB
Encoding: 459 459 394
Width: 920
Flags: W
HStem: -195 21G<689 689> 0 26<519 519 519 538 510 519> 499 20G<780 802 802 802> 656 25<142 142> 685 39<783.5 796.5>
VStem: 123 22<0 477 0 681> 516 22<205 681 0 681> 780 22<7 519>
LayerCount: 2
Fore
SplineSet
790 724 m 0
 803 724 810 714 810 704 c 0
 810 694 803 685 790 685 c 0
 777 685 770 694 770 704 c 0
 770 714 777 724 790 724 c 0
538 681 m 1xf7
 538 0 l 1
 510 0 l 1
 142 656 l 1
 144 621 145 576 145 477 c 2
 145 0 l 1
 123 0 l 1
 123 681 l 1
 152 681 l 1
 519 26 l 1
 518 66 516 127 516 205 c 2
 516 681 l 1
 538 681 l 1xf7
802 519 m 1
 802 6 l 2
 802 -122 766 -155 689 -195 c 1
 683 -178 l 1
 751 -142 780 -111 780 7 c 2
 780 519 l 1
 802 519 l 1
EndSplineSet
EndChar
StartChar: uni01CD
Encoding: 461 461 396
Width: 557
Flags: W
HStem: 0 21G<28 51 28 28 505 530 505 505> 203 21<128 428 128 435 121 428> 663 18<278 278> 760 24<279 279 279 285 273 279>
VStem: 28 502<0 0>
LayerCount: 2
Fore
SplineSet
285 760 m 1
 273 760 l 1
 153 850 l 1
 164 863 l 1
 279 784 l 1
 393 863 l 1
 405 850 l 1
 285 760 l 1
505 0 m 1
 435 203 l 1
 121 203 l 1
 51 0 l 1
 28 0 l 1
 265 681 l 1
 292 681 l 1
 530 0 l 1
 505 0 l 1
128 224 m 1
 428 224 l 1
 278 663 l 1
 128 224 l 1
EndSplineSet
EndChar
StartChar: uni01CF
Encoding: 463 463 398
Width: 268
Flags: W
HStem: 0 21G<123 146 123 123> 661 20G<123 146 146 146> 760 24<134 134 134 140 128 134>
VStem: 123 23<0 681 0 681>
LayerCount: 2
Fore
SplineSet
248 863 m 1
 260 850 l 1
 140 760 l 1
 128 760 l 1
 8 850 l 1
 19 863 l 1
 134 784 l 1
 248 863 l 1
146 681 m 1
 146 0 l 1
 123 0 l 1
 123 681 l 1
 146 681 l 1
EndSplineSet
EndChar
StartChar: uni01D4
Encoding: 468 468 403
Width: 576
Flags: W
HStem: -10 21<221.5 302 221.5 302> 0 21G<439 459 439 439> 499 20G<113 135 135 135 437 459 459 459> 641 24<287 287 287 293 281 287> 716 20G<161 161 413 413>
VStem: 113 22<149 151 151 519> 437 22<133 519 0 519>
LayerCount: 2
Fore
SplineSet
401 749 m 1xbe
 413 736 l 1
 293 641 l 1
 281 641 l 1
 161 736 l 1
 172 749 l 1
 287 665 l 1
 401 749 l 1xbe
459 519 m 1
 459 0 l 1
 439 0 l 1x7e
 439 106 l 1
 403 41 345 -10 259 -10 c 0
 167 -10 113 46 113 149 c 2
 113 519 l 1
 135 519 l 1
 135 151 l 2
 135 56 181 11 262 11 c 0
 342 11 396 61 437 133 c 1
 437 519 l 1
 459 519 l 1
EndSplineSet
EndChar
StartChar: uni01D9
Encoding: 473 473 408
Width: 640
Flags: W
HStem: -10 22<254.5 387.5 254.5 394> 661 20G<113 136 136 136 505 528 528 528> 742 39<231 243.5 397 409> 791 24<319 319 319 325 313 319>
VStem: 113 23<207 210 210 681> 237 166<742 742 781 781> 505 23<210 681>
LayerCount: 2
Fore
SplineSet
433 894 m 1
 445 881 l 1
 325 791 l 1
 313 791 l 1
 193 881 l 1
 204 894 l 1
 319 815 l 1
 433 894 l 1
237 781 m 0xee
 250 781 257 772 257 762 c 0
 257 751 250 742 237 742 c 0
 225 742 217 751 217 762 c 0
 217 772 225 781 237 781 c 0xee
403 781 m 0
 415 781 423 772 423 762 c 0
 423 751 415 742 403 742 c 0
 391 742 383 751 383 762 c 0
 383 772 391 781 403 781 c 0
528 681 m 1
 528 207 l 2
 528 82 467 -10 321 -10 c 0
 173 -10 113 82 113 207 c 2
 113 681 l 1
 136 681 l 1
 136 210 l 2
 136 93 188 12 321 12 c 0
 454 12 505 95 505 210 c 2
 505 681 l 1
 528 681 l 1
EndSplineSet
EndChar
StartChar: uni01DB
Encoding: 475 475 410
Width: 640
Flags: W
HStem: -10 22<254.5 387.5 254.5 394> 661 20G<113 136 136 136 505 528 528 528> 742 39<231 243 396.5 409> 762 19
VStem: 113 23<207 210 210 681> 382 40<756.5 767> 505 23<210 681>
LayerCount: 2
Fore
SplineSet
251 921 m 1xda
 348 803 l 1
 335 792 l 1
 233 904 l 1
 251 921 l 1xda
237 781 m 0xea
 249 781 257 772 257 762 c 0
 257 751 249 742 237 742 c 0
 225 742 217 751 217 762 c 0
 217 772 225 781 237 781 c 0xea
403 781 m 0xde
 415 781 422 772 422 762 c 0
 422 751 415 742 403 742 c 0
 390 742 382 751 382 762 c 0
 382 772 390 781 403 781 c 0xde
528 681 m 1
 528 207 l 2
 528 82 467 -10 321 -10 c 0
 173 -10 113 82 113 207 c 2
 113 681 l 1
 136 681 l 1
 136 210 l 2
 136 93 188 12 321 12 c 0
 454 12 505 95 505 210 c 2
 505 681 l 1
 528 681 l 1
EndSplineSet
EndChar
StartChar: uni01DC
Encoding: 476 476 411
Width: 576
Flags: W
HStem: -10 21<221.5 302 221.5 302> 0 21G<439 459 439 439> 499 20G<113 135 135 135 437 459 459 459> 662 20<198 210 363.5 376>
VStem: 113 22<149 151 151 519> 349 40<656.5 667.5> 437 22<133 519 0 519>
LayerCount: 2
Fore
SplineSet
218 821 m 1xbe
 315 703 l 1
 302 692 l 1
 200 805 l 1
 218 821 l 1xbe
204 682 m 0
 216 682 224 673 224 662 c 0
 224 651 216 643 204 643 c 0
 192 643 184 651 184 662 c 0
 184 673 192 682 204 682 c 0
370 682 m 0
 382 682 389 673 389 662 c 0
 389 651 382 643 370 643 c 0
 357 643 349 651 349 662 c 0
 349 673 357 682 370 682 c 0
459 519 m 1
 459 0 l 1
 439 0 l 1x7e
 439 106 l 1
 403 41 345 -10 259 -10 c 0
 167 -10 113 46 113 149 c 2
 113 519 l 1
 135 519 l 1
 135 151 l 2
 135 56 181 11 262 11 c 0
 342 11 396 61 437 133 c 1
 437 519 l 1
 459 519 l 1
EndSplineSet
EndChar
StartChar: uni01DD
Encoding: 477 477 412
Width: 530
Flags: W
HStem: -10 21<205 312.5 205 318.5> 253 20<89 435 89 89> 509 20<233 315>
VStem: 66 22<170 245 170 247> 435 22<253 253 273 273>
LayerCount: 2
Fore
SplineSet
264 529 m 0
 384 529 457 441 457 264 c 0
 457 74 378 -10 259 -10 c 0
 138 -10 66 89 66 243 c 0
 66 251 66 264 67 273 c 1
 435 273 l 1
 433 432 366 509 264 509 c 0
 202 509 158 489 111 457 c 1
 99 472 l 1
 145 507 198 529 264 529 c 0
259 11 m 0
 366 11 433 84 435 253 c 1
 89 253 l 2
 88 250 88 247 88 243 c 0
 88 97 151 11 259 11 c 0
EndSplineSet
EndChar
StartChar: uni01DF
Encoding: 479 479 414
Width: 528
Flags: W
HStem: -10 21<181 260.5> 288 20<270 274 274 388> 509 20<232 305> 643 39<166 178 331.5 344> 662 20<166 178 331.5 344> 753 21<152 359 152 359>
VStem: 66 24<103 191.5 103 197> 318 40<656.5 667.5> 388 22<119 288 288 288 308 370 370 372>
LayerCount: 2
Fore
SplineSet
359 774 m 1xee80
 359 753 l 1
 152 753 l 1
 152 774 l 1
 359 774 l 1xee80
172 643 m 0xf680
 160 643 152 651 152 662 c 0xf680
 152 673 160 682 172 682 c 0
 184 682 192 673 192 662 c 0xee80
 192 651 184 643 172 643 c 0xf680
318 662 m 0xef80
 318 673 325 682 338 682 c 0
 350 682 358 673 358 662 c 0
 358 651 350 643 338 643 c 0
 325 643 318 651 318 662 c 0xef80
410 110 m 2xee80
 410 41 423 18 457 6 c 1
 451 -10 l 1
 410 3 392 29 391 91 c 1
 354 25 299 -10 222 -10 c 0
 124 -10 66 52 66 144 c 0
 66 250 147 308 270 308 c 2
 388 308 l 1
 388 370 l 2
 388 460 355 509 255 509 c 0
 209 509 163 497 112 476 c 1
 105 495 l 1
 158 517 205 529 255 529 c 0
 365 529 410 474 410 372 c 2
 410 110 l 2xee80
222 11 m 0
 303 11 354 52 388 119 c 1
 388 288 l 1
 274 288 l 2
 160 288 90 239 90 144 c 0
 90 62 140 11 222 11 c 0
EndSplineSet
EndChar
StartChar: uni01E5
Encoding: 485 485 420
Width: 488
Flags: W
HStem: -197 21<184.5 312.5 184.5 318.5> -69 21<280 436 280 436 458 524> 43 21<176.5 305 218 304> 190 20<231 293 202.5 299.5> 509 20<193 243 189 292> 512 17
VStem: 44 22<-108.5 -58> 66 22<322.5 402 309 409.5> 96 23<110 144.5> 399 23<309.5 397.5 305 404.5> 436 22<-69 -69 -69 -48>
LayerCount: 2
Fore
SplineSet
524 -48 m 1xf9e0
 524 -69 l 1
 458 -69 l 1
 452 -150 386 -197 251 -197 c 0
 107 -197 44 -159 44 -58 c 1
 66 -58 l 1xfa60
 68 -146 118 -176 251 -176 c 0
 374 -176 430 -136 436 -69 c 1
 280 -69 l 1
 280 -48 l 1
 436 -48 l 1
 431 9 383 43 304 43 c 2
 216 43 l 2
 137 43 96 78 96 126 c 0xf9e0
 96 163 120 191 153 212 c 1
 97 241 66 287 66 358 c 0
 66 461 135 529 243 529 c 0
 393 528 422 537 463 550 c 1xf940
 471 526 l 1
 440 518 396 512 318 512 c 1
 382 491 422 439 422 356 c 0xf540
 422 254 354 190 245 190 c 0
 217 190 192 196 171 204 c 1
 139 186 119 161 119 129 c 0
 119 91 147 64 218 64 c 2
 305 64 l 2
 399 64 453 19 458 -48 c 1
 524 -48 l 1xf9e0
88 358 m 0xf940
 88 260 160 210 245 210 c 0
 341 210 399 263 399 356 c 0
 399 453 340 509 244 509 c 0
 142 509 88 446 88 358 c 0xf940
EndSplineSet
EndChar
StartChar: uni01E6
Encoding: 486 486 421
Width: 605
Flags: W
HStem: -10 22<277.5 385.5> 333 21<365 510 365 365> 670 21<288 378.5> 760 24<345 345 345 351 339 345>
VStem: 78 23<233.5 460.5 233.5 464> 510 23<53 333 333 333>
LayerCount: 2
Fore
SplineSet
459 863 m 1
 471 850 l 1
 351 760 l 1
 339 760 l 1
 219 850 l 1
 230 863 l 1
 345 784 l 1
 459 863 l 1
348 691 m 0
 417 691 465 672 516 632 c 1
 503 616 l 1
 455 653 409 670 348 670 c 0
 228 670 101 576 101 345 c 0
 101 122 202 12 353 12 c 0
 419 12 467 28 510 53 c 1
 510 333 l 1
 365 333 l 1
 362 354 l 1
 533 354 l 1
 533 41 l 1
 480 10 418 -10 353 -10 c 0
 189 -10 78 110 78 345 c 0
 78 583 215 691 348 691 c 0
EndSplineSet
EndChar
StartChar: uni01EF
Encoding: 495 495 430
Width: 438
Flags: W
HStem: -197 21<171 264 171 269> 173 21<155 181 130 130> 499 20<40 353 40 380> 641 24<210 210 210 216 204 210> 716 20G<84 84 336 336>
VStem: 130 25<173 194 194 194> 384 23<-51 61>
LayerCount: 2
Fore
SplineSet
216 641 m 1
 204 641 l 1
 84 736 l 1
 95 749 l 1
 210 665 l 1
 324 749 l 1
 336 736 l 1
 216 641 l 1
181 194 m 2
 336 194 407 125 407 2 c 0
 407 -114 332 -197 206 -197 c 0
 126 -197 70 -167 23 -115 c 1
 38 -103 l 1
 86 -154 136 -176 206 -176 c 0
 322 -176 384 -104 384 2 c 0
 384 120 318 173 181 173 c 2
 130 173 l 1
 130 194 l 1
 353 499 l 1
 40 499 l 1
 40 519 l 1
 380 519 l 1
 380 501 l 1
 155 194 l 1
 181 194 l 2
EndSplineSet
EndChar
StartChar: uni01F6
Encoding: 502 502 437
Width: 959
Flags: W
HStem: -10 21<634 716 634 725.5> 0 21G<123 146 123 123> 349 22<146 514 146 514> 499 20G<817 839 839 839> 661 20G<123 146 146 146 514 537 537 537>
VStem: 123 23<0 349 0 371 371 681> 514 23<155 156 156 349 349 349 371 681> 843 23<170.5 312>
LayerCount: 2
Fore
SplineSet
839 519 m 1xbf
 852 445 866 358 866 266 c 0
 866 72 779 -10 672 -10 c 0xbf
 583 -10 514 45 514 155 c 2
 514 349 l 1
 146 349 l 1
 146 0 l 1
 123 0 l 1x7f
 123 681 l 1
 146 681 l 1
 146 371 l 1
 514 371 l 1
 514 681 l 1
 537 681 l 1
 537 156 l 2
 537 55 596 11 672 11 c 0
 760 11 843 75 843 266 c 0
 843 358 830 445 817 519 c 1
 839 519 l 1xbf
EndSplineSet
EndChar
StartChar: Aringacute
Encoding: 506 506 441
Width: 557
Flags: W
HStem: 0 21G<28 51 28 28 505 530 505 505> 203 21<128 428 128 435 121 428> 663 18<278 278> 730 18<260 297.5 260 302.5> 869 18<260 297.5>
VStem: 199 21<789.5 827 789.5 832> 337 21<790 827.5>
LayerCount: 2
Fore
SplineSet
372 981 m 1
 193 907 l 1
 187 922 l 1
 361 1004 l 1
 372 981 l 1
199 808 m 0
 199 856 231 887 279 887 c 0
 327 887 358 856 358 809 c 0
 358 761 326 730 279 730 c 0
 230 730 199 761 199 808 c 0
337 809 m 0
 337 846 316 869 279 869 c 0
 241 869 220 846 220 808 c 0
 220 771 241 748 279 748 c 0
 316 748 337 771 337 809 c 0
505 0 m 1
 435 203 l 1
 121 203 l 1
 51 0 l 1
 28 0 l 1
 265 681 l 1
 292 681 l 1
 530 0 l 1
 505 0 l 1
128 224 m 1
 428 224 l 1
 278 663 l 1
 128 224 l 1
EndSplineSet
EndChar
StartChar: aeacute
Encoding: 509 509 444
Width: 842
Flags: W
HStem: -10 21<181 261 181 261.5 553 626.5> 246 19<411 754 411 774 411 754> 288 20<270 274 274 388> 509 20<232 305 547 647>
VStem: 66 24<103 191.5 103 197> 388 23<246 265 246 288> 754 22<277 292 292 355>
LayerCount: 2
Fore
SplineSet
507 738 m 1
 329 654 l 1
 321 670 l 1
 497 761 l 1
 507 738 l 1
776 284 m 0
 776 270 775 257 774 246 c 1
 411 246 l 1xde
 416 87 490 11 595 11 c 0
 658 11 697 31 742 68 c 1
 754 51 l 1
 709 13 662 -10 595 -10 c 0
 511 -10 447 33 414 111 c 1
 357 24 301 -10 222 -10 c 0
 124 -10 66 52 66 144 c 0
 66 250 147 308 270 308 c 2
 388 308 l 1xfe
 388 370 l 2
 388 460 355 509 255 509 c 0
 209 509 163 497 112 476 c 1
 105 495 l 1
 158 517 205 529 255 529 c 0
 359 529 405 480 410 389 c 1
 441 482 504 529 590 529 c 0
 716 529 776 429 776 284 c 0
754 265 m 1
 754 292 l 2
 754 418 703 509 591 509 c 0
 490 509 414 430 411 265 c 1
 754 265 l 1
222 11 m 0
 300 11 351 49 406 132 c 1
 394 167 388 209 388 255 c 2
 388 288 l 1
 274 288 l 2xfe
 160 288 90 239 90 144 c 0
 90 62 140 11 222 11 c 0
EndSplineSet
EndChar
StartChar: uni0200
Encoding: 512 512 447
Width: 557
Flags: W
HStem: 0 21G<28 51 28 28 505 530 505 505> 203 21<128 428 128 435 121 428> 663 18<278 278>
VStem: 28 502<0 0>
LayerCount: 2
Fore
SplineSet
234 787 m 1
 217 778 l 1
 140 906 l 1
 163 917 l 1
 234 787 l 1
337 790 m 1
 321 782 l 1
 250 904 l 1
 272 916 l 1
 337 790 l 1
505 0 m 1
 435 203 l 1
 121 203 l 1
 51 0 l 1
 28 0 l 1
 265 681 l 1
 292 681 l 1
 530 0 l 1
 505 0 l 1
128 224 m 1
 428 224 l 1
 278 663 l 1
 128 224 l 1
EndSplineSet
EndChar
StartChar: uni0202
Encoding: 514 514 449
Width: 557
Flags: W
HStem: 0 21G<28 51 28 28 505 530 505 505> 203 21<128 428 128 435 121 428> 663 18<278 278> 866 21<255.5 302.5>
VStem: 28 502<0 0>
LayerCount: 2
Fore
SplineSet
279 866 m 0
 232 866 200 841 187 797 c 1
 171 801 l 1
 181 851 221 887 279 887 c 0
 338 887 378 851 387 801 c 1
 371 797 l 1
 359 841 326 866 279 866 c 0
505 0 m 1
 435 203 l 1
 121 203 l 1
 51 0 l 1
 28 0 l 1
 265 681 l 1
 292 681 l 1
 530 0 l 1
 505 0 l 1
128 224 m 1
 428 224 l 1
 278 663 l 1
 128 224 l 1
EndSplineSet
EndChar
StartChar: uni0206
Encoding: 518 518 453
Width: 494
Flags: W
HStem: 0 21<146 451 146 451> 349 21<146 400 146 400> 660 21<146 441 146 146> 866 21<263.5 310.5>
VStem: 123 23<21 349 370 660>
LayerCount: 2
Fore
SplineSet
287 887 m 0
 346 887 386 851 395 801 c 1
 379 797 l 1
 367 841 334 866 287 866 c 0
 240 866 208 841 195 797 c 1
 179 801 l 1
 189 851 229 887 287 887 c 0
444 681 m 1
 441 660 l 1
 146 660 l 1
 146 370 l 1
 400 370 l 1
 400 349 l 1
 146 349 l 1
 146 21 l 1
 451 21 l 1
 451 0 l 1
 123 0 l 1
 123 681 l 1
 444 681 l 1
EndSplineSet
EndChar
StartChar: uni0208
Encoding: 520 520 455
Width: 268
Flags: W
HStem: 0 21G<123 146 123 123> 661 20G<123 146 146 146>
VStem: 123 23<0 681 0 681>
LayerCount: 2
Fore
SplineSet
19 917 m 1
 90 787 l 1
 73 778 l 1
 -4 906 l 1
 19 917 l 1
128 916 m 1
 193 790 l 1
 177 782 l 1
 106 904 l 1
 128 916 l 1
146 681 m 1
 146 0 l 1
 123 0 l 1
 123 681 l 1
 146 681 l 1
EndSplineSet
EndChar
StartChar: uni0209
Encoding: 521 521 456
Width: 258
Flags: W
HStem: 0 21G<118 140 118 118> 499 20G<118 140 140 140>
VStem: 118 22<0 519 0 519>
LayerCount: 2
Fore
SplineSet
23 791 m 1
 94 661 l 1
 77 652 l 1
 0 780 l 1
 23 791 l 1
132 790 m 1
 197 664 l 1
 181 656 l 1
 110 778 l 1
 132 790 l 1
140 519 m 1
 140 0 l 1
 118 0 l 1
 118 519 l 1
 140 519 l 1
EndSplineSet
EndChar
StartChar: uni020A
Encoding: 522 522 457
Width: 268
Flags: W
HStem: 0 21G<123 146 123 123> 661 20G<123 146 146 146> 866 21<110.5 157.5>
VStem: 123 23<0 681 0 681>
LayerCount: 2
Fore
SplineSet
134 887 m 0
 193 887 233 851 242 801 c 1
 226 797 l 1
 214 841 181 866 134 866 c 0
 87 866 55 841 42 797 c 1
 26 801 l 1
 36 851 76 887 134 887 c 0
146 681 m 1
 146 0 l 1
 123 0 l 1
 123 681 l 1
 146 681 l 1
EndSplineSet
EndChar
StartChar: uni020E
Encoding: 526 526 461
Width: 689
Flags: W
HStem: -10 22<271.5 421 271.5 427.5> 670 21<272 418> 866 21<321.5 368.5>
VStem: 78 23<233 446.5 233 451> 588 23<233.5 448.5>
LayerCount: 2
Fore
SplineSet
345 887 m 0
 404 887 444 851 453 801 c 1
 437 797 l 1
 425 841 392 866 345 866 c 0
 298 866 266 841 253 797 c 1
 237 801 l 1
 247 851 287 887 345 887 c 0
344 691 m 0
 505 691 611 569 611 340 c 0
 611 119 511 -10 344 -10 c 0
 185 -10 78 115 78 339 c 0
 78 563 187 691 344 691 c 0
344 670 m 0
 200 670 101 554 101 339 c 0
 101 127 199 12 344 12 c 0
 498 12 588 127 588 340 c 0
 588 557 492 670 344 670 c 0
EndSplineSet
EndChar
StartChar: uni020F
Encoding: 527 527 462
Width: 560
Flags: W
HStem: -10 21<222.5 336.5 222.5 343> 509 20<225 338.5> 704 21<257.5 304.5>
VStem: 73 23<180 340.5 180 345> 465 23<180.5 341.5>
LayerCount: 2
Fore
SplineSet
281 725 m 0
 340 725 380 689 389 639 c 1
 373 635 l 1
 361 679 328 704 281 704 c 0
 234 704 202 679 189 635 c 1
 173 639 l 1
 183 689 223 725 281 725 c 0
281 529 m 0
 408 529 488 434 488 262 c 0
 488 89 406 -10 280 -10 c 0
 151 -10 73 91 73 259 c 0
 73 431 156 529 281 529 c 0
281 509 m 0
 169 509 96 422 96 259 c 0
 96 101 165 11 280 11 c 0
 393 11 465 99 465 262 c 0
 465 421 396 509 281 509 c 0
EndSplineSet
EndChar
StartChar: uni0211
Encoding: 529 529 464
Width: 362
Flags: W
HStem: 0 21G<118 140 118 118> 499 20G<118 137 137 137> 503 20G<345 345> 509 20<255 303>
VStem: 118 19.5
LayerCount: 2
Fore
SplineSet
195 661 m 1x98
 178 652 l 1
 101 780 l 1
 124 791 l 1
 195 661 l 1x98
298 664 m 1
 282 656 l 1
 211 778 l 1
 233 790 l 1
 298 664 l 1
294 529 m 0
 317 529 333 526 345 523 c 1xa8
 340 504 l 1
 327 507 312 509 294 509 c 0x98
 216 509 173 456 140 344 c 1
 140 0 l 1
 118 0 l 1
 118 519 l 1
 137 519 l 1xc8
 138 390 l 1
 167 485 215 529 294 529 c 0
EndSplineSet
EndChar
StartChar: uni0213
Encoding: 531 531 466
Width: 362
Flags: W
HStem: 0 21G<118 140 118 118> 499 20G<118 137 137 137> 503 20G<345 345> 509 20<255 303> 704 21<205.5 252.5>
VStem: 118 19.5
LayerCount: 2
Fore
SplineSet
229 704 m 0x9c
 182 704 150 679 137 635 c 1
 121 639 l 1
 131 689 171 725 229 725 c 0
 288 725 328 689 337 639 c 1
 321 635 l 1
 309 679 276 704 229 704 c 0x9c
294 529 m 0
 317 529 333 526 345 523 c 1xac
 340 504 l 1
 327 507 312 509 294 509 c 0x9c
 216 509 173 456 140 344 c 1
 140 0 l 1
 118 0 l 1
 118 519 l 1
 137 519 l 1xcc
 138 390 l 1
 167 485 215 529 294 529 c 0
EndSplineSet
EndChar
StartChar: uni0217
Encoding: 535 535 470
Width: 576
Flags: W
HStem: -10 21<221.5 302 221.5 302> 0 21G<439 459 439 439> 499 20G<113 135 135 135 437 459 459 459> 704 21<263.5 310.5>
VStem: 113 22<149 151 151 519> 437 22<133 519 0 519>
LayerCount: 2
Fore
SplineSet
287 725 m 0xbc
 346 725 386 689 395 639 c 1
 379 635 l 1
 367 679 334 704 287 704 c 0
 240 704 208 679 195 635 c 1
 179 639 l 1
 189 689 229 725 287 725 c 0xbc
459 519 m 1
 459 0 l 1
 439 0 l 1x7c
 439 106 l 1
 403 41 345 -10 259 -10 c 0
 167 -10 113 46 113 149 c 2
 113 519 l 1
 135 519 l 1
 135 151 l 2
 135 56 181 11 262 11 c 0
 342 11 396 61 437 133 c 1
 437 519 l 1
 459 519 l 1
EndSplineSet
EndChar
StartChar: uni021C
Encoding: 540 540 475
Width: 493
Flags: W
HStem: 350 20<221 221> 670 21<191.5 279>
VStem: 387 24<471 566.5> 409 23<142.5 249.5>
LayerCount: 2
Fore
SplineSet
229 691 m 0xe0
 344 691 411 623 411 520 c 0xe0
 411 422 350 374 273 361 c 1
 363 352 432 302 432 204 c 0
 432 69 342 -17 67 -80 c 1
 65 -58 l 1
 324 0 409 81 409 204 c 0xd0
 409 295 341 351 221 350 c 2
 162 349 l 1
 165 370 l 1
 216 370 l 2
 316 370 387 421 387 521 c 0
 387 612 329 670 229 670 c 0
 154 670 99 640 46 593 c 1
 33 608 l 1
 90 661 149 691 229 691 c 0xe0
EndSplineSet
EndChar
StartChar: uni021E
Encoding: 542 542 477
Width: 660
Flags: W
HStem: 0 21G<123 146 123 123 514 537 514 514> 349 22<146 514 146 514> 661 20G<123 146 146 146 514 537 537 537> 760 24<328 328 328 334 322 328>
VStem: 123 23<0 349 0 371 371 681> 514 23<0 349 349 349 371 681 0 681>
LayerCount: 2
Fore
SplineSet
442 863 m 1
 454 850 l 1
 334 760 l 1
 322 760 l 1
 202 850 l 1
 213 863 l 1
 328 784 l 1
 442 863 l 1
514 0 m 1
 514 349 l 1
 146 349 l 1
 146 0 l 1
 123 0 l 1
 123 681 l 1
 146 681 l 1
 146 371 l 1
 514 371 l 1
 514 681 l 1
 537 681 l 1
 537 0 l 1
 514 0 l 1
EndSplineSet
EndChar
StartChar: uni021F
Encoding: 543 543 478
Width: 581
Flags: W
HStem: 0 21G<118 140 118 118 447 469 447 447> 509 20<289 369.5> 713 20G<118 118> 716 20G<140 140> 811 24<295 295 295 301 289 295>
VStem: 118 22<0 384 414 733 733 733> 447 22<0 367 367 369 0 413>
LayerCount: 2
Fore
SplineSet
301 811 m 1xde
 289 811 l 1
 169 901 l 1
 180 914 l 1
 295 835 l 1
 409 914 l 1
 421 901 l 1
 301 811 l 1xde
330 529 m 0
 424 529 469 469 469 369 c 2
 469 0 l 1
 447 0 l 1
 447 367 l 2
 447 459 409 509 330 509 c 0
 246 509 189 459 140 384 c 1
 140 0 l 1
 118 0 l 1
 118 733 l 1xee
 140 736 l 1
 140 414 l 1
 187 484 248 529 330 529 c 0
EndSplineSet
EndChar
StartChar: uni0220
Encoding: 544 544 479
Width: 651
Flags: W
HStem: -192 21G<512 535 512 512> 0 21G<123 146 123 123> 547 20G<145 145> 661 20G<123 143 143 143> 670 21<317.5 412>
VStem: 123 21<0 681 681 681> 512 23<-192 494 494 497 -192 554.5>
LayerCount: 2
Fore
SplineSet
367 691 m 0xee
 472 691 535 626 535 497 c 2
 535 -192 l 1
 512 -192 l 1
 512 494 l 2
 512 615 457 670 367 670 c 0xee
 267 670 200 612 146 538 c 1
 146 0 l 1
 123 0 l 1
 123 681 l 1
 143 681 l 1xf6
 145 567 l 1
 198 638 268 691 367 691 c 0xee
EndSplineSet
EndChar
StartChar: uni0224
Encoding: 548 548 483
Width: 509
Flags: W
HStem: -197 21<328 367 328 374.5> 0 22<69 421> 660 21<79 432 79 459>
VStem: 421 23<-85 0 0 0>
LayerCount: 2
Fore
SplineSet
459 681 m 1
 459 662 l 1
 69 22 l 1
 444 22 l 1
 444 -86 l 2
 444 -160 403 -197 346 -197 c 0
 306 -197 278 -182 258 -167 c 1
 269 -151 l 1
 288 -165 310 -176 346 -176 c 0
 388 -176 421 -152 421 -85 c 2
 421 0 l 1
 41 0 l 1
 41 21 l 1
 432 660 l 1
 79 660 l 1
 79 681 l 1
 459 681 l 1
EndSplineSet
EndChar
StartChar: uni0225
Encoding: 549 549 484
Width: 405
Flags: W
HStem: -197 20<248.5 287.5 248.5 295> 0 21<59 343> 499 20<58 346 58 374>
VStem: 343 22<-86 0 0 0>
LayerCount: 2
Fore
SplineSet
374 519 m 1
 374 501 l 1
 59 21 l 1
 365 21 l 1
 365 -86 l 2
 365 -160 324 -197 266 -197 c 0
 226 -197 198 -182 179 -167 c 1
 190 -152 l 1
 209 -166 231 -177 266 -177 c 0
 309 -177 343 -152 343 -86 c 2
 343 0 l 1
 31 0 l 1
 31 18 l 1
 346 499 l 1
 58 499 l 1
 58 519 l 1
 374 519 l 1
EndSplineSet
EndChar
StartChar: uni0226
Encoding: 550 550 485
Width: 557
Flags: W
HStem: 0 21G<28 51 28 28 505 530 505 505> 203 21<128 428 128 435 121 428> 663 18<278 278> 811 19
VStem: 258 41<825 835>
LayerCount: 2
Fore
SplineSet
278 811 m 0
 266 811 258 820 258 830 c 0
 258 840 266 850 278 850 c 0
 292 850 299 840 299 830 c 0
 299 820 292 811 278 811 c 0
505 0 m 1
 435 203 l 1
 121 203 l 1
 51 0 l 1
 28 0 l 1
 265 681 l 1
 292 681 l 1
 530 0 l 1
 505 0 l 1
128 224 m 1
 428 224 l 1
 278 663 l 1
 128 224 l 1
EndSplineSet
EndChar
StartChar: uni0228
Encoding: 552 552 487
Width: 494
Flags: W
HStem: -212 20<278 307 278 313> -194 21G<223 223> -90 16 0 21<146 268 285 451 285 285> 349 21<146 400 146 400> 660 21<146 441 146 146>
VStem: 123 23<21 349 370 660> 265.5 19 352 23<-158 -123.5>
LayerCount: 2
Fore
SplineSet
451 0 m 1x7f80
 285 0 l 1
 284 -74 l 1
 344 -77 375 -99 375 -140 c 0
 375 -187 335 -212 291 -212 c 0
 260 -212 240 -204 223 -194 c 1
 233 -177 l 1
 247 -186 265 -192 291 -192 c 0xbf80
 323 -192 352 -176 352 -140 c 0
 352 -107 325 -91 263 -90 c 1
 268 0 l 1
 123 0 l 1
 123 681 l 1
 444 681 l 1
 441 660 l 1
 146 660 l 1
 146 370 l 1
 400 370 l 1
 400 349 l 1
 146 349 l 1
 146 21 l 1
 451 21 l 1
 451 0 l 1x7f80
EndSplineSet
EndChar
StartChar: uni0229
Encoding: 553 553 488
Width: 526
Flags: W
HStem: -212 20<280 309 280 315> -194 21G<225 225> -90 16 -10 21<270 270 287 287> 246 19<96 439 96 459 96 439> 509 20<224.5 331>
VStem: 73 23<246 246 246 265 246 340.5> 267.5 19 354 23<-158 -123.5> 439 22<277 292 292 355>
LayerCount: 2
Fore
SplineSet
461 284 m 0x7fc0
 461 270 460 257 459 246 c 1
 96 246 l 1
 101 87 175 11 280 11 c 0
 342 11 382 31 427 68 c 1
 439 51 l 1
 396 14 350 -8 287 -10 c 1
 286 -74 l 1
 346 -77 377 -99 377 -140 c 0
 377 -187 337 -212 293 -212 c 0
 262 -212 242 -204 225 -194 c 1
 235 -177 l 1
 249 -186 267 -192 293 -192 c 0xbfc0
 325 -192 354 -176 354 -140 c 0
 354 -107 327 -91 265 -90 c 1
 270 -10 l 1
 150 -5 73 92 73 255 c 0
 73 426 152 529 272 529 c 0
 400 529 461 429 461 284 c 0x7fc0
439 265 m 1
 439 292 l 2
 439 418 388 509 274 509 c 0
 175 509 99 430 96 265 c 1
 439 265 l 1
EndSplineSet
EndChar
StartChar: uni022A
Encoding: 554 554 489
Width: 689
Flags: W
HStem: -10 22<271.5 421 271.5 427.5> 670 21<272 418> 742 39<256 268 421.5 434> 762 19 850 21<244 451 244 451>
VStem: 78 23<233 446.5 233 451> 407 40<756.5 767> 588 23<233.5 448.5>
LayerCount: 2
Fore
SplineSet
451 850 m 1xdd
 244 850 l 1
 244 871 l 1
 451 871 l 1
 451 850 l 1xdd
262 781 m 0xed
 274 781 282 772 282 762 c 0
 282 751 274 742 262 742 c 0
 250 742 242 751 242 762 c 0
 242 772 250 781 262 781 c 0xed
428 781 m 0xdf
 440 781 447 772 447 762 c 0
 447 751 440 742 428 742 c 0
 415 742 407 751 407 762 c 0
 407 772 415 781 428 781 c 0xdf
344 691 m 0
 505 691 611 569 611 340 c 0
 611 119 511 -10 344 -10 c 0
 185 -10 78 115 78 339 c 0
 78 563 187 691 344 691 c 0
344 670 m 0
 200 670 101 554 101 339 c 0
 101 127 199 12 344 12 c 0
 498 12 588 127 588 340 c 0
 588 557 492 670 344 670 c 0
EndSplineSet
EndChar
StartChar: uni022B
Encoding: 555 555 490
Width: 560
Flags: W
HStem: -10 21<222.5 336.5 222.5 343> 509 20<225 338.5> 643 39<192 204 357.5 370> 753 21<178 385 178 385>
VStem: 73 23<180 340.5 180 345> 198 166<643 643 682 682> 465 23<180.5 341.5>
LayerCount: 2
Fore
SplineSet
385 753 m 1
 178 753 l 1
 178 774 l 1
 385 774 l 1
 385 753 l 1
198 682 m 0
 210 682 218 673 218 662 c 0
 218 651 210 643 198 643 c 0
 186 643 178 651 178 662 c 0
 178 673 186 682 198 682 c 0
364 682 m 0
 376 682 384 673 384 662 c 0
 384 651 376 643 364 643 c 0
 351 643 344 651 344 662 c 0
 344 673 351 682 364 682 c 0
281 529 m 0
 408 529 488 434 488 262 c 0
 488 89 406 -10 280 -10 c 0
 151 -10 73 91 73 259 c 0
 73 431 156 529 281 529 c 0
281 509 m 0
 169 509 96 422 96 259 c 0
 96 101 165 11 280 11 c 0
 393 11 465 99 465 262 c 0
 465 421 396 509 281 509 c 0
EndSplineSet
EndChar
StartChar: uni022F
Encoding: 559 559 494
Width: 560
Flags: W
HStem: -10 21<222.5 336.5 222.5 343> 509 20<225 338.5> 685 39<274 287>
VStem: 73 23<180 340.5 180 345> 280 21 465 23<180.5 341.5>
LayerCount: 2
Fore
SplineSet
280 724 m 0
 294 724 301 714 301 704 c 0
 301 694 294 685 280 685 c 0
 268 685 260 694 260 704 c 0
 260 714 268 724 280 724 c 0
281 529 m 0
 408 529 488 434 488 262 c 0
 488 89 406 -10 280 -10 c 0
 151 -10 73 91 73 259 c 0
 73 431 156 529 281 529 c 0
281 509 m 0
 169 509 96 422 96 259 c 0
 96 101 165 11 280 11 c 0
 393 11 465 99 465 262 c 0
 465 421 396 509 281 509 c 0
EndSplineSet
EndChar
StartChar: uni0236
Encoding: 566 566 501
Width: 334
Flags: W
HStem: -10 21<216.5 268.5 216.5 274.5> 162 20<246.5 297.5> 499 20<28 113 28 113 135 276>
VStem: 113 22<116 499 519 650 650 650> 345 22<68.5 115.5>
LayerCount: 2
Fore
SplineSet
276 182 m 0
 333 182 367 144 367 96 c 0
 367 31 311 -10 238 -10 c 0
 195 -10 160 5 138 33 c 1
 92 -55 l 1
 75 -47 l 1
 126 52 l 1
 118 70 113 91 113 116 c 2
 113 499 l 1
 28 499 l 1
 28 519 l 1
 113 519 l 1
 113 650 l 1
 135 652 l 1
 135 519 l 1
 279 519 l 1
 276 499 l 1
 135 499 l 1
 135 116 l 2
 135 101 137 88 140 77 c 1
 173 140 212 182 276 182 c 0
238 11 m 0
 299 11 345 41 345 96 c 0
 345 135 319 162 276 162 c 0
 217 162 183 122 149 54 c 1
 165 25 195 11 238 11 c 0
EndSplineSet
EndChar
StartChar: uni0238
Encoding: 568 568 503
Width: 836
Flags: W
HStem: -10 21<208.5 291 208.5 293 551.5 632.5> 0 21G<412 428 412 412> 509 20<216 297.5 555 636> 713 20G<409 409> 716 20G<431 431>
VStem: 73 23<179.5 258 179.5 338> 409 22<90 92 123 409 439 733 733 733> 740 23<183.5 344>
LayerCount: 2
Fore
SplineSet
588 529 m 0xaf
 698 529 763 435 763 264 c 0
 763 94 697 -10 584 -10 c 0xaf
 515 -10 461 36 431 92 c 1
 428 0 l 1
 412 0 l 1x6f
 409 90 l 1
 379 36 332 -10 254 -10 c 0
 149 -10 73 89 73 258 c 0
 73 418 147 529 265 529 c 0
 331 529 379 489 409 439 c 1
 409 733 l 1xb7
 431 736 l 1
 431 437 l 1
 466 489 522 529 588 529 c 0xaf
255 11 m 0
 327 11 374 54 409 123 c 1
 409 412 l 1
 372 468 330 509 265 509 c 0
 167 509 95 413 96 258 c 0
 96 101 162 11 255 11 c 0
583 11 m 0
 682 11 740 103 740 264 c 0
 740 424 684 509 588 509 c 0
 521 509 472 468 431 409 c 1
 431 123 l 1
 469 53 520 11 583 11 c 0
EndSplineSet
EndChar
StartChar: uni023A
Encoding: 570 570 505
Width: 557
Flags: W
HStem: 0 21G<28 51 28 28 505 530 505 505> 203 21<128 243 121 248 266 428 128 261> 663 18<278 278> 712 20G<399 399> 717 20G<383 383>
VStem: 28 502<0 0>
LayerCount: 2
Fore
SplineSet
530 0 m 1xec
 505 0 l 1
 435 203 l 1
 261 203 l 1
 190 -66 l 1
 173 -62 l 1
 243 203 l 1
 121 203 l 1
 51 0 l 1
 28 0 l 1
 265 681 l 1
 292 681 l 1
 335 557 l 1
 383 737 l 1xec
 399 732 l 1xf4
 346 527 l 1
 530 0 l 1xec
128 224 m 1
 248 224 l 1
 327 521 l 1
 278 663 l 1
 128 224 l 1
266 224 m 1
 428 224 l 1
 337 492 l 1
 266 224 l 1
EndSplineSet
EndChar
StartChar: uni023E
Encoding: 574 574 509
Width: 476
Flags: W
HStem: 0 21G<226 249 226 226> 659 22<16 226 16 327 249 249 249 321 344 459 16 338> 712 20G<359 359> 717 20G<343 343>
VStem: 226 23<0 269 269 269 331 349 410 659>
LayerCount: 2
Fore
SplineSet
459 659 m 1xd8
 338 659 l 1
 249 349 l 1
 249 0 l 1
 226 0 l 1
 226 269 l 1
 130 -66 l 1
 113 -62 l 1
 226 331 l 1
 226 659 l 1
 16 659 l 1
 16 681 l 1
 327 681 l 1
 343 737 l 1xd8
 359 732 l 1xe8
 344 681 l 1
 463 681 l 1
 459 659 l 1xd8
249 410 m 1
 321 659 l 1
 249 659 l 1
 249 410 l 1
EndSplineSet
EndChar
StartChar: uni023F
Encoding: 575 575 510
Width: 455
Flags: W
HStem: -197 20<286.5 337 286.5 340.5> -10 21<214.5 270 193 277.5> 509 20<191 259>
VStem: 71 23<370.5 434 370.5 439> 374 23<94.5 171.5>
LayerCount: 2
Fore
SplineSet
324 -177 m 0
 350 -177 369 -169 385 -157 c 1
 396 -171 l 1
 378 -186 357 -197 324 -197 c 0
 218 -197 239 -64 53 56 c 1
 63 70 l 1
 115 38 157 11 229 11 c 0
 311 11 374 55 374 134 c 0
 374 209 339 236 226 267 c 0
 116 296 71 331 71 401 c 0
 71 477 141 529 229 529 c 0
 291 529 337 511 383 474 c 1
 370 458 l 1
 326 492 288 509 230 509 c 0
 152 509 94 467 94 401 c 0
 94 340 133 313 236 285 c 0
 353 253 397 220 397 134 c 0
 397 48 326 -10 229 -10 c 0
 200 -10 173 -4 145 7 c 1
 239 -70 249 -177 324 -177 c 0
EndSplineSet
EndChar
StartChar: uni0243
Encoding: 579 579 514
Width: 582
Flags: W
HStem: 0 21<141 295> 183 21<26 118 26 118 141 333> 350 20<141 311 311 316 141 311> 660 21<141 259 259 263 141 141>
VStem: 118 23<21 183 21 183 21 183 204 350 370 660> 462 24<469.5 561.5> 497 24<127.5 239>
LayerCount: 2
Fore
SplineSet
357 361 m 1
 445 356 521 301 521 184 c 0xfa
 521 61 434 0 295 0 c 2
 118 0 l 1
 118 183 l 1
 26 183 l 1
 26 204 l 1
 118 204 l 1
 118 681 l 1
 259 681 l 2
 403 681 486 624 486 513 c 0xfe
 486 424 433 374 357 361 c 1
263 660 m 2
 141 660 l 1
 141 370 l 1
 311 370 l 2
 401 370 462 427 462 512 c 0xfe
 462 611 391 660 263 660 c 2
296 21 m 2xfa
 418 21 497 71 497 184 c 0
 497 294 421 350 316 350 c 2
 141 350 l 1
 141 204 l 1
 333 204 l 1
 333 183 l 1
 141 183 l 1
 141 21 l 1
 296 21 l 2xfa
EndSplineSet
EndChar
StartChar: uni0246
Encoding: 582 582 517
Width: 494
Flags: W
HStem: 0 21<146 190 213 451 146 208> 349 21<146 282 146 287 305 400 146 299> 660 21<146 146 146 363 386 441 123 381> 712 20G<399 399> 717 20G<383 383>
VStem: 123 23<21 21 21 349 370 660>
LayerCount: 2
Fore
SplineSet
213 21 m 1xec
 451 21 l 1
 451 0 l 1
 208 0 l 1
 190 -66 l 1
 173 -62 l 1
 190 0 l 1
 123 0 l 1
 123 681 l 1
 369 681 l 1
 383 737 l 1xec
 399 732 l 1xf4
 386 681 l 1
 444 681 l 1
 441 660 l 1
 381 660 l 1
 305 370 l 1
 400 370 l 1
 400 349 l 1
 299 349 l 1
 213 21 l 1xec
146 660 m 1
 146 370 l 1
 287 370 l 1
 363 660 l 1
 146 660 l 1
146 21 m 1
 195 21 l 1
 282 349 l 1
 146 349 l 1
 146 21 l 1
EndSplineSet
EndChar
StartChar: uni0247
Encoding: 583 583 518
Width: 526
Flags: W
HStem: -10 21<267.5 311> 246 19<96 254 96 259 276 439 96 271> 501 20G<330 330> 509 20<224.5 282.5 212 283>
VStem: 73 23<246 246 246 265 246 340.5> 439 22<277 292 292 341 277 341.5>
LayerCount: 2
Fore
SplineSet
459 246 m 1xdc
 271 246 l 1
 210 24 l 1
 231 15 255 11 280 11 c 0
 342 11 382 31 427 68 c 1
 439 51 l 1
 394 13 347 -10 280 -10 c 0
 253 -10 227 -5 205 3 c 1
 185 -66 l 1
 169 -62 l 1
 189 11 l 1
 116 47 73 132 73 255 c 0
 73 426 152 529 272 529 c 0xdc
 293 529 312 526 330 521 c 1
 347 586 l 1
 363 582 l 1
 344 516 l 1xec
 423 485 461 398 461 284 c 0
 461 270 460 257 459 246 c 1xdc
274 509 m 0
 175 509 99 430 96 265 c 1
 259 265 l 1
 324 502 l 1
 309 507 292 509 274 509 c 0
439 292 m 2
 439 391 408 468 339 497 c 1
 276 265 l 1
 439 265 l 1
 439 292 l 2
195 32 m 1
 254 246 l 1
 96 246 l 1
 99 135 137 64 195 32 c 1
EndSplineSet
EndChar
StartChar: uni0249
Encoding: 585 585 520
Width: 287
Flags: W
HStem: -195 21G<42 42> 242 21<22 132 22 132 154 266> 499 20G<132 154 154 154> 685 19
VStem: 122 41<699 709> 132 22<7 242 263 519>
LayerCount: 2
Fore
SplineSet
142 685 m 0xf8
 130 685 122 694 122 704 c 0
 122 714 130 724 142 724 c 0
 156 724 163 714 163 704 c 0
 163 694 156 685 142 685 c 0xf8
266 263 m 1xf4
 266 242 l 1
 154 242 l 1
 154 6 l 2
 154 -122 118 -155 42 -195 c 1
 35 -178 l 1
 104 -142 132 -111 132 7 c 2
 132 242 l 1
 22 242 l 1
 22 263 l 1
 132 263 l 1
 132 519 l 1
 154 519 l 1
 154 263 l 1
 266 263 l 1xf4
EndSplineSet
EndChar
StartChar: uni024A
Encoding: 586 586 521
Width: 648
Flags: W
HStem: -197 21<580 619 580 621> -10 22<261.5 361.5> 661 20G<506 525 525 525> 670 21<263.5 364 257 364.5>
VStem: 78 23<224.5 441.5 224.5 446> 503 22<-86 -85 -85 73 73 73 102 584 584 584>
LayerCount: 2
Fore
SplineSet
678 -151 m 1xdc
 689 -167 l 1
 669 -182 641 -197 601 -197 c 0
 544 -197 503 -160 503 -86 c 2
 503 73 l 1
 460 17 399 -10 324 -10 c 0
 185 -10 78 108 78 329 c 0
 78 563 187 691 327 691 c 0
 401 691 461 664 504 612 c 1xdc
 506 681 l 1
 525 681 l 1xec
 525 -85 l 2
 525 -152 559 -176 601 -176 c 0
 637 -176 659 -165 678 -151 c 1xdc
324 12 m 0
 402 12 462 43 503 102 c 1
 503 584 l 1
 462 639 402 670 327 670 c 0
 200 670 101 554 101 329 c 0
 101 120 199 12 324 12 c 0
EndSplineSet
EndChar
StartChar: uni024B
Encoding: 587 587 522
Width: 569
Flags: W
HStem: -197 21<485 510.5 485 510.5> -10 21<214 306.5 214 308.5> 499 20G<432 451 451 451> 509 20<223.5 314.5>
VStem: 73 23<179.5 258 179.5 338> 429 22<-113 88 88 88 121 418 418 418>
LayerCount: 2
Fore
SplineSet
542 -168 m 1xdc
 549 -187 l 1
 536 -193 519 -197 502 -197 c 0
 458 -197 429 -170 429 -113 c 2
 429 88 l 1
 400 36 352 -10 265 -10 c 0
 149 -10 73 89 73 258 c 0
 73 418 147 529 275 529 c 0
 357 529 403 486 430 446 c 1xdc
 432 519 l 1
 451 519 l 1xec
 451 -114 l 2
 451 -155 466 -176 504 -176 c 0
 517 -176 530 -173 542 -168 c 1xdc
266 11 m 0
 347 11 393 53 429 121 c 1
 429 418 l 1
 400 465 353 509 276 509 c 0
 171 509 95 413 96 258 c 0
 96 101 162 11 266 11 c 0
EndSplineSet
EndChar
StartChar: uni024C
Encoding: 588 588 523
Width: 568
Flags: W
HStem: 0 21G<118 141 118 118 496 524 496 496> 324 21<26 118 26 118 141 283 283 308> 660 21<141 265 141 141>
VStem: 118 23<0 324 0 324 345 660> 468 24<448.5 553>
LayerCount: 2
Fore
SplineSet
524 0 m 1
 496 0 l 1
 308 324 l 1
 141 324 l 1
 141 0 l 1
 118 0 l 1
 118 324 l 1
 26 324 l 1
 26 345 l 1
 118 345 l 1
 118 681 l 1
 267 681 l 2
 427 681 492 616 492 504 c 0
 492 393 424 344 333 327 c 1
 524 0 l 1
283 345 m 2
 393 345 468 393 468 504 c 0
 468 602 415 660 265 660 c 2
 141 660 l 1
 141 345 l 1
 283 345 l 2
EndSplineSet
EndChar
StartChar: uni024D
Encoding: 589 589 524
Width: 372
Flags: W
HStem: 0 21G<128 150 128 128> 272 19<21 128 21 128 150 265> 499 20G<128 147 147 147> 503 20G<355 355> 509 20<265 313>
VStem: 128 22<0 272 0 272 291 344>
LayerCount: 2
Fore
SplineSet
304 529 m 0xcc
 327 529 343 526 355 523 c 1xd4
 350 504 l 1
 337 507 322 509 304 509 c 0xcc
 226 509 183 456 150 344 c 1
 150 291 l 1
 265 291 l 1
 265 272 l 1
 150 272 l 1
 150 0 l 1
 128 0 l 1
 128 272 l 1
 21 272 l 1
 21 291 l 1
 128 291 l 1
 128 519 l 1
 147 519 l 1xe4
 148 390 l 1
 177 485 225 529 304 529 c 0xcc
EndSplineSet
EndChar
StartChar: Beta
Encoding: 914 914 528
Width: 587
Flags: W
HStem: 0 21<146 299> 350 20<146 316 316 321 146 316> 660 21<146 264 264 267 146 146>
VStem: 123 23<21 350 370 660> 467 23<469.5 561.5> 502 23<127.5 239>
LayerCount: 2
Fore
SplineSet
362 361 m 1
 450 356 525 301 525 184 c 0xf4
 525 61 438 0 299 0 c 2
 123 0 l 1
 123 681 l 1
 264 681 l 2
 408 681 490 624 490 513 c 0xfc
 490 424 438 374 362 361 c 1
267 660 m 2
 146 660 l 1
 146 370 l 1
 316 370 l 2
 406 370 467 427 467 512 c 0xfc
 467 611 396 660 267 660 c 2
300 21 m 2xf4
 422 21 502 71 502 184 c 0
 502 294 426 350 321 350 c 2
 146 350 l 1
 146 21 l 1
 300 21 l 2xf4
EndSplineSet
EndChar
StartChar: Epsilon
Encoding: 917 917 531
Width: 494
Flags: W
HStem: 0 21<146 451 146 451> 349 21<146 400 146 400> 660 21<146 441 146 146>
VStem: 123 23<21 349 370 660>
LayerCount: 2
Fore
SplineSet
444 681 m 1
 441 660 l 1
 146 660 l 1
 146 370 l 1
 400 370 l 1
 400 349 l 1
 146 349 l 1
 146 21 l 1
 451 21 l 1
 451 0 l 1
 123 0 l 1
 123 681 l 1
 444 681 l 1
EndSplineSet
EndChar
StartChar: Zeta
Encoding: 918 918 532
Width: 509
Flags: W
HStem: 0 22<69 443> 660 21<79 432 79 459>
VStem: 41 418
LayerCount: 2
Fore
SplineSet
459 681 m 1
 459 662 l 1
 69 22 l 1
 446 22 l 1
 443 0 l 1
 41 0 l 1
 41 21 l 1
 432 660 l 1
 79 660 l 1
 79 681 l 1
 459 681 l 1
EndSplineSet
EndChar
StartChar: Kappa
Encoding: 922 922 536
Width: 510
Flags: W
HStem: 0 21G<123 146 123 123 478 478 478 506> 661 20G<123 146 146 146 463 490 490 490>
VStem: 123 23<0 681 0 681>
LayerCount: 2
Fore
SplineSet
146 681 m 1
 146 0 l 1
 123 0 l 1
 123 681 l 1
 146 681 l 1
490 681 m 1
 178 367 l 1
 506 0 l 1
 478 0 l 1
 149 367 l 1
 463 681 l 1
 490 681 l 1
EndSplineSet
EndChar
StartChar: Xi
Encoding: 926 926 540
Width: 483
Flags: W
HStem: 0 23<56 426 56 426> 349 22<113 371 113 371> 660 21<56 414 56 416>
VStem: 56 370<0 23 0 23>
LayerCount: 2
Fore
SplineSet
416 681 m 1
 414 660 l 1
 56 660 l 1
 56 681 l 1
 416 681 l 1
371 371 m 1
 371 349 l 1
 113 349 l 1
 113 371 l 1
 371 371 l 1
426 23 m 1
 426 0 l 1
 56 0 l 1
 56 23 l 1
 426 23 l 1
EndSplineSet
EndChar
StartChar: uni03A0
Encoding: 928 928 542
Width: 656
Flags: W
HStem: 0 21G<123 146 123 123 511 533 511 511> 660 21<146 511 146 146>
VStem: 123 23<0 660 0 681 0 681> 511 22<0 660 660 660>
LayerCount: 2
Fore
SplineSet
533 681 m 1
 533 0 l 1
 511 0 l 1
 511 660 l 1
 146 660 l 1
 146 0 l 1
 123 0 l 1
 123 681 l 1
 533 681 l 1
EndSplineSet
EndChar
StartChar: Sigma
Encoding: 931 931 544
Width: 485
Flags: W
HStem: 0 21<86 432 86 432> 660 21<86 432 86 86>
VStem: 292 24<339 339>
LayerCount: 2
Fore
SplineSet
432 681 m 1
 432 660 l 1
 86 660 l 1
 316 344 l 1
 316 334 l 1
 86 21 l 1
 432 21 l 1
 432 0 l 1
 53 0 l 1
 53 12 l 1
 292 339 l 1
 53 669 l 1
 53 681 l 1
 432 681 l 1
EndSplineSet
EndChar
StartChar: uni03A5
Encoding: 933 933 546
Width: 494
Flags: W
HStem: 0 21G<237 260 237 237> 661 20G<21 47 47 47 447 473 473 473>
VStem: 237 23<0 270 270 270>
LayerCount: 2
Fore
SplineSet
473 681 m 1
 260 271 l 1
 260 0 l 1
 237 0 l 1
 237 270 l 1
 21 681 l 1
 47 681 l 1
 249 292 l 1
 447 681 l 1
 473 681 l 1
EndSplineSet
EndChar
StartChar: Psi
Encoding: 936 936 549
Width: 648
Flags: W
HStem: 0 21G<312 335 312 312> 210 21<312 312> 661 20G<48 71 71 71 312 335 335 335 577 600 600 600>
VStem: 48 23<426 428 428 681> 312 23<0 210 0 210 231 681> 577 23<428 681>
LayerCount: 2
Fore
SplineSet
577 681 m 1
 600 681 l 1
 600 426 l 2
 600 289 508 214 335 210 c 1
 335 0 l 1
 312 0 l 1
 312 210 l 1
 141 214 48 288 48 426 c 2
 48 681 l 1
 71 681 l 1
 71 428 l 2
 71 302 155 235 312 231 c 1
 312 681 l 1
 335 681 l 1
 335 231 l 1
 494 235 577 303 577 428 c 2
 577 681 l 1
EndSplineSet
EndChar
StartChar: alpha
Encoding: 945 945 551
Width: 594
Flags: W
HStem: -10 21<199.5 287.5 199.5 293.5> -3 21G<520 520> 499 20G<492 516 516 516> 509 20<211 301.5>
VStem: 73 23<176 340 176 341>
LayerCount: 2
Fore
SplineSet
257 529 m 0x98
 351 529 404 477 435 297 c 1
 492 519 l 1
 516 519 l 1
 447 267 l 1
 488 69 l 2
 496 32 510 22 527 16 c 1
 520 -3 l 1
 495 4 476 16 466 61 c 2x68
 433 224 l 1
 400 55 341 -10 246 -10 c 0
 137 -10 73 80 73 262 c 0
 73 420 143 529 257 529 c 0x98
258 509 m 0
 164 509 96 418 96 262 c 0
 96 90 153 11 246 11 c 0
 329 11 388 69 425 265 c 1
 390 454 345 509 258 509 c 0
EndSplineSet
EndChar
StartChar: beta
Encoding: 946 946 552
Width: 574
Flags: W
HStem: -197 21G<118 118> -192 21G<141 141> -10 21<283 369 282 373> 389 10 399 10 716 21<253.5 341.5>
VStem: 118 23<-192 73 99 540> 447 23<570 570> 493 23<198 198>
LayerCount: 2
Fore
SplineSet
307 399 m 1x7680
 427 397 517 328 516 198 c 0
 515 64 426 -10 320 -10 c 0
 246 -10 188 15 141 73 c 1
 141 -192 l 1x7680
 118 -197 l 1
 118 541 l 2
 118 668 193 737 300 737 c 0
 395 737 469 678 470 570 c 0xaf80
 471 465 408 408 307 399 c 1x7680
320 11 m 0
 418 11 494 82 493 198 c 0x7680
 492 322 405 389 268 389 c 2
 218 389 l 1
 221 409 l 1
 270 409 l 2
 348 409 448 445 447 570 c 0x7780
 446 669 383 716 300 716 c 0
 207 716 141 660 141 540 c 2
 141 99 l 1
 193 36 244 11 320 11 c 0
EndSplineSet
EndChar
StartChar: gamma
Encoding: 947 947 553
Width: 440
Flags: W
HStem: -194 21G<225 225> 504 20G<39 39 394 394>
VStem: 188 22.75
LayerCount: 2
Fore
SplineSet
39 524 m 1
 93 454 154 328 221 38 c 1
 394 524 l 1
 418 518 l 1
 234 16 l 2
 205 -63 204 -117 225 -194 c 1
 206 -196 l 1
 182 -124 181 -70 209 11 c 1
 136 304 77 439 18 517 c 1
 39 524 l 1
EndSplineSet
EndChar
StartChar: uni03B5
Encoding: 949 949 555
Width: 444
Flags: W
HStem: -10 21<198.5 281.5 198.5 283> 263 20<196 309 251 306> 509 20<207 281>
VStem: 66 22<97 178.5 97 180.5> 87 22<363.5 429.5 363.5 437>
LayerCount: 2
Fore
SplineSet
250 529 m 0xf0
 319 529 365 508 400 484 c 1
 387 468 l 1
 351 493 310 509 252 509 c 0
 162 509 109 464 109 395 c 0xe8
 109 332 161 283 251 283 c 2
 309 283 l 1
 306 263 l 1
 248 263 l 2
 144 263 88 220 88 137 c 0
 88 57 152 11 245 11 c 0
 318 11 357 32 399 67 c 1
 411 52 l 1
 370 16 322 -10 244 -10 c 0
 141 -10 66 45 66 137 c 0xf0
 66 224 123 267 203 274 c 1
 126 288 87 331 87 395 c 0xe8
 87 479 156 529 250 529 c 0xf0
EndSplineSet
EndChar
StartChar: zeta
Encoding: 950 950 556
Width: 359
Flags: W
HStem: -196 21G<251 251> 711 21<49 239 46 372>
VStem: 53 23<196 335 196 336> 344 23<-90.5 -41.5>
LayerCount: 2
Fore
SplineSet
372 732 m 1
 376 712 l 1
 202 566 76 419 76 251 c 0
 76 141 116 101 221 62 c 0
 330 21 367 -7 367 -63 c 0
 367 -120 328 -160 251 -196 c 1
 241 -180 l 1
 302 -151 344 -118 344 -63 c 0
 344 -20 320 3 208 45 c 0
 108 82 53 125 53 251 c 0
 53 421 180 573 348 712 c 1
 320 711 287 711 239 711 c 2
 46 711 l 1
 49 732 l 1
 372 732 l 1
EndSplineSet
EndChar
StartChar: theta
Encoding: 952 952 558
Width: 552
Flags: W
HStem: -10 21<215 335 215 344> 359 20<96 456 96 456> 716 21<218.5 337>
VStem: 73 23<241.5 359 241.5 379 241.5 492.5> 456 23<359 359 379 379>
LayerCount: 2
Fore
SplineSet
278 737 m 0
 412 737 479 613 479 369 c 0
 479 112 414 -10 274 -10 c 0
 138 -10 73 111 73 368 c 0
 73 617 146 737 278 737 c 0
278 716 m 0
 159 716 98 608 96 379 c 1
 456 379 l 1
 455 607 396 716 278 716 c 0
274 11 m 0
 396 11 454 121 456 359 c 1
 96 359 l 1
 96 124 156 11 274 11 c 0
EndSplineSet
EndChar
StartChar: iota
Encoding: 953 953 559
Width: 256
Flags: W
HStem: -5 21G<178 178> 499 20G<113 135 135 135>
VStem: 113 22<106 519>
LayerCount: 2
Fore
SplineSet
135 519 m 1
 135 106 l 2
 135 50 148 29 185 14 c 1
 178 -5 l 1
 129 14 113 42 113 106 c 2
 113 519 l 1
 135 519 l 1
EndSplineSet
EndChar
StartChar: uni03BB
Encoding: 955 955 561
Width: 458
Flags: W
HStem: -5 21G<64 64 434 434> 0 21G<43 43> 499 20G<226 236 236 236> 716 20G<88 88>
VStem: 43 412<0 4>
LayerCount: 2
Fore
SplineSet
88 736 m 1x78
 200 709 231 646 258 511 c 0
 326 167 389 90 455 4 c 1
 434 -5 l 1
 368 82 306 162 239 497 c 1
 64 -5 l 1xb8
 43 0 l 1
 226 519 l 1
 236 519 l 1
 211 634 184 694 85 719 c 1
 88 736 l 1x78
EndSplineSet
EndChar
StartChar: nu
Encoding: 957 957 563
Width: 440
Flags: W
HStem: 0 19<217 217 217 229 203 217> 503 20G<396 396> 504 20G<39 39>
VStem: 18 400<517 518>
LayerCount: 2
Fore
SplineSet
39 524 m 1xb0
 94 453 152 313 217 19 c 1
 396 523 l 1
 418 518 l 1xd0
 229 0 l 1
 203 0 l 1
 135 297 77 439 18 517 c 1
 39 524 l 1xb0
EndSplineSet
EndChar
StartChar: xi
Encoding: 958 958 564
Width: 411
Flags: W
HStem: -196 21G<280 280> 432 20<207 326 272 323> 671 20G<413 413> 714 21<219 297>
VStem: 63 23<203.5 308 203.5 318> 103 22<542 619 541.5 627> 373 23<-90 -39>
LayerCount: 2
Fore
SplineSet
266 735 m 0
 331 735 371 718 413 691 c 1xfa
 402 674 l 1
 361 700 326 714 268 714 c 0
 170 714 125 656 125 582 c 0xde
 125 501 179 452 272 452 c 2
 326 452 l 1
 323 432 l 1
 267 432 l 2
 147 432 86 357 86 259 c 0
 86 148 135 114 253 69 c 0
 364 27 396 -4 396 -62 c 0
 396 -120 357 -160 280 -196 c 1
 270 -180 l 1
 331 -151 373 -118 373 -62 c 0
 373 -16 353 9 243 52 c 0
 131 95 63 128 63 259 c 0xda
 63 377 139 437 224 443 c 1
 148 456 103 502 103 582 c 0xde
 103 672 165 735 266 735 c 0
EndSplineSet
EndChar
StartChar: pi
Encoding: 960 960 566
Width: 575
Flags: W
HStem: -5 21G<478 478> 0 21G<141 163 141 141> 498 21<110 113 113 141 163 412 163 163 434 519 434 434>
VStem: 141 22<0 498 0 498> 412 22<106 498>
LayerCount: 2
Fore
SplineSet
519 498 m 1x78
 434 498 l 1
 434 106 l 2
 434 50 448 29 484 14 c 1
 478 -5 l 1xb8
 428 14 412 42 412 106 c 2
 412 498 l 1
 163 498 l 1
 163 0 l 1
 141 0 l 1
 141 498 l 1
 113 498 l 2
 79 498 65 497 43 489 c 1
 37 508 l 1
 59 517 78 519 110 519 c 2
 519 519 l 1
 519 498 l 1x78
EndSplineSet
EndChar
StartChar: sigma1
Encoding: 962 962 568
Width: 451
Flags: W
HStem: -196 21G<277 277> 509 20<229 309.5>
VStem: 73 23<206 343.5 206 346.5> 370 23<-90 -39.5>
LayerCount: 2
Fore
SplineSet
283 529 m 0
 339 529 379 514 418 479 c 1
 405 465 l 1
 372 493 335 509 284 509 c 0
 174 509 96 420 96 267 c 0
 96 145 151 94 263 54 c 0
 358 20 393 -4 393 -61 c 0
 393 -120 354 -160 277 -196 c 1
 268 -180 l 1
 328 -151 370 -118 370 -62 c 0
 370 -17 348 2 250 37 c 0
 135 78 73 135 73 267 c 0
 73 426 156 529 283 529 c 0
EndSplineSet
EndChar
StartChar: tau
Encoding: 964 964 570
Width: 436
Flags: W
HStem: -5 21G<266 266> 498 21<80 83 83 200 222 420 222 222>
VStem: 200 22<106 498>
LayerCount: 2
Fore
SplineSet
420 498 m 1
 222 498 l 1
 222 106 l 2
 222 50 236 29 272 14 c 1
 266 -5 l 1
 216 14 200 42 200 106 c 2
 200 498 l 1
 83 498 l 2
 50 498 36 497 14 489 c 1
 8 508 l 1
 29 517 48 519 80 519 c 2
 420 519 l 1
 420 498 l 1
EndSplineSet
EndChar
StartChar: uni03C5
Encoding: 965 965 571
Width: 557
Flags: W
HStem: -10 21<232 314 232 323.5> 499 20G<113 135 135 135 415 437 437 437>
VStem: 113 22<155 156 156 519> 441 23<170.5 312>
LayerCount: 2
Fore
SplineSet
437 519 m 1
 450 445 464 358 464 266 c 0
 464 72 377 -10 270 -10 c 0
 181 -10 113 45 113 155 c 2
 113 519 l 1
 135 519 l 1
 135 156 l 2
 135 55 194 11 270 11 c 0
 358 11 441 75 441 266 c 0
 441 358 428 445 415 519 c 1
 437 519 l 1
EndSplineSet
EndChar
StartChar: uni03C6
Encoding: 966 966 572
Width: 703
Flags: W
HStem: -196 21G<337 337> -192 21G<359 359> -10 20<337 337> 499 20G<144 166 166 166> 510 19<439 515>
VStem: 88 23<158.5 302> 337 22<-192 -10 -192 -10 -192 -10 10 350> 603 23<172 356>
LayerCount: 2
Fore
SplineSet
626 264 m 0x6f
 626 76 555 -3 359 -10 c 1
 359 -192 l 1x6f
 337 -196 l 1
 337 -10 l 1
 167 0 88 70 88 244 c 0
 88 360 116 448 144 519 c 1
 166 519 l 1xb7
 140 454 111 363 111 244 c 0
 111 73 189 19 337 10 c 1
 337 355 l 2
 337 479 389 529 473 529 c 0
 567 529 626 464 626 264 c 0x6f
359 10 m 1
 530 16 603 80 603 264 c 0
 603 448 557 510 473 510 c 0
 405 510 359 474 359 350 c 2
 359 10 l 1
EndSplineSet
EndChar
StartChar: chi
Encoding: 967 967 573
Width: 419
Flags: W
HStem: -194 21G<37 37 382 382> 501 20G<357 357> 504 20G<33 33>
VStem: 11 391
LayerCount: 2
Fore
SplineSet
220 182 m 1xb0
 402 -188 l 1
 382 -194 l 1
 209 163 l 1
 37 -194 l 1
 15 -191 l 1
 198 183 l 1
 115 377 69 451 11 516 c 1
 33 524 l 1xb0
 88 460 132 389 209 201 c 1
 357 521 l 1
 381 519 l 1xd0
 220 182 l 1xb0
EndSplineSet
EndChar
StartChar: omega
Encoding: 969 969 575
Width: 767
Flags: W
HStem: -10 21<214 282.5 214 285 482 549> 499 20G<143 166 166 166 604 627 627 627>
VStem: 88 23<148 288 148 296> 372 23<177 350 350 350> 657 23<143.5 287>
LayerCount: 2
Fore
SplineSet
627 519 m 1
 651 459 680 356 680 235 c 0
 680 40 596 -10 516 -10 c 0
 443 -10 391 31 384 125 c 1
 372 31 320 -10 250 -10 c 0
 157 -10 88 58 88 236 c 0
 88 356 116 450 143 519 c 1
 166 519 l 1
 134 437 111 341 111 235 c 0
 111 61 179 11 249 11 c 0
 316 11 372 53 372 177 c 2
 372 350 l 1
 395 354 l 1
 395 176 l 2
 395 51 450 11 514 11 c 0
 584 11 657 54 657 233 c 0
 657 341 633 437 604 519 c 1
 627 519 l 1
EndSplineSet
EndChar
StartChar: uni03D1
Encoding: 977 977 577
Width: 528
Flags: W
HStem: -10 21<198 300.5 198 307> 419 21<197 432 268 432 268 433 456 499 456 456> 716 21<187.5 298.5>
VStem: 66 22<533.5 614.5 533.5 619> 84 22<155 156 156 338> 433 23<401 419 259.5 419>
LayerCount: 2
Fore
SplineSet
499 440 m 1xec
 499 419 l 1
 456 419 l 1
 456 401 l 2
 456 118 379 -10 235 -10 c 0
 145 -10 84 45 84 155 c 2
 84 338 l 1
 106 338 l 1
 106 156 l 2xec
 106 55 161 11 235 11 c 0
 366 11 433 131 433 401 c 2
 433 419 l 1
 268 419 l 2
 126 419 66 480 66 576 c 0xf4
 66 662 127 737 235 737 c 0
 375 737 447 624 455 440 c 1
 499 440 l 1xec
268 440 m 2
 432 440 l 1
 424 613 362 716 235 716 c 0
 140 716 88 653 88 576 c 0xf4
 88 491 140 440 268 440 c 2
EndSplineSet
EndChar
StartChar: uni03D2
Encoding: 978 978 578
Width: 514
Flags: W
HStem: 0 21G<237 237 237 260> 661 20G<21 47 47 47> 672 19<477.5 510.5>
VStem: 237 23<0 270 0 270>
LayerCount: 2
Fore
SplineSet
237 0 m 1xb0
 237 270 l 1
 21 681 l 1
 47 681 l 1xd0
 249 290 l 1
 399 614 l 2
 424 667 450 691 495 691 c 0
 532 691 555 675 576 654 c 1
 565 641 l 1
 543 660 526 672 495 672 c 0
 460 672 442 656 417 604 c 2
 260 270 l 1
 260 0 l 1
 237 0 l 1xb0
EndSplineSet
EndChar
StartChar: uni03D7
Encoding: 983 983 586
Width: 588
Flags: W
HStem: -197 20<400 439 400 446.5> -6 20 0 21G<121 121> 499 20G<467 467> 504 20G<78 78> 506 20G<442 442>
VStem: 121 22<347 413 413 441> 445 22<77 105 105 171> 494 22<-86 2 2 2>
LayerCount: 2
Fore
SplineSet
467 105 m 2xc7
 467 49 480 28 516 14 c 1
 516 -86 l 2
 516 -160 476 -197 417 -197 c 0
 377 -197 349 -182 331 -169 c 1
 342 -154 l 1
 361 -166 383 -177 417 -177 c 0
 461 -177 494 -152 494 -86 c 2
 494 2 l 1xc780
 457 21 445 49 445 105 c 0
 445 237 446 453 447 495 c 1
 147 -6 l 1xc7
 121 0 l 1
 121 413 l 2
 121 469 108 491 71 505 c 1xa7
 78 524 l 1xcb
 127 506 143 478 143 413 c 0
 143 281 143 67 142 24 c 1
 442 526 l 1xc7
 467 519 l 1xd3
 467 105 l 2xc7
EndSplineSet
EndChar
StartChar: uni03F0
Encoding: 1008 1008 582
Width: 589
Flags: W
HStem: -6 21G<147 147 510 510> 0 21G<121 121> 499 20G<467 467> 504 20G<78 78> 506 20G<442 442>
VStem: 121 22<347 413 413 441> 445 22<77 105 105 171>
LayerCount: 2
Fore
SplineSet
467 105 m 2x4e
 467 49 480 28 517 13 c 1
 510 -6 l 1
 461 13 445 41 445 105 c 0
 445 237 446 453 447 495 c 1
 147 -6 l 1x8e
 121 0 l 1
 121 413 l 2
 121 469 108 491 71 505 c 1x4e
 78 524 l 1x56
 127 506 143 478 143 413 c 0
 143 281 143 67 142 24 c 1
 442 526 l 1x4e
 467 519 l 1x66
 467 105 l 2x4e
EndSplineSet
EndChar
StartChar: uni03F1
Encoding: 1009 1009 583
Width: 559
Flags: W
HStem: -197 21G<397 397> 22 21<256.5 342 256.5 349> 509 20<239.5 347.5>
VStem: 108 22<15 117 148 295> 458 23<203 350.5>
LayerCount: 2
Fore
SplineSet
276 -117 m 0
 373 -132 401 -153 419 -190 c 1
 397 -197 l 1
 379 -164 356 -151 267 -136 c 0
 152 -118 108 -80 108 15 c 2
 108 298 l 2
 108 431 168 529 295 529 c 0
 416 529 481 427 481 280 c 0
 481 113 405 22 293 22 c 0
 220 22 164 61 130 117 c 1
 130 14 l 2
 130 -69 169 -100 276 -117 c 0
294 509 m 0
 185 509 130 425 130 295 c 2
 130 148 l 1
 166 82 221 43 292 43 c 0
 392 43 458 126 458 280 c 0
 458 421 401 509 294 509 c 0
EndSplineSet
EndChar
StartChar: uni03F2
Encoding: 1010 1010 587
Width: 504
Flags: W
HStem: -10 21<244 335 244 338> 509 20<244 334.5>
VStem: 73 23<176 338.5 176 341.5>
LayerCount: 2
Fore
SplineSet
303 529 m 0
 369 529 409 514 458 479 c 1
 445 464 l 1
 403 493 365 509 304 509 c 0
 184 509 96 420 96 257 c 0
 96 95 185 11 303 11 c 0
 367 11 407 30 451 59 c 1
 463 44 l 1
 417 12 372 -10 304 -10 c 0
 169 -10 73 87 73 257 c 0
 73 426 166 529 303 529 c 0
EndSplineSet
EndChar
StartChar: uni03F4
Encoding: 1012 1012 585
Width: 689
Flags: W
HStem: -10 22<271.5 421 271.5 427.5> 340 21<207 482 207 482> 670 21<272 418>
VStem: 78 23<233 446.5 233 451> 588 23<233.5 448.5>
LayerCount: 2
Fore
SplineSet
344 691 m 0
 505 691 611 569 611 340 c 0
 611 119 511 -10 344 -10 c 0
 185 -10 78 115 78 339 c 0
 78 563 187 691 344 691 c 0
344 670 m 0
 200 670 101 554 101 339 c 0
 101 127 199 12 344 12 c 0
 498 12 588 127 588 340 c 0
 588 557 492 670 344 670 c 0
482 361 m 1
 482 340 l 1
 207 340 l 1
 207 361 l 1
 482 361 l 1
EndSplineSet
EndChar
StartChar: uni03F5
Encoding: 1013 1013 580
Width: 473
Flags: W
HStem: -10 21<228 308.5 228 310.5> 258 20<96 363 96 363> 509 20<233 310.5>
VStem: 73 23<258 258 258 278 258 345.5>
LayerCount: 2
Fore
SplineSet
414 58 m 1
 425 41 l 1
 386 12 341 -10 280 -10 c 0
 158 -10 73 87 73 263 c 0
 73 428 160 529 286 529 c 0
 339 529 379 514 422 480 c 1
 409 463 l 1
 371 494 335 509 286 509 c 0
 180 509 102 427 96 278 c 1
 363 278 l 1
 363 258 l 1
 96 258 l 1
 97 94 176 11 280 11 c 0
 337 11 373 29 414 58 c 1
EndSplineSet
EndChar
StartChar: uni03F6
Encoding: 1014 1014 587
Width: 467
Flags: W
HStem: -10 20<169 258 169 265.5> 259 20<119 372 119 372> 509 20<187.5 261>
VStem: 372 22<259 259 279 279>
LayerCount: 2
Fore
SplineSet
216 529 m 0
 325 529 394 457 394 265 c 0
 394 92 327 -10 204 -10 c 0
 132 -10 87 16 48 48 c 1
 60 64 l 1
 95 35 137 10 201 10 c 0
 315 10 371 100 372 259 c 1
 119 259 l 1
 119 279 l 1
 372 279 l 1
 368 451 305 509 217 509 c 0
 158 509 117 490 77 460 c 1
 66 476 l 1
 108 509 154 529 216 529 c 0
EndSplineSet
EndChar
StartChar: uni210A
Encoding: 8458 8458 588
Width: 556
Flags: W
HStem: -197 18<231.5 323.5 231.5 330> 10 21<206.5 299 206.5 301> 499 20G<425 444 444 444> 509 20<214 306.5>
VStem: 66 22<194.5 340.5 194.5 343> 422 22<-6 -5 -5 110 110 110 143 416 416 416>
LayerCount: 2
Fore
SplineSet
425 519 m 1xec
 444 519 l 1xec
 444 -5 l 2
 444 -121 399 -197 261 -197 c 0
 198 -197 142 -180 105 -158 c 1
 113 -143 l 1
 150 -164 203 -179 260 -179 c 0
 387 -179 422 -111 422 -6 c 2
 422 110 l 1
 393 57 345 10 257 10 c 0
 142 10 66 109 66 268 c 0
 66 418 140 529 267 529 c 0
 349 529 396 486 423 445 c 1xdc
 425 519 l 1xec
258 31 m 0
 340 31 386 74 422 143 c 1
 422 416 l 1
 393 464 345 509 268 509 c 0xdc
 160 509 88 413 88 268 c 0
 88 121 155 31 258 31 c 0
EndSplineSet
EndChar
StartChar: uni2116
Encoding: 8470 8470 590
Width: 1078
Flags: W
HStem: 0 21<661 991 661 991> 277 20<782 871.5 782 877> 661 20<784 873.5>
VStem: 123 22<0 477 0 681> 516 22<205 681 0 681> 659 24<421 539 421 543> 972 23<421 539.5>
LayerCount: 2
Fore
SplineSet
538 681 m 1
 538 0 l 1
 510 0 l 1
 142 656 l 1
 144 621 145 576 145 477 c 2
 145 0 l 1
 123 0 l 1
 123 681 l 1
 152 681 l 1
 519 26 l 1
 518 66 516 127 516 205 c 2
 516 681 l 1
 538 681 l 1
827 681 m 0
 930 681 995 611 995 481 c 0
 995 351 928 277 826 277 c 0
 723 277 659 352 659 479 c 0
 659 607 726 681 827 681 c 0
828 661 m 0
 740 661 683 599 683 479 c 0
 683 363 737 297 827 297 c 0
 916 297 972 361 972 481 c 0
 972 598 919 661 828 661 c 0
661 0 m 1
 661 21 l 1
 991 21 l 1
 991 0 l 1
 661 0 l 1
EndSplineSet
EndChar
StartChar: uni2122
Encoding: 8482 8482 592
Width: 849
Flags: W
HStem: 347 20<562 562 562 572 552 562> 662 19<48 181 48 335 201 332 201 201>
VStem: 181 20<302 662 302 662> 394 16.5 702 16 713 16.5
LayerCount: 2
Fore
SplineSet
335 681 m 1xf4
 332 662 l 1
 201 662 l 1
 201 302 l 1
 181 302 l 1
 181 662 l 1
 48 662 l 1
 48 681 l 1
 335 681 l 1xf4
718 681 m 1
 741 302 l 1
 720 302 l 1xf4
 706 526 l 2
 704 564 702 607 702 653 c 1
 701 653 l 1xf8
 572 347 l 1
 552 347 l 1
 422 658 l 1
 421 658 l 1
 421 615 420 584 417 527 c 2
 404 302 l 1
 383 302 l 1
 405 681 l 1
 432 681 l 1
 562 367 l 1
 695 681 l 1
 718 681 l 1
EndSplineSet
EndChar
StartChar: Omega
Encoding: 8486 8486 592
Width: 689
Flags: W
HStem: 0 22<102 238 102 276 102 238 452 587> 670 21<272 418>
VStem: 78 23<252 446.5 251.5 451> 102 174<0 22 0 22> 413 174<0 22 0 22> 588 23<251.5 448.5>
LayerCount: 2
Fore
SplineSet
344 691 m 0
 505 691 611 569 611 340 c 0xe4
 611 161 552 68 452 22 c 1
 587 22 l 1
 587 0 l 1
 413 0 l 1xe8
 413 22 l 1
 526 66 588 163 588 340 c 0
 588 557 492 670 344 670 c 0
 200 670 101 554 101 339 c 0xe4
 101 164 164 70 276 22 c 1
 276 0 l 1
 102 0 l 1
 102 22 l 1xd4
 238 22 l 1
 133 73 78 165 78 339 c 0
 78 563 187 691 344 691 c 0
EndSplineSet
EndChar
StartChar: uni212E
Encoding: 8494 8494 594
Width: 946
Flags: W
HStem: -13 8<412 540.5> 351 8<219 728 219 875 219 728> 705 8<414.5 531.5>
VStem: 71 148<245 351 76 359 359 450.5> 728 147<351 618>
LayerCount: 2
Fore
SplineSet
473 713 m 0
 687 713 870 559 875 351 c 1
 219 351 l 1
 219 76 l 1
 262 39 354 -5 470 -5 c 0
 627 -5 709 47 775 116 c 1
 786 116 l 1
 705 28 611 -13 470 -13 c 0
 244 -13 71 145 71 345 c 0
 71 556 252 713 473 713 c 0
473 705 m 0
 356 705 271 663 219 620 c 1
 219 359 l 1
 728 359 l 1
 728 618 l 1
 674 662 590 705 473 705 c 0
EndSplineSet
EndChar
StartChar: uni2135
Encoding: 8501 8501 595
Width: 546
Flags: W
HStem: 0 21G<59 81 59 59 465 491 465 465> 539 20G<56 82 82 82 454 476 476 476>
VStem: 59 22<0 60 60 64 0 118.5> 454 22<497 500 500 559>
LayerCount: 2
Fore
SplineSet
491 0 m 1
 465 0 l 1
 201 361 l 1
 82 298 81 172 81 64 c 2
 81 0 l 1
 59 0 l 1
 59 60 l 2
 59 177 62 306 190 375 c 1
 56 559 l 1
 82 559 l 1
 343 203 l 1
 453 269 454 391 454 497 c 2
 454 559 l 1
 476 559 l 1
 476 500 l 2
 476 385 472 259 353 188 c 1
 491 0 l 1
EndSplineSet
EndChar
StartChar: uni2137
Encoding: 8503 8503 597
Width: 382
Flags: W
HStem: -6 21G<43 43> 0 21G<273 297 273 273> 539 20<78 125 78 125>
VStem: 252 22<239 252 252 255 255 393>
LayerCount: 2
Fore
SplineSet
297 0 m 1x70
 273 0 l 1x70
 260 40 255 103 253 179 c 1
 216 61 134 7 43 -6 c 1
 46 14 l 1xb0
 139 28 225 92 252 239 c 1
 252 252 l 1
 252 393 l 2
 252 501 232 539 125 539 c 2
 78 539 l 1
 78 559 l 1
 125 559 l 2
 251 559 274 512 274 393 c 2
 274 255 l 2
 274 137 278 45 297 0 c 1x70
EndSplineSet
EndChar
StartChar: partialdiff
Encoding: 8706 8706 599
Width: 500
Flags: W
HStem: -10 21<191 291 191 298> 381 21<185.5 263 180 265> 671 20G<131 131>
VStem: 53 23<137 257.5 137 264> 404 23
LayerCount: 2
Fore
SplineSet
131 691 m 1
 326 624 427 500 427 263 c 0
 427 92 360 -10 236 -10 c 0
 140 -10 53 59 53 200 c 0
 53 328 134 402 226 402 c 0
 300 402 356 368 404 289 c 1
 399 495 306 605 126 673 c 1
 131 691 l 1
236 11 m 0
 346 11 403 99 404 258 c 1
 351 345 303 381 227 381 c 0
 144 381 76 316 76 199 c 0
 76 75 146 11 236 11 c 0
EndSplineSet
EndChar
StartChar: uni2207
Encoding: 8711 8711 604
Width: 584
Flags: W
HStem: 0 21G<270.893 313.107> 660 21<66 517>
LayerCount: 2
Fore
SplineSet
306 0 m 1
 278 0 l 1
 36 681 l 1
 548 681 l 1
 306 0 l 1
292 18 m 1
 517 660 l 1
 66 660 l 1
 292 18 l 1
EndSplineSet
EndChar
StartChar: uniFB01
Encoding: 64257 64257 951
Width: 549
Flags: W
HStem: 0 21G<121 143 121 121 409 431 409 409> 499 20<31 121 31 121 143 409> 716 21<215.5 274>
VStem: 121 22<0 499 0 499 519 611> 409 22<0 499 499 499>
LayerCount: 2
Fore
SplineSet
247 737 m 0
 302 737 350 720 389 699 c 1
 380 681 l 1
 342 700 300 716 248 716 c 0
 183 716 143 691 143 611 c 2
 143 519 l 1
 431 519 l 1
 431 0 l 1
 409 0 l 1
 409 499 l 1
 143 499 l 1
 143 0 l 1
 121 0 l 1
 121 499 l 1
 31 499 l 1
 31 519 l 1
 121 519 l 1
 121 616 l 2
 121 698 168 737 247 737 c 0
EndSplineSet
EndChar
StartChar: uniFB02
Encoding: 64258 64258 952
Width: 582
Flags: W
HStem: -10 21<466 491.5 466 491.5> 0 21G<121 143 121 121 529 529> 499 20<31 121 31 121 143 286> 716 21<220.5 284.5>
VStem: 121 22<0 499 0 499 519 614> 410 22<74 689 689 689 709 709>
LayerCount: 2
Fore
SplineSet
523 19 m 1x7c
 529 0 l 1
 517 -5 500 -10 483 -10 c 0
 437 -10 410 17 410 74 c 2xbc
 410 689 l 1
 357 707 312 716 257 716 c 0
 184 716 143 686 143 614 c 2
 143 519 l 1
 290 519 l 1
 286 499 l 1
 143 499 l 1
 143 0 l 1
 121 0 l 1x7c
 121 499 l 1
 31 499 l 1
 31 519 l 1
 121 519 l 1
 121 617 l 2
 121 695 170 737 255 737 c 0
 314 737 359 726 410 709 c 1
 432 712 l 1
 432 73 l 2
 432 32 447 11 485 11 c 0xbc
 498 11 511 14 523 19 c 1x7c
EndSplineSet
EndChar
StartChar: uniFB03
Encoding: 64259 64259 953
Width: 830
Flags: W
HStem: 0 21G<121 143 121 121 402 424 402 402 691 713 691 691> 499 20<31 121 31 121 143 402 424 691> 706 21<220.5 283.5 212.5 284> 716 21<504 555>
VStem: 121 22<0 499 0 499 519 604> 402 22<0 499 0 499 519 611> 691 22<0 499 499 499>
LayerCount: 2
Fore
SplineSet
424 519 m 1xde
 713 519 l 1
 713 0 l 1
 691 0 l 1
 691 499 l 1
 424 499 l 1
 424 0 l 1
 402 0 l 1
 402 499 l 1
 143 499 l 1
 143 0 l 1
 121 0 l 1
 121 499 l 1
 31 499 l 1
 31 519 l 1
 121 519 l 1
 121 607 l 2
 121 685 170 727 255 727 c 0
 312 727 358 716 421 689 c 1xee
 441 721 479 737 529 737 c 0
 584 737 632 720 670 699 c 1
 662 681 l 1
 624 700 581 716 529 716 c 0
 464 716 424 691 424 611 c 2
 424 519 l 1xde
402 519 m 1
 402 616 l 2
 402 638 405 656 412 672 c 1
 354 696 311 706 257 706 c 0
 184 706 143 676 143 604 c 2
 143 519 l 1
 402 519 l 1
EndSplineSet
EndChar
StartChar: uniFB04
Encoding: 64260 64260 954
Width: 864
Flags: W
HStem: -10 21<747.5 772.5 747.5 772.5> 0 21G<121 143 121 121 402 424 402 402 811 811> 499 20<31 121 31 121 143 402 424 568> 706 21<220.5 283.5 212.5 284> 716 21<510.5 566.5 510.5 566.5>
VStem: 121 22<0 499 0 499 519 604> 402 22<0 499 0 499 519 614> 692 22<74 689 689 689 709 709>
LayerCount: 2
Fore
SplineSet
804 19 m 1x6f
 811 0 l 1
 798 -5 781 -10 764 -10 c 0
 718 -10 692 17 692 74 c 2
 692 689 l 1
 639 707 594 716 539 716 c 0xaf
 466 716 424 686 424 614 c 2
 424 519 l 1
 571 519 l 1
 568 499 l 1
 424 499 l 1
 424 0 l 1
 402 0 l 1
 402 499 l 1
 143 499 l 1
 143 0 l 1
 121 0 l 1
 121 499 l 1
 31 499 l 1
 31 519 l 1
 121 519 l 1
 121 607 l 2
 121 685 170 727 255 727 c 0
 312 727 359 716 422 689 c 1x77
 444 720 484 737 537 737 c 0
 596 737 640 726 692 709 c 1
 714 712 l 1
 714 73 l 2
 714 32 729 11 766 11 c 0xaf
 779 11 792 14 804 19 c 1x6f
402 519 m 1
 402 617 l 2
 402 638 406 656 412 672 c 1
 355 696 311 706 257 706 c 0xb7
 184 706 143 676 143 604 c 2
 143 519 l 1
 402 519 l 1
EndSplineSet
EndChar
StartChar: u1D402
Encoding: 119810 119810 602
Width: 547
Flags: W
HStem: -11 43<281.5 380 281.5 383> 653 41<284.5 376>
VStem: 70 50<236.5 453 236.5 459.5>
LayerCount: 2
Fore
SplineSet
344 694 m 0
 422 694 468 671 515 633 c 1
 489 601 l 1
 443 637 405 653 347 653 c 0
 222 653 120 564 120 342 c 0
 120 131 219 32 344 32 c 0
 416 32 456 57 497 90 c 1
 523 58 l 1
 480 19 424 -11 342 -11 c 0
 186 -11 70 112 70 342 c 0
 70 577 193 694 344 694 c 0
EndSplineSet
EndChar
StartChar: u1D403
Encoding: 119811 119811 719
Width: 628
Flags: W
HStem: 0 41<162 255> 643 41<162 248 248 251 162 162>
VStem: 115 47<41 643 41 684 41 684> 508 50<222 476.5>
LayerCount: 2
Fore
SplineSet
248 684 m 2
 401 684 558 629 558 348 c 0
 558 63 393 0 255 0 c 2
 115 0 l 1
 115 684 l 1
 248 684 l 2
251 643 m 2
 162 643 l 1
 162 41 l 1
 258 41 l 2
 380 41 508 96 508 348 c 0
 508 605 375 643 251 643 c 2
EndSplineSet
EndChar
StartChar: u1D404
Encoding: 119812 119812 720
Width: 504
Flags: W
HStem: 0 41<162 460 162 460> 336 41<162 409 162 409> 643 41<162 448 162 162>
VStem: 115 47<41 336 377 643>
LayerCount: 2
Fore
SplineSet
454 684 m 1
 448 643 l 1
 162 643 l 1
 162 377 l 1
 409 377 l 1
 409 336 l 1
 162 336 l 1
 162 41 l 1
 460 41 l 1
 460 0 l 1
 115 0 l 1
 115 684 l 1
 454 684 l 1
EndSplineSet
EndChar
StartChar: u1D405
Encoding: 119813 119813 721
Width: 477
Flags: W
HStem: 0 21G<115 115 115 162> 324 40<162 404 162 404> 643 41<162 442 162 162>
VStem: 115 47<0 324 364 643>
LayerCount: 2
Fore
SplineSet
115 0 m 1
 115 684 l 1
 448 684 l 1
 442 643 l 1
 162 643 l 1
 162 364 l 1
 404 364 l 1
 404 324 l 1
 162 324 l 1
 162 0 l 1
 115 0 l 1
EndSplineSet
EndChar
StartChar: u1D406
Encoding: 119814 119814 611
Width: 614
Flags: W
HStem: -11 42<281 380.5 281 385.5> 324 41<361 499 361 361> 653 41<294.5 381.5>
VStem: 70 50<238 456.5 238 463.5> 499 47<68 324 324 324>
LayerCount: 2
Fore
SplineSet
351 694 m 0
 428 694 478 673 533 629 c 1
 504 598 l 1
 456 636 412 653 351 653 c 0
 238 653 120 568 120 345 c 0
 120 131 211 31 351 31 c 0
 410 31 455 44 499 68 c 1
 499 324 l 1
 361 324 l 1
 355 365 l 1
 546 365 l 1
 546 44 l 1
 487 9 420 -11 351 -11 c 0
 183 -11 70 108 70 345 c 0
 70 582 209 694 351 694 c 0
EndSplineSet
EndChar
StartChar: u1D407
Encoding: 119815 119815 607
Width: 667
Flags: W
HStem: 0 21G<115 162 115 115 504 552 504 504> 339 42<162 504 162 504> 664 20G<115 162 162 162 504 552 552 552>
VStem: 115 47<0 339 0 381 381 684> 504 48<0 339 339 339 381 684 0 684>
LayerCount: 2
Fore
SplineSet
504 0 m 1
 504 339 l 1
 162 339 l 1
 162 0 l 1
 115 0 l 1
 115 684 l 1
 162 684 l 1
 162 381 l 1
 504 381 l 1
 504 684 l 1
 552 684 l 1
 552 0 l 1
 504 0 l 1
EndSplineSet
EndChar
StartChar: u1D409
Encoding: 119817 119817 725
Width: 286
Flags: W
HStem: 664 20G<129 177 177 177>
VStem: 129 48<93 684>
LayerCount: 2
Fore
SplineSet
177 684 m 1
 177 90 l 2
 177 -24 141 -66 29 -113 c 1
 16 -78 l 1
 107 -36 129 0 129 93 c 2
 129 684 l 1
 177 684 l 1
EndSplineSet
EndChar
StartChar: u1D40A
Encoding: 119818 119818 610
Width: 533
Flags: W
HStem: 0 21G<115 162 115 115 474 474 474 533> 664 20G<115 162 162 162 461 516 516 516>
VStem: 115 47<0 684 0 684>
LayerCount: 2
Fore
SplineSet
162 684 m 1
 162 0 l 1
 115 0 l 1
 115 684 l 1
 162 684 l 1
516 684 m 1
 224 369 l 1
 533 0 l 1
 474 0 l 1
 166 367 l 1
 461 684 l 1
 516 684 l 1
EndSplineSet
EndChar
StartChar: u1D40B
Encoding: 119819 119819 611
Width: 470
Flags: W
HStem: 0 44<162 443> 664 20G<115 162 162 162>
VStem: 115 47<44 684 44 684 44 684>
LayerCount: 2
Fore
SplineSet
162 684 m 1
 162 44 l 1
 450 44 l 1
 443 0 l 1
 115 0 l 1
 115 684 l 1
 162 684 l 1
EndSplineSet
EndChar
StartChar: u1D40D
Encoding: 119821 119821 618
Width: 669
Flags: W
HStem: 0 53<515 515 515 554 493 515> 631 53<154 154>
VStem: 115 45<0 407 0 684> 509 45<253 684 0 684>
LayerCount: 2
Fore
SplineSet
554 684 m 1
 554 0 l 1
 493 0 l 1
 154 631 l 1
 157 587 160 528 160 407 c 2
 160 0 l 1
 115 0 l 1
 115 684 l 1
 176 684 l 1
 515 53 l 1
 513 86 509 163 509 253 c 2
 509 684 l 1
 554 684 l 1
EndSplineSet
EndChar
StartChar: u1D410
Encoding: 119824 119824 616
Width: 690
Flags: W
HStem: -9 27 -9 40<278.5 405.5> 653 41<278 413.5>
VStem: 70 50<236.5 445.5 236.5 453> 571 50<243 446.5>
LayerCount: 2
Fore
SplineSet
442 18 m 1xb8
 516 17 589 -2 643 -49 c 1xb8
 611 -89 l 1
 538 -25 466 -9 345 -9 c 0x78
 182 -9 70 113 70 340 c 0
 70 566 183 694 345 694 c 0
 509 694 621 572 621 341 c 0
 621 145 544 51 442 18 c 1xb8
120 340 m 0x78
 120 133 212 31 345 31 c 0
 485 31 571 133 571 341 c 0
 571 552 482 653 345 653 c 0
 211 653 120 551 120 340 c 0x78
EndSplineSet
EndChar
StartChar: u1D411
Encoding: 119825 119825 733
Width: 584
Flags: W
HStem: 0 21G<115 162 115 115 491 548 491 491> 313 40<162 283 283 310 162 283> 643 41<162 273 162 162>
VStem: 115 47<0 313 353 643> 463 50<449.5 547.5>
LayerCount: 2
Fore
SplineSet
491 0 m 1
 310 313 l 1
 162 313 l 1
 162 0 l 1
 115 0 l 1
 115 684 l 1
 276 684 l 2
 438 684 513 619 513 501 c 0
 513 397 455 344 359 321 c 1
 548 0 l 1
 491 0 l 1
162 353 m 1
 283 353 l 2
 397 353 463 398 463 501 c 0
 463 594 411 643 273 643 c 2
 162 643 l 1
 162 353 l 1
EndSplineSet
EndChar
StartChar: u1D412
Encoding: 119826 119826 734
Width: 537
Flags: W
HStem: -11 42<216 307.5 216 324> 653 41<222.5 299.5>
VStem: 71 48<493.5 567.5 493.5 577> 430 48<136 228>
LayerCount: 2
Fore
SplineSet
266 694 m 0
 353 694 405 666 457 620 c 1
 429 589 l 1
 378 634 332 653 267 653 c 0
 178 653 119 604 119 531 c 0
 119 456 160 423 282 386 c 0
 410 347 478 302 478 185 c 0
 478 69 390 -11 258 -11 c 0
 166 -11 99 22 44 74 c 1
 72 105 l 1
 122 60 175 31 257 31 c 0
 358 31 430 88 430 184 c 0
 430 272 387 308 263 346 c 0
 125 388 71 435 71 530 c 0
 71 624 149 694 266 694 c 0
EndSplineSet
EndChar
StartChar: u1D414
Encoding: 119828 119828 736
Width: 648
Flags: W
HStem: -11 43<264 384.5 264 398.5> 664 20G<105 152 152 152 495 543 543 543>
VStem: 105 47<211 215 215 684> 495 48<215 684>
LayerCount: 2
Fore
SplineSet
543 684 m 1
 543 211 l 2
 543 82 473 -11 324 -11 c 0
 174 -11 105 82 105 211 c 2
 105 684 l 1
 152 684 l 1
 152 215 l 2
 152 103 204 32 324 32 c 0
 445 32 495 105 495 215 c 2
 495 684 l 1
 543 684 l 1
EndSplineSet
EndChar
StartChar: u1D415
Encoding: 119829 119829 626
Width: 543
Flags: W
HStem: 0 48<272 272 272 299 244 272> 664 20G<20 71 71 71 473 523 523 523>
VStem: 20 503<684 684>
LayerCount: 2
Fore
SplineSet
523 684 m 1
 299 0 l 1
 244 0 l 1
 20 684 l 1
 71 684 l 1
 272 48 l 1
 473 684 l 1
 523 684 l 1
EndSplineSet
EndChar
StartChar: u1D416
Encoding: 119830 119830 738
Width: 804
Flags: W
HStem: 0 46<218 218 218 244 187 218> 632 52<402 402> 664 20G<32 81 81 81 375 429 429 429 725 771 771 771>
VStem: 32 739<684 684>
LayerCount: 2
Fore
SplineSet
771 684 m 1xb0
 617 0 l 1
 559 0 l 1
 402 632 l 1xd0
 244 0 l 1
 187 0 l 1
 32 684 l 1
 81 684 l 1
 218 46 l 1
 375 684 l 1
 429 684 l 1
 588 46 l 1
 725 684 l 1
 771 684 l 1xb0
EndSplineSet
EndChar
StartChar: u1D417
Encoding: 119831 119831 623
Width: 505
Flags: W
HStem: 0 21G<12 64 12 12 439 493 439 439> 664 20G<33 87 87 87 411 463 463 463>
VStem: 12 481<0 0>
LayerCount: 2
Fore
SplineSet
278 371 m 1
 493 0 l 1
 439 0 l 1
 249 338 l 1
 64 0 l 1
 12 0 l 1
 222 368 l 1
 33 684 l 1
 87 684 l 1
 250 400 l 1
 411 684 l 1
 463 684 l 1
 278 371 l 1
EndSplineSet
EndChar
StartChar: u1D418
Encoding: 119832 119832 740
Width: 513
Flags: W
HStem: 0 21G<234 281 234 234> 664 20G<16 69 69 69 445 497 497 497>
VStem: 234 47<0 268 268 268>
LayerCount: 2
Fore
SplineSet
497 684 m 1
 281 269 l 1
 281 0 l 1
 234 0 l 1
 234 268 l 1
 16 684 l 1
 69 684 l 1
 259 312 l 1
 445 684 l 1
 497 684 l 1
EndSplineSet
EndChar
StartChar: u1D419
Encoding: 119833 119833 741
Width: 514
Flags: W
HStem: 0 43<92 450> 642 42<75 412 75 465>
VStem: 37 428
LayerCount: 2
Fore
SplineSet
465 684 m 1
 465 644 l 1
 92 43 l 1
 456 43 l 1
 450 0 l 1
 37 0 l 1
 37 40 l 1
 412 642 l 1
 75 642 l 1
 75 684 l 1
 465 684 l 1
EndSplineSet
EndChar
StartChar: u1D41A
Encoding: 119834 119834 742
Width: 534
Flags: W
HStem: -11 39<189.5 256> 276 36<272 279 279 379> 492 40<232 299.5>
VStem: 60 49<108.5 190 108.5 199> 379 46<127 276 276 276 312 367 367 370>
LayerCount: 2
Fore
SplineSet
425 113 m 2
 425 51 440 33 469 22 c 1
 458 -11 l 1
 415 0 390 24 385 81 c 1
 347 20 292 -11 220 -11 c 0
 120 -11 60 52 60 145 c 0
 60 253 143 312 272 312 c 2
 379 312 l 1
 379 367 l 2
 379 452 345 492 254 492 c 0
 210 492 163 481 112 461 c 1
 99 498 l 1
 155 520 205 532 258 532 c 0
 374 532 425 475 425 370 c 2
 425 113 l 2
226 28 m 0
 297 28 346 64 379 127 c 1
 379 276 l 1
 279 276 l 2
 172 276 109 234 109 146 c 0
 109 71 153 28 226 28 c 0
EndSplineSet
EndChar
StartChar: u1D41B
Encoding: 119835 119835 632
Width: 570
Flags: W
HStem: -11 40<273.5 350 269.5 371> 0 21G<109 149 109 109> 493 39<280 355.5> 715 20G<109 109> 721 20G<155 155>
VStem: 109 46<115 399 447 735 735 735> 455 49<186.5 342>
LayerCount: 2
Fore
SplineSet
315 532 m 0xae
 435 532 504 437 504 264 c 0
 504 95 434 -11 308 -11 c 0
 239 -11 187 25 154 69 c 1xae
 149 0 l 1
 109 0 l 1
 109 735 l 1x76
 155 741 l 1
 155 447 l 1
 193 497 245 532 315 532 c 0xae
301 29 m 0
 399 29 455 109 455 264 c 0
 455 420 403 493 308 493 c 0
 237 493 194 453 155 399 c 1
 155 115 l 1
 190 65 238 29 301 29 c 0
EndSplineSet
EndChar
StartChar: u1D41C
Encoding: 119836 119836 628
Width: 466
Flags: W
HStem: -11 41<236 311 236 315> 492 40<237 311.5>
VStem: 67 49<181 336 181 342>
LayerCount: 2
Fore
SplineSet
285 532 m 0
 342 532 385 517 428 481 c 1
 404 450 l 1
 371 477 336 492 287 492 c 0
 187 492 116 414 116 258 c 0
 116 104 186 30 286 30 c 0
 336 30 373 47 408 76 c 1
 432 45 l 1
 393 10 344 -11 286 -11 c 0
 154 -11 67 88 67 258 c 0
 67 426 153 532 285 532 c 0
EndSplineSet
EndChar
StartChar: u1D41E
Encoding: 119838 119838 630
Width: 531
Flags: W
HStem: -11 41<239 315.5 239 318.5> 241 37<115 426 115 469 115 426> 493 39<231.5 326>
VStem: 67 48<241 241 241 278 241 341> 426 45<278 297 297 355.5>
LayerCount: 2
Fore
SplineSet
471 282 m 0
 471 266 470 251 469 241 c 1
 115 241 l 1
 122 93 192 30 286 30 c 0
 345 30 383 48 428 83 c 1
 451 53 l 1
 403 13 353 -11 284 -11 c 0
 150 -11 67 89 67 257 c 0
 67 425 147 532 272 532 c 0
 405 532 471 433 471 282 c 0
426 278 m 1
 426 297 l 2
 426 414 378 493 274 493 c 0
 189 493 121 429 115 278 c 1
 426 278 l 1
EndSplineSet
EndChar
StartChar: u1D41F
Encoding: 119839 119839 631
Width: 316
Flags: W
HStem: 0 21G<114 160 114 114> 483 39<25 114 25 114 160 295> 701 40<225 272.5>
VStem: 114 46<0 483 0 483 522 610>
LayerCount: 2
Fore
SplineSet
255 701 m 0
 195 701 160 675 160 610 c 2
 160 522 l 1
 302 522 l 1
 295 483 l 1
 160 483 l 1
 160 0 l 1
 114 0 l 1
 114 483 l 1
 25 483 l 1
 25 522 l 1
 114 522 l 1
 114 612 l 2
 114 693 168 741 253 741 c 0
 296 741 336 731 373 713 c 1
 356 678 l 1
 322 693 290 701 255 701 c 0
EndSplineSet
EndChar
StartChar: u1D420
Encoding: 119840 119840 637
Width: 501
Flags: W
HStem: -203 40<186.5 313 186.5 325.5> 33 41<174 308 222 301> 185 36<234.5 290.5 204.5 304.5> 495 37<199 246 189 293.5> 501 31 542 20G<471 471>
VStem: 36 44<-107.5 -56> 59 47<322.5 398 313.5 410> 89 45<115.5 140.5> 385 47<313 393 304.5 398> 424 47<-90.5 -29>
LayerCount: 2
Fore
SplineSet
471 562 m 1xf540
 486 516 l 1
 453 506 409 502 344 501 c 1
 397 476 432 431 432 355 c 0
 432 254 362 185 247 185 c 0
 222 185 198 189 178 196 c 1
 151 181 134 158 134 132 c 0
 134 99 156 74 222 74 c 2xe8c0
 308 74 l 2
 410 74 471 21 471 -55 c 0
 471 -147 400 -203 251 -203 c 0
 98 -203 36 -159 36 -56 c 1
 80 -56 l 1xf220
 81 -134 122 -163 251 -163 c 0
 375 -163 424 -123 424 -58 c 0
 424 0 378 33 301 33 c 2
 216 33 l 2
 132 33 89 73 89 123 c 0xf0a0
 89 158 111 188 146 210 c 1
 87 241 59 287 59 358 c 0
 59 462 132 532 246 532 c 0xf140
 390 531 424 543 471 562 c 1xf540
247 495 m 0xf140
 151 495 106 438 106 358 c 0
 106 269 163 221 246 221 c 0
 335 221 385 270 385 356 c 0
 385 440 340 495 247 495 c 0xf140
EndSplineSet
EndChar
StartChar: u1D421
Encoding: 119841 119841 638
Width: 581
Flags: W
HStem: 0 21G<109 155 109 109 431 477 431 431> 494 38<295.5 361> 715 20G<109 109> 721 20G<155 155>
VStem: 109 46<0 381 430 735 735 735> 431 46<0 366 366 372 0 410>
LayerCount: 2
Fore
SplineSet
334 532 m 0xdc
 428 532 477 472 477 372 c 2
 477 0 l 1
 431 0 l 1
 431 366 l 2
 431 454 395 494 327 494 c 0
 252 494 200 447 155 381 c 1
 155 0 l 1
 109 0 l 1
 109 735 l 1xec
 155 741 l 1
 155 430 l 1
 200 491 257 532 334 532 c 0xdc
EndSplineSet
EndChar
StartChar: u1D423
Encoding: 119843 119843 751
Width: 265
Flags: W
HStem: -200 21G<25 25> 502 20G<110 156 156 156> 674 70<122 144>
VStem: 97 72<699.5 718.5> 110 46<13 14 14 522>
LayerCount: 2
Fore
SplineSet
133 744 m 0xf0
 155 744 169 728 169 709 c 0
 169 690 155 674 133 674 c 0
 111 674 97 690 97 709 c 0
 97 728 111 744 133 744 c 0xf0
156 522 m 1xe8
 156 14 l 2
 156 -122 114 -158 25 -200 c 1
 12 -167 l 1
 81 -132 110 -103 110 13 c 2
 110 522 l 1
 156 522 l 1xe8
EndSplineSet
EndChar
StartChar: u1D425
Encoding: 119845 119845 753
Width: 289
Flags: W
HStem: -11 41<180 200> 715 20G<104 104> 721 20G<150 150>
VStem: 104 46<82 84 84 735 735 735>
LayerCount: 2
Fore
SplineSet
190 -11 m 0xb0
 139 -11 104 19 104 82 c 2
 104 735 l 1xd0
 150 741 l 1
 150 84 l 2
 150 48 165 30 195 30 c 0
 208 30 221 33 232 37 c 1
 245 2 l 1
 230 -5 210 -11 190 -11 c 0xb0
EndSplineSet
EndChar
StartChar: u1D426
Encoding: 119846 119846 754
Width: 849
Flags: W
HStem: 0 21G<109 155 109 109 404 450 404 404 699 745 699 699> 494 38<283.5 340 577.5 634.5> 502 20G<109 149 149 149>
VStem: 109 46<0 381 0 522> 404 46<0 366 366 381 0 410> 699 46<0 366 366 372 0 410>
LayerCount: 2
Fore
SplineSet
612 532 m 0xdc
 696 532 745 472 745 372 c 2
 745 0 l 1
 699 0 l 1
 699 366 l 2
 699 454 664 494 605 494 c 0
 540 494 491 447 450 381 c 1
 450 0 l 1
 404 0 l 1
 404 366 l 2
 404 454 370 494 310 494 c 0xdc
 245 494 196 447 155 381 c 1
 155 0 l 1
 109 0 l 1
 109 522 l 1
 149 522 l 1xbc
 153 430 l 1
 194 491 250 532 317 532 c 0
 385 532 430 492 445 425 c 1
 486 488 543 532 612 532 c 0xdc
EndSplineSet
EndChar
StartChar: u1D427
Encoding: 119847 119847 755
Width: 581
Flags: W
HStem: 0 21G<109 155 109 109 431 477 431 431> 494 38<295.5 362> 502 20G<109 149 149 149>
VStem: 109 46<0 381 0 522> 431 46<0 366 366 372 0 410.5>
LayerCount: 2
Fore
SplineSet
334 532 m 0xd8
 429 532 477 474 477 372 c 2
 477 0 l 1
 431 0 l 1
 431 366 l 2
 431 455 396 494 328 494 c 0xd8
 252 494 200 447 155 381 c 1
 155 0 l 1
 109 0 l 1
 109 522 l 1
 149 522 l 1xb8
 153 429 l 1
 197 490 257 532 334 532 c 0xd8
EndSplineSet
EndChar
StartChar: u1D428
Encoding: 119848 119848 756
Width: 567
Flags: W
HStem: -11 40<230.5 335 230.5 350> 492 40<232.5 337>
VStem: 67 48<185 337 185 345> 452 48<186 338.5>
LayerCount: 2
Fore
SplineSet
284 532 m 0
 419 532 500 435 500 263 c 0
 500 92 417 -11 283 -11 c 0
 148 -11 67 92 67 260 c 0
 67 430 151 532 284 532 c 0
284 492 m 0
 181 492 115 414 115 260 c 0
 115 110 178 29 283 29 c 0
 387 29 452 109 452 263 c 0
 452 414 390 492 284 492 c 0
EndSplineSet
EndChar
StartChar: u1D429
Encoding: 119849 119849 757
Width: 570
Flags: W
HStem: -203 21G<109 109> -195 21G<155 155> -11 41<273.5 351 269 372> 493 39<280 357.5> 502 20G<109 149 149 149>
VStem: 109 46<-195 66 114 399> 455 49<187 340.5>
LayerCount: 2
Fore
SplineSet
315 532 m 0x76
 441 532 504 434 504 264 c 0
 504 97 436 -11 308 -11 c 0
 239 -11 187 24 155 66 c 1
 155 -195 l 1x76
 109 -203 l 1
 109 522 l 1
 149 522 l 1xae
 152 443 l 1
 190 496 245 532 315 532 c 0x76
301 30 m 0
 401 30 455 110 455 264 c 0
 455 417 405 493 310 493 c 0
 239 493 194 453 155 399 c 1
 155 114 l 1
 190 63 237 30 301 30 c 0
EndSplineSet
EndChar
StartChar: u1D42A
Encoding: 119850 119850 642
Width: 575
Flags: W
HStem: -203 21G<466 466> -195 21G<420 420> -11 40<221 301> 493 39<229.5 310.5 207.5 312> 502 20G<426 466 466 466>
VStem: 67 48<259 259> 420 46<-195 79 79 79 131 411 411 411>
LayerCount: 2
Fore
SplineSet
426 522 m 1x6e
 466 522 l 1
 466 -203 l 1xae
 420 -195 l 1
 420 79 l 1
 390 30 340 -11 262 -11 c 0
 142 -11 67 92 67 259 c 0
 67 420 143 532 272 532 c 0
 349 532 393 494 422 457 c 1x76
 426 522 l 1x6e
268 29 m 0
 341 29 384 66 420 131 c 1
 420 411 l 1
 389 456 346 493 278 493 c 0x76
 181 493 114 409 115 259 c 0
 116 111 174 29 268 29 c 0
EndSplineSet
EndChar
StartChar: u1D42B
Encoding: 119851 119851 643
Width: 368
Flags: W
HStem: 0 21G<109 155 109 109> 489 43<264.5 308.5> 502 20G<109 149 149 149> 506 20G<354 354>
VStem: 109 46<0 326 0 522>
LayerCount: 2
Fore
SplineSet
302 532 m 0xc8
 325 532 342 530 354 526 c 1x98
 346 483 l 1
 332 487 317 489 300 489 c 0xc8
 225 489 184 435 155 326 c 1
 155 0 l 1
 109 0 l 1
 109 522 l 1
 149 522 l 1xa8
 152 401 l 1
 180 489 227 532 302 532 c 0xc8
EndSplineSet
EndChar
